<?xml version="1.0" encoding="UTF-8"?>
<svg xmlns="http://www.w3.org/2000/svg" xmlns:xlink="http://www.w3.org/1999/xlink" version="1.2" >
<font id="Coco Gothic">
<font-face  font-family="Coco Gothic" units-per-em="1000" ascent="742" descent="-193" font-style="normal" font-weight="400" font-stretch="normal" cap-height="742" x-height="491" underline-position="-75" underline-thickness="50" />
<missing-glyph  horiz-adv-x="313" d="M141 125 C179 93 227 72 281 72 C335 72 384 93 422 125 L141 125 Z M397 415 L119 415 C89 378 72 333 72 282 C72 228 91 179 124 141 L397 415 Z M420 438 C384 471 335 492 281 492 C227 492 178 472 140 438 L420 438 Z M490 282 C490 333 472 379 437 423 L164 148 L443 148 C473 185 490 231 490 282 L490 282 Z M349 38 C452 69 534 160 534 282 C534 415 427 536 281 536 C145 536 28 426 28 282 C28 146 137 29 281 29 C305 29 327 32 349 38 L349 38 Z M342 506 C436 480 514 396 514 282 C514 152 409 48 281 48 C150 48 49 157 49 282 C49 406 147 515 281 515 C303 515 324 512 342 506 L342 506 Z " />
<glyph glyph-name="NULL" d="" />
<glyph glyph-name="CR" unicode="&#xd;" horiz-adv-x="250" d="" />
<glyph glyph-name="space" unicode="&#x20;" horiz-adv-x="313" d="" />
<glyph glyph-name="exclam" unicode="&#x21;" horiz-adv-x="248" d="M167 720 C167 733 158 742 145 742 L103 742 C89 742 81 734 81 720 L81 225 C81 210 88 203 103 203 L145 203 C159 203 167 210 167 225 L167 720 Z M60 47 C60 12 88 -16 122 -16 C158 -16 185 12 185 47 C185 82 158 110 122 110 C88 110 60 82 60 47 L60 47 Z " />
<glyph glyph-name="quotedbl" unicode="&#x22;" horiz-adv-x="416" d="M81 553 C81 538 89 530 103 530 L144 530 C157 530 167 534 167 553 L167 721 C167 735 159 743 145 743 L103 743 C89 743 81 735 81 721 L81 553 Z M243 553 C243 538 251 530 265 530 L306 530 C319 530 329 534 329 553 L329 721 C329 735 321 743 307 743 L265 743 C251 743 243 735 243 721 L243 553 Z " />
<glyph glyph-name="numbersign" unicode="&#x23;" horiz-adv-x="517" d="M217 456 L320 456 L299 285 L195 285 L217 456 Z M331 543 L227 543 L249 720 C251 733 240 742 228 742 L187 742 C173 742 164 732 162 720 L141 543 L86 543 C71 543 62 535 60 521 L55 479 C53 464 60 456 75 456 L130 456 L109 285 L54 285 C39 285 30 277 28 263 L23 222 C21 206 28 198 43 198 L98 198 L77 22 C75 7 81 0 96 0 L137 0 C153 0 161 7 163 22 L185 198 L288 198 L267 22 C265 7 271 0 286 0 L327 0 C343 0 351 7 353 22 L375 198 L434 198 C447 198 458 210 459 222 L464 263 C466 277 457 285 445 285 L385 285 L407 456 L466 456 C479 456 489 467 491 479 L496 521 C498 535 489 543 477 543 L417 543 L439 720 C441 733 431 742 419 742 L377 742 C363 742 354 732 352 720 L331 543 Z " />
<glyph glyph-name="dollar" unicode="&#x24;" horiz-adv-x="641" d="M501 588 C507 582 513 578 519 578 C523 578 528 581 532 585 L562 614 C567 619 570 624 570 630 C570 638 559 649 551 658 C503 704 433 739 364 750 L364 818 C364 832 353 840 340 840 L299 840 C285 840 277 830 277 818 L277 750 C148 735 67 655 67 546 C67 445 149 391 313 349 C417 322 515 298 515 216 C515 119 407 74 324 74 C276 74 183 106 124 167 C121 170 111 182 102 182 C98 182 91 180 87 177 L55 150 C49 145 46 140 46 134 C46 129 49 123 54 116 C109 45 190 3 277 -7 L277 -80 C277 -95 285 -103 299 -103 L340 -103 C356 -103 364 -95 364 -80 L364 -8 C499 7 601 92 601 222 C601 362 456 397 337 430 C251 453 159 481 159 549 C159 607 207 669 320 669 C404 669 469 617 501 588 L501 588 Z " />
<glyph glyph-name="percent" unicode="&#x25;" horiz-adv-x="928" d="M48 563 C48 456 133 370 240 370 C347 370 433 456 433 563 C433 669 347 755 240 755 C133 755 48 669 48 563 L48 563 Z M500 182 C500 75 586 -11 692 -11 C799 -11 885 75 885 182 C885 288 799 374 692 374 C586 374 500 288 500 182 L500 182 Z M577 182 C577 246 628 297 692 297 C752 297 807 252 807 182 C807 117 757 66 692 66 C628 66 577 117 577 182 L577 182 Z M125 563 C125 627 175 678 240 678 C304 678 355 627 355 563 C355 498 304 447 240 447 C175 447 125 498 125 563 L125 563 Z M243 21 C240 14 241 13 241 10 C241 3 246 0 257 0 L310 0 C322 0 329 6 335 17 C449 252 559 483 674 717 C673 717 673 717 673 718 C673 722 675 727 675 730 C675 738 669 742 655 742 L610 742 C593 742 587 737 579 720 L243 21 Z " />
<glyph glyph-name="ampersand" unicode="&#x26;" horiz-adv-x="838" d="M821 297 C821 299 822 302 822 304 C822 315 815 323 803 326 L772 334 C769 334 766 335 763 335 C752 335 743 328 740 316 L739 313 C730 282 697 264 665 264 C658 264 652 265 645 266 L410 325 C408 325 405 326 403 326 C391 326 382 317 379 305 L371 272 C370 269 370 266 370 263 C370 251 377 243 389 240 L478 218 C471 123 396 73 316 73 C227 73 152 132 152 220 C152 319 204 374 302 374 C315 374 321 379 323 394 L331 430 C331 432 332 433 332 434 C332 446 324 451 309 453 C245 460 203 503 203 558 C203 614 240 665 315 665 C384 665 423 624 423 559 C423 545 433 537 448 537 L489 537 C503 537 510 544 510 559 C510 682 420 745 314 745 C209 745 116 668 116 559 C116 501 142 451 183 420 C110 381 65 315 65 219 C65 84 180 -11 316 -11 C441 -11 551 57 565 197 L624 182 C637 179 650 177 663 177 C736 177 802 226 821 297 L821 297 Z " />
<glyph glyph-name="quotesingle" unicode="&#x27;" horiz-adv-x="264" d="M81 553 C81 538 89 530 103 530 L144 530 C157 530 167 534 167 553 L167 721 C167 735 159 743 145 743 L103 743 C89 743 81 735 81 721 L81 553 Z " />
<glyph glyph-name="parenleft" unicode="&#x28;" horiz-adv-x="248" d="M173 -127 C177 -133 183 -137 189 -137 C193 -137 198 -135 202 -132 L237 -109 C245 -105 247 -97 247 -91 C247 -86 246 -81 243 -77 C159 59 117 209 117 369 C117 528 159 681 243 814 C246 818 247 823 247 827 C247 834 244 841 237 846 L202 871 C198 874 193 875 189 875 C183 875 177 872 173 865 C83 721 31 551 31 369 C31 188 83 17 173 -127 L173 -127 Z " />
<glyph glyph-name="parenright" unicode="&#x29;" horiz-adv-x="248" d="M75 -127 C166 17 217 188 217 369 C217 551 166 721 75 865 C71 872 66 875 59 875 C55 875 51 874 47 871 L11 846 C4 841 1 834 1 827 C1 823 3 818 6 814 C90 681 131 528 131 369 C131 209 89 59 6 -77 C3 -81 1 -86 1 -91 C1 -97 4 -105 11 -109 L47 -132 C51 -135 55 -137 59 -137 C66 -137 71 -133 75 -127 L75 -127 Z " />
<glyph glyph-name="asterisk" unicode="&#x2a;" horiz-adv-x="491" d="M363 437 C366 441 367 445 367 449 C367 457 361 463 351 469 L320 488 C314 491 310 492 306 492 C297 492 291 485 284 474 L245 390 C226 429 205 492 186 492 C181 492 175 490 169 486 L137 468 C128 463 124 457 124 450 C124 445 127 438 131 431 L184 355 C146 358 116 361 85 364 C69 364 63 354 63 337 L63 301 C63 281 73 277 93 277 L184 285 C164 255 146 229 127 203 C125 200 124 196 124 193 C125 184 131 175 140 170 L169 154 C175 150 180 149 185 149 C192 149 198 152 203 160 L245 250 L288 160 C292 152 299 149 306 149 C312 149 318 151 323 154 L351 171 C361 177 366 184 366 192 C366 196 365 199 363 203 L306 285 C343 283 374 280 406 277 C421 277 428 292 428 305 L428 337 C428 354 419 364 406 364 L306 355 L363 437 Z " />
<glyph glyph-name="plus" unicode="&#x2b;" horiz-adv-x="450" d="M268 275 L385 275 C398 275 407 286 407 298 L407 340 C407 354 397 362 385 362 L268 362 L268 478 C268 494 260 502 246 502 L204 502 C188 502 181 494 181 478 L181 362 L64 362 C50 362 42 354 42 340 L42 298 C42 283 50 275 64 275 L181 275 L181 158 C181 145 192 136 204 136 L246 136 C260 136 268 146 268 158 L268 275 Z " />
<glyph glyph-name="comma" unicode="&#x2c;" horiz-adv-x="264" d="M60 45 C60 13 86 -16 117 -21 L117 -25 C117 -51 98 -56 98 -68 C98 -72 101 -79 106 -83 L121 -95 C125 -98 128 -99 133 -99 C150 -99 193 -54 193 40 C193 83 165 112 126 112 C90 112 60 83 60 45 L60 45 Z " />
<glyph glyph-name="hyphen" unicode="&#x2d;" horiz-adv-x="517" d="M104 319 C88 319 80 311 80 297 L80 255 C80 240 88 232 104 232 L422 232 C435 232 444 243 444 255 L444 297 C444 311 434 319 422 319 L104 319 Z " />
<glyph glyph-name="period" unicode="&#x2e;" horiz-adv-x="264" d="M60 47 C60 12 88 -16 122 -16 C158 -16 185 12 185 47 C185 82 158 110 122 110 C88 110 60 82 60 47 L60 47 Z " />
<glyph glyph-name="slash" unicode="&#x2f;" horiz-adv-x="497" d="M57 21 C56 17 55 14 55 11 C55 4 60 0 72 0 L124 0 C136 0 144 6 149 17 C224 193 363 541 438 716 C441 722 442 727 442 730 C442 739 435 742 420 742 L375 742 C359 742 351 737 344 720 L57 21 Z " />
<glyph glyph-name="zero" unicode="0" horiz-adv-x="853" d="M426 752 C215 752 44 581 44 370 C44 159 214 -11 425 -11 C637 -11 808 159 808 369 C808 582 636 752 426 752 L426 752 Z M131 371 C131 533 262 665 426 665 C588 665 720 533 720 371 C720 207 588 75 426 75 C262 75 131 207 131 371 L131 371 Z " />
<glyph glyph-name="one" unicode="1" horiz-adv-x="341" d="M185 742 C180 742 173 739 172 739 C144 726 121 715 93 703 C81 697 76 692 76 680 L76 630 C76 621 81 616 89 616 C104 616 139 634 162 645 L162 22 C162 7 169 0 184 0 L225 0 C241 0 248 7 248 22 L248 720 C248 734 240 742 225 742 L185 742 Z " />
<glyph glyph-name="two" unicode="2" horiz-adv-x="616" d="M533 0 C546 0 556 12 556 24 L556 63 C556 79 546 85 533 85 L192 85 C243 134 434 317 484 366 C523 404 551 461 551 525 C551 661 439 747 303 747 C210 747 141 699 96 643 C93 638 87 628 87 620 C87 616 89 614 92 610 L130 579 C132 577 135 576 138 576 C145 576 154 582 158 588 C189 636 243 662 297 664 L303 664 C390 664 462 605 462 523 C462 482 448 451 406 409 L65 76 C63 71 62 67 62 63 L62 24 C62 11 73 0 86 0 L533 0 Z " />
<glyph glyph-name="three" unicode="3" horiz-adv-x="533" d="M219 656 C232 662 247 665 263 665 C323 665 370 621 370 561 C370 502 323 458 265 458 C249 458 241 450 241 436 L241 397 C241 382 248 375 263 375 C347 375 417 309 417 226 C417 136 344 73 255 73 C201 73 151 97 116 150 C109 160 103 180 88 180 C84 180 79 179 74 176 L39 154 C34 150 33 147 33 142 C33 125 43 114 56 93 C96 44 147 -11 263 -11 C394 -11 501 94 501 225 C501 310 456 381 389 422 C428 455 453 504 453 561 C453 666 368 749 263 749 C188 749 123 709 91 639 C88 634 87 630 87 626 C87 619 91 615 99 611 L139 592 C144 590 147 589 151 589 C158 589 163 594 167 604 C177 627 194 644 219 656 L219 656 Z " />
<glyph glyph-name="four" unicode="4" horiz-adv-x="621" d="M403 127 L403 26 C403 9 412 0 429 0 L463 0 C480 0 489 9 489 26 L489 127 L547 127 C564 127 574 136 574 153 L574 187 C574 205 564 214 547 214 L489 214 C490 709 490 710 490 711 C490 733 479 743 462 743 C423 743 418 743 392 703 C283 540 181 373 76 208 C58 180 50 167 50 150 C50 138 57 127 76 127 L403 127 Z M173 214 C253 332 324 452 403 570 L403 214 L173 214 Z " />
<glyph glyph-name="five" unicode="5" horiz-adv-x="572" d="M531 241 C531 381 418 495 277 495 C235 495 190 480 149 457 L167 656 L444 656 C460 656 467 663 467 676 L467 721 C467 736 460 743 445 743 L107 743 C94 743 86 736 86 722 L53 367 C54 354 61 347 70 347 L129 347 C148 347 155 354 163 363 C193 392 235 408 279 408 C372 408 447 334 447 241 C447 149 372 73 279 73 C226 73 170 96 135 149 C128 160 122 180 107 180 C103 180 98 179 93 175 L58 153 C53 149 52 146 52 142 C52 124 62 113 75 93 C115 43 166 -11 282 -11 C418 -11 531 103 531 241 L531 241 Z " />
<glyph glyph-name="six" unicode="6" horiz-adv-x="599" d="M44 245 C44 103 157 -10 298 -10 C439 -10 553 103 553 245 C553 386 439 499 298 499 C279 499 261 495 246 489 C288 562 291 568 377 717 C381 724 381 731 381 734 C381 741 375 743 363 743 L311 743 C294 743 287 737 278 721 L80 376 C58 337 44 293 44 245 L44 245 Z M131 245 C131 338 204 416 298 416 C392 416 464 338 464 245 C464 150 392 74 298 74 C204 74 131 150 131 245 L131 245 Z " />
<glyph glyph-name="seven" unicode="7" horiz-adv-x="574" d="M66 742 C48 742 39 733 39 717 L39 682 C39 664 48 655 66 655 L399 655 L78 34 C72 25 70 14 70 10 C70 3 74 0 89 0 L143 0 C161 0 168 12 172 21 L518 689 C522 697 526 705 526 717 C526 730 517 742 499 742 L66 742 Z " />
<glyph glyph-name="eight" unicode="8" horiz-adv-x="554" d="M86 561 C86 506 109 457 145 422 C82 380 40 308 40 225 C40 95 146 -10 276 -10 C407 -10 512 95 512 225 C512 308 470 380 406 422 C443 457 466 506 466 561 C466 665 381 751 276 751 C171 751 86 665 86 561 L86 561 Z M124 226 C124 309 193 379 276 379 C358 379 428 309 428 226 C428 144 358 75 276 75 C193 75 124 144 124 226 L124 226 Z M174 560 C174 618 218 664 276 664 C334 664 380 618 380 560 C380 502 334 456 276 456 C218 456 174 502 174 560 L174 560 Z " />
<glyph glyph-name="nine" unicode="9" horiz-adv-x="598" d="M553 496 C553 638 439 751 298 751 C158 751 44 638 44 496 C44 354 158 241 298 241 C318 241 336 246 351 252 C309 178 292 148 220 24 C216 17 216 10 216 7 C216 1 222 -1 234 -1 L286 -1 C303 -1 311 5 320 21 L517 365 C539 403 553 448 553 496 L553 496 Z M466 496 C466 402 393 325 298 325 C205 325 133 402 133 496 C133 591 205 667 298 667 C393 667 466 591 466 496 L466 496 Z " />
<glyph glyph-name="colon" unicode="&#x3a;" horiz-adv-x="248" d="M60 47 C60 12 88 -16 122 -16 C158 -16 185 12 185 47 C185 82 158 110 122 110 C88 110 60 82 60 47 L60 47 Z M60 437 C60 402 88 374 122 374 C158 374 185 402 185 437 C185 472 158 500 122 500 C88 500 60 472 60 437 L60 437 Z " />
<glyph glyph-name="semicolon" unicode="&#x3b;" horiz-adv-x="248" d="M58 45 C58 13 84 -17 115 -22 L115 -25 C115 -46 96 -51 96 -68 C96 -73 99 -79 104 -83 L119 -95 C123 -98 126 -99 131 -99 C148 -99 191 -54 191 39 C191 83 163 111 124 111 C88 111 58 83 58 45 L58 45 Z M60 437 C60 402 88 374 122 374 C158 374 185 402 185 437 C185 472 158 500 122 500 C88 500 60 472 60 437 L60 437 Z " />
<glyph glyph-name="less" unicode="&#x3c;" horiz-adv-x="438" d="M61 289 C58 286 54 281 54 276 C54 270 58 264 61 262 L295 28 C298 25 305 19 311 19 C318 19 322 24 326 28 L355 58 C359 62 364 66 364 74 C364 82 362 84 357 89 L170 275 L357 462 C362 467 364 469 364 477 C364 485 359 489 355 493 L326 523 C322 527 318 532 311 532 C305 532 298 526 295 523 L61 289 Z " />
<glyph glyph-name="equal" unicode="&#x3d;" horiz-adv-x="517" d="M97 389 C81 389 73 381 73 367 L73 325 C73 310 81 302 97 302 L417 302 C430 302 439 313 439 325 L439 367 C439 381 429 389 417 389 L97 389 Z M97 243 C81 243 73 236 73 221 L73 180 C73 164 81 157 97 157 L417 157 C430 157 439 168 439 180 L439 221 C439 236 429 243 417 243 L97 243 Z " />
<glyph glyph-name="greater" unicode="&#x3e;" horiz-adv-x="419" d="M145 523 C142 526 135 532 129 532 C121 532 118 527 113 523 L85 493 C81 489 75 485 75 477 C75 469 78 467 83 462 L270 275 L83 89 C78 84 75 82 75 74 C75 66 81 62 85 58 L113 28 C118 24 121 19 129 19 C135 19 142 25 145 28 L379 262 C381 264 386 270 386 276 C386 281 381 286 379 289 L145 523 Z " />
<glyph glyph-name="question" unicode="&#x3f;" horiz-adv-x="574" d="M318 262 C318 306 355 333 397 363 C452 402 523 460 523 571 C523 700 415 789 279 789 C150 789 34 703 34 555 L34 548 C34 540 40 531 51 531 L104 531 C112 531 120 537 120 548 L120 560 C120 663 210 709 278 709 C367 709 438 648 438 562 C438 489 385 452 332 414 C281 377 231 341 231 271 L231 189 C231 180 237 171 248 171 L302 171 C310 171 318 178 318 189 L318 262 Z M215 47 C215 12 243 -16 277 -16 C313 -16 340 12 340 47 C340 82 313 110 277 110 C243 110 215 82 215 47 L215 47 Z " />
<glyph glyph-name="at" unicode="&#x40;" horiz-adv-x="948" d="M696 -74 C694 -74 693 -75 691 -76 C626 -113 571 -130 506 -130 C313 -130 135 37 135 234 C135 452 301 618 516 618 C691 618 828 476 828 304 C828 198 808 113 719 113 C699 113 683 116 683 154 L683 448 C683 456 679 464 665 464 L642 464 C627 464 624 460 622 447 C619 428 613 410 610 392 C587 437 542 472 476 472 C350 472 252 370 252 243 C252 116 350 14 476 14 C542 14 588 52 614 85 C632 37 693 31 711 31 C859 31 908 141 908 306 C908 552 712 700 509 700 C258 700 56 489 56 241 C56 -8 257 -211 506 -211 C590 -211 666 -188 736 -147 C741 -144 745 -139 745 -133 C745 -120 708 -74 704 -73 C701 -73 698 -74 696 -74 L696 -74 Z M326 243 C326 322 392 387 471 387 C551 387 614 322 614 243 C614 162 551 100 471 100 C392 100 326 162 326 243 L326 243 Z " />
<glyph glyph-name="A" unicode="A" horiz-adv-x="716" d="M172 162 L536 162 L594 19 C598 8 608 0 621 0 L664 0 C677 0 686 5 686 16 C686 20 683 28 683 28 L395 724 C392 731 387 742 370 742 L341 742 C323 742 319 731 316 724 C316 723 315 723 26 29 C26 29 24 23 24 16 C24 5 31 0 45 0 L88 0 C102 0 110 6 116 20 L172 162 Z M355 613 L501 247 L208 247 L355 613 Z " />
<glyph glyph-name="B" unicode="B" horiz-adv-x="678" d="M600 548 C600 660 512 742 399 742 L104 742 C89 742 81 734 81 718 L81 22 C81 8 91 0 104 0 L433 0 C551 0 639 100 639 214 C639 291 596 363 532 397 C574 434 600 489 600 548 L600 548 Z M432 342 C499 342 552 281 552 214 C552 145 497 85 432 85 L167 85 L167 342 L432 342 Z M512 548 C512 481 463 427 398 427 L167 427 L167 657 L398 657 C465 657 512 614 512 548 L512 548 Z " />
<glyph glyph-name="C" unicode="C" horiz-adv-x="705" d="M653 677 C588 725 510 752 426 752 C215 752 44 581 44 370 C44 159 214 -11 425 -11 C513 -11 590 17 653 63 C660 67 664 73 664 80 C664 84 663 89 661 94 L638 132 C632 141 627 144 621 144 C612 144 597 128 584 122 C525 86 478 75 427 75 C272 75 131 203 131 369 C131 526 254 664 429 664 C490 664 553 642 603 606 C611 601 617 599 621 598 C627 598 633 603 638 610 L659 643 C662 647 666 654 666 660 C666 667 661 672 653 677 L653 677 Z " />
<glyph glyph-name="D" unicode="D" horiz-adv-x="745" d="M81 21 C81 5 91 0 104 0 L333 0 C539 0 705 166 705 370 C705 578 543 742 333 742 L104 742 C89 742 81 734 81 718 L81 21 Z M167 85 L167 657 L333 657 C487 657 620 546 620 376 C620 224 503 85 339 85 L167 85 Z " />
<glyph glyph-name="E" unicode="E" horiz-adv-x="642" d="M103 742 C89 742 81 734 81 719 L81 21 C81 6 89 0 103 0 L588 0 C602 0 610 8 610 22 L610 63 C610 79 602 87 587 87 L167 87 L167 347 L498 347 C512 347 520 358 520 370 L520 411 C520 427 510 434 498 434 L167 434 L167 655 L583 655 C598 655 606 666 606 678 L606 719 C606 735 598 742 584 742 L103 742 Z " />
<glyph glyph-name="F" unicode="F" horiz-adv-x="627" d="M81 21 C81 6 88 0 103 0 L144 0 C159 0 167 6 167 21 L167 309 L494 309 C508 309 516 320 516 332 L516 373 C516 389 506 396 494 396 C414 396 246 397 167 397 L167 655 L578 655 C592 655 601 666 601 678 L601 719 C601 735 593 742 578 742 L103 742 C88 742 81 734 81 719 L81 21 Z " />
<glyph glyph-name="G" unicode="G" horiz-adv-x="726" d="M582 121 C553 100 495 76 426 76 C267 76 131 205 131 369 C131 523 254 664 427 664 C492 664 555 641 604 606 C611 600 618 598 623 598 C629 598 635 602 640 610 L662 646 C664 649 665 653 665 657 C665 682 597 713 563 726 C520 743 474 752 426 752 C215 752 44 580 44 370 C44 159 214 -11 425 -11 C512 -11 591 15 653 61 L655 63 C666 70 669 77 669 84 L669 306 C669 320 658 328 646 328 L604 328 C589 328 582 320 582 306 L582 121 Z " />
<glyph glyph-name="H" unicode="H" horiz-adv-x="773" d="M609 432 L167 432 L167 720 C167 732 156 742 144 742 L103 742 C89 742 81 732 81 720 L81 22 C81 7 88 0 103 0 L143 0 C160 0 167 7 167 22 L167 347 L609 347 L609 22 C609 7 616 0 631 0 L672 0 C688 0 695 7 695 22 L695 720 C695 733 684 742 672 742 L631 742 C617 742 609 732 609 720 L609 432 Z " />
<glyph glyph-name="I" unicode="I" horiz-adv-x="248" d="M167 720 C167 733 158 742 145 742 L103 742 C89 742 81 734 81 720 L81 22 C81 7 88 0 103 0 L145 0 C159 0 167 7 167 22 L167 720 Z " />
<glyph glyph-name="J" unicode="J" horiz-adv-x="400" d="M7 45 C42 9 91 -12 145 -12 C243 -12 322 65 322 165 L322 720 C322 734 314 742 300 742 L258 742 C243 742 236 733 236 721 L236 165 C236 114 196 73 145 73 C100 73 78 94 64 107 C61 110 57 111 53 111 C50 111 45 111 39 104 L10 72 C4 67 2 63 2 57 C2 52 4 48 7 45 L7 45 Z " />
<glyph glyph-name="K" unicode="K" horiz-adv-x="734" d="M167 227 L300 365 C394 252 489 139 583 26 C593 12 603 0 614 0 L700 0 C707 0 710 6 710 9 C710 11 709 12 703 20 C593 159 474 291 359 427 L639 722 C642 725 648 731 648 736 C648 740 645 742 635 742 L549 742 C541 742 533 737 525 727 L167 348 L167 720 C167 733 157 742 145 742 L103 742 C88 742 81 732 81 720 L81 22 C81 7 88 0 103 0 L144 0 C160 0 167 7 167 22 L167 227 Z " />
<glyph glyph-name="L" unicode="L" horiz-adv-x="574" d="M167 85 L167 720 C167 734 158 742 145 742 L104 742 C89 742 81 732 81 720 L81 22 C81 7 88 0 103 0 L528 0 C541 0 550 10 550 22 L550 62 C550 77 540 85 528 85 L167 85 Z " />
<glyph glyph-name="M" unicode="M" horiz-adv-x="926" d="M483 32 C492 32 499 38 504 50 L734 591 L790 22 C790 7 797 0 812 0 L854 0 C869 0 877 7 877 22 L804 720 C804 732 795 742 782 742 L717 742 C707 742 699 735 696 723 C619 537 541 351 464 165 L232 723 C228 735 221 742 210 742 L148 742 C135 742 124 733 124 720 C100 487 76 255 52 22 C52 7 59 0 74 0 L116 0 C131 0 139 7 139 22 L194 591 L424 50 C429 38 436 32 444 32 L483 32 Z " />
<glyph glyph-name="N" unicode="N" horiz-adv-x="791" d="M689 0 C705 0 713 8 713 22 L713 720 C713 733 701 742 689 742 L648 742 C636 742 628 735 626 723 L626 148 L177 732 C172 739 166 742 158 742 L103 742 C90 742 81 732 81 719 L81 22 C81 7 88 0 103 0 L144 0 C160 0 167 7 167 22 L167 608 L623 9 C628 3 635 0 642 0 L689 0 Z " />
<glyph glyph-name="O" unicode="O" horiz-adv-x="853" d="M426 752 C215 752 44 581 44 370 C44 159 214 -11 425 -11 C637 -11 808 159 808 369 C808 582 636 752 426 752 L426 752 Z M131 371 C131 533 262 665 426 665 C588 665 720 533 720 371 C720 207 588 75 426 75 C262 75 131 207 131 371 L131 371 Z " />
<glyph glyph-name="P" unicode="P" horiz-adv-x="629" d="M81 22 C81 7 88 0 103 0 L145 0 C160 0 167 7 167 22 L167 280 L355 280 C484 280 583 387 583 510 C583 636 483 742 352 742 L104 742 C89 742 81 734 81 718 L81 22 Z M497 511 C497 433 431 365 352 365 L167 365 L167 657 L352 657 C433 657 497 588 497 511 L497 511 Z " />
<glyph glyph-name="Q" unicode="Q" horiz-adv-x="853" d="M131 371 C131 533 262 665 426 665 C588 665 720 533 720 371 C720 207 588 75 426 75 C262 75 131 207 131 371 L131 371 Z M426 752 C215 752 44 581 44 370 C44 174 192 12 383 -9 L383 -137 C383 -152 390 -160 405 -160 L446 -160 C460 -160 469 -152 470 -138 L470 -9 C661 13 808 174 808 369 C808 582 636 752 426 752 L426 752 Z " />
<glyph glyph-name="R" unicode="R" horiz-adv-x="671" d="M541 507 C541 426 477 357 393 357 L167 357 L167 657 L392 657 C476 657 541 586 541 507 L541 507 Z M81 22 C81 7 89 0 103 0 L145 0 C160 0 167 7 167 22 L167 272 L342 272 C355 272 397 272 404 273 L525 19 C531 7 538 0 551 0 L606 0 C618 0 624 5 624 13 C624 15 623 18 622 22 L490 293 C571 330 627 412 627 506 C627 636 523 742 392 742 L103 742 C89 742 81 734 81 718 L81 22 Z " />
<glyph glyph-name="S" unicode="S" horiz-adv-x="641" d="M501 588 C507 582 513 578 519 578 C523 578 528 581 532 585 L562 614 C567 619 570 624 570 630 C570 638 559 649 551 658 C494 713 404 753 324 753 C168 753 67 668 67 546 C67 445 149 391 313 349 C417 322 515 298 515 216 C515 119 407 74 324 74 C276 74 183 106 124 167 C121 170 111 182 102 182 C98 182 91 180 87 177 L55 150 C49 145 46 140 46 134 C46 129 49 123 54 116 C118 33 218 -10 321 -10 C477 -10 601 79 601 222 C601 362 456 397 337 430 C251 453 159 481 159 549 C159 607 207 669 320 669 C404 669 469 617 501 588 L501 588 Z " />
<glyph glyph-name="T" unicode="T" horiz-adv-x="611" d="M44 742 C30 742 21 733 21 720 L21 679 C21 663 30 655 44 655 L258 655 L258 22 C258 9 268 0 281 0 L322 0 C337 0 345 10 345 22 L345 655 L558 655 C574 655 582 666 582 679 L582 720 C581 735 570 742 558 742 L44 742 Z " />
<glyph glyph-name="U" unicode="U" horiz-adv-x="752" d="M158 720 C158 732 145 742 135 742 L91 742 C79 742 70 730 70 720 L70 293 C70 125 208 -12 376 -12 C544 -12 682 110 682 293 L682 720 C682 733 669 742 656 742 L618 742 C605 742 595 732 595 720 L595 303 C595 175 517 72 376 72 C242 72 158 174 158 303 L158 720 Z " />
<glyph glyph-name="V" unicode="V" horiz-adv-x="718" d="M118 722 C114 734 104 742 91 742 L47 742 C33 742 25 737 25 726 C26 715 30 705 32 701 L316 19 C319 11 328 0 342 0 L371 0 C390 0 394 13 397 20 L684 713 C684 714 686 722 686 725 C686 736 678 742 664 742 L621 742 C607 742 598 734 593 723 C542 595 403 251 356 137 C309 251 168 594 118 722 L118 722 Z " />
<glyph glyph-name="W" unicode="W" horiz-adv-x="1065" d="M357 130 L117 720 C111 735 102 742 91 742 L42 742 C30 742 24 737 24 727 C24 724 25 720 25 719 L316 19 C318 13 325 0 340 0 L367 0 C378 0 388 7 395 22 L527 339 L661 19 C662 12 669 0 686 0 L716 0 C733 0 739 17 739 18 C740 18 741 20 741 22 L1032 721 C1033 722 1034 725 1034 727 C1034 736 1026 742 1012 742 L970 742 C956 742 948 735 943 723 C863 525 782 327 701 130 C658 234 615 339 572 444 L686 719 C687 723 688 725 688 727 C688 736 683 742 670 742 L615 742 C606 742 600 737 597 728 L357 130 Z " />
<glyph glyph-name="X" unicode="X" horiz-adv-x="667" d="M385 370 L621 717 C626 724 628 730 628 734 C628 740 621 742 608 742 L559 742 C543 742 535 737 522 720 L334 444 L148 720 C135 737 128 742 115 742 L61 742 C48 742 41 740 41 733 C41 729 43 724 48 717 C113 623 201 494 284 370 L47 22 C43 16 41 12 41 8 C41 3 45 0 55 0 L116 0 C128 0 137 6 146 18 L334 297 L523 18 C531 6 541 0 553 0 L613 0 C623 0 628 3 628 8 C628 12 626 17 622 22 L385 370 Z " />
<glyph glyph-name="Y" unicode="Y" horiz-adv-x="659" d="M286 324 L286 23 C286 7 293 0 307 0 L350 0 C365 0 373 7 373 23 L373 327 C455 459 534 588 616 720 C620 725 621 731 621 733 C621 739 617 742 609 742 L541 742 C531 741 526 738 518 725 L329 413 L144 721 C132 740 131 741 118 742 L53 742 C43 742 38 738 38 732 C38 728 40 723 44 717 L286 324 Z " />
<glyph glyph-name="Z" unicode="Z" horiz-adv-x="639" d="M574 0 C587 0 597 11 597 23 L597 63 C597 79 587 87 574 87 L154 87 L591 657 C595 662 596 667 596 673 L596 719 C596 733 585 742 572 742 L67 742 C51 742 43 735 43 720 L43 678 C43 663 51 655 67 655 L478 655 L39 86 C33 80 32 73 32 68 L32 23 C32 10 43 0 56 0 L574 0 Z " />
<glyph glyph-name="bracketleft" unicode="&#x5b;" horiz-adv-x="248" d="M69 -96 C69 -110 77 -118 91 -118 L225 -118 C239 -118 248 -110 248 -96 L248 -54 C248 -40 238 -31 225 -31 L156 -31 L156 774 L225 774 C240 774 248 781 248 797 L248 839 C248 853 239 861 225 861 L91 861 C77 861 69 852 69 839 L69 -96 Z " />
<glyph glyph-name="backslash" unicode="&#x5c;" horiz-adv-x="465" d="M138 720 C131 737 123 742 107 742 L61 742 C53 742 41 741 41 728 C41 725 41 722 43 717 L333 17 C337 6 346 0 358 0 L410 0 C421 0 427 3 427 10 C427 14 426 16 424 21 L138 720 Z " />
<glyph glyph-name="bracketright" unicode="&#x5d;" horiz-adv-x="248" d="M179 835 C179 849 171 857 157 857 L23 857 C10 857 0 849 0 835 L0 793 C0 778 8 770 23 770 L92 770 L92 -34 L23 -34 C11 -34 0 -43 0 -57 L0 -99 C1 -113 9 -121 23 -121 L157 -121 C171 -121 179 -113 179 -99 L179 835 Z " />
<glyph glyph-name="asciicircum" unicode="&#x5e;" horiz-adv-x="488" d="M257 831 C254 834 249 838 244 838 C238 838 232 834 230 831 L71 672 C68 669 62 662 62 656 C62 649 67 645 71 641 L96 617 C100 613 104 608 112 608 C120 608 122 610 127 615 L243 732 L360 615 C365 610 367 608 375 608 C383 608 387 613 391 617 L416 641 C420 645 425 649 425 656 C425 662 419 669 416 672 L257 831 Z " />
<glyph glyph-name="underscore" unicode="&#x5f;" horiz-adv-x="451" d="M23 -61 C8 -61 0 -68 0 -83 L0 -125 C0 -140 8 -148 23 -148 L429 -148 C442 -148 451 -137 451 -125 L451 -83 C451 -68 441 -61 429 -61 L23 -61 Z " />
<glyph glyph-name="grave" unicode="&#x60;" horiz-adv-x="258" d="M118 608 C125 593 133 587 145 587 L181 587 C195 587 198 591 198 601 C197 605 196 609 192 619 L148 721 C140 736 134 742 121 742 L81 742 C73 742 66 741 66 733 C66 729 68 724 73 713 L118 608 Z " />
<glyph glyph-name="a" unicode="a" horiz-adv-x="594" d="M430 25 C430 10 437 0 455 0 L487 0 C501 0 513 9 513 22 L513 466 C513 482 501 491 487 491 L458 491 C441 491 435 482 434 466 L430 416 C400 459 361 499 279 499 C138 499 40 386 40 244 C40 102 139 -10 279 -10 C360 -10 400 27 430 72 L430 25 Z M123 244 C123 337 183 415 279 415 C377 415 430 336 430 242 C430 146 375 73 279 73 C185 73 123 150 123 244 L123 244 Z " />
<glyph glyph-name="b" unicode="b" horiz-adv-x="593" d="M81 25 C81 9 91 0 109 0 L139 0 C156 0 167 9 167 25 L167 66 C200 21 254 -10 318 -10 C447 -10 548 102 548 244 C548 386 447 499 318 499 C251 499 199 467 167 420 L167 718 C167 733 158 742 139 742 L110 742 C93 742 81 733 81 718 L81 25 Z M159 243 C159 337 230 415 310 415 C390 415 461 337 461 243 C461 150 390 72 310 72 C230 72 159 150 159 243 L159 243 Z " />
<glyph glyph-name="c" unicode="c" horiz-adv-x="511" d="M295 68 C199 68 119 148 119 244 C119 340 199 421 295 421 C338 421 375 402 406 378 C412 373 419 370 422 370 C428 370 432 372 435 376 L435 375 L462 418 C464 420 465 426 465 429 C465 436 459 442 449 449 C397 486 348 501 295 501 C153 501 39 386 39 244 C39 102 153 -12 295 -12 C356 -12 410 13 454 44 C460 48 471 55 471 64 C471 67 470 70 468 73 L439 114 C437 118 433 120 428 120 C422 120 415 117 410 113 C379 86 335 68 295 68 L295 68 Z " />
<glyph glyph-name="d" unicode="d" horiz-adv-x="579" d="M505 718 C505 733 493 742 476 742 L447 742 C428 742 419 733 419 718 L419 420 C387 467 343 499 268 499 C128 499 38 386 38 244 C38 102 128 -10 268 -10 C343 -10 386 21 419 66 L419 25 C419 9 430 0 447 0 L477 0 C495 0 505 9 505 25 L505 718 Z M427 243 C427 150 366 72 276 72 C176 72 125 150 125 243 C125 337 176 415 276 415 C367 415 427 337 427 243 L427 243 Z " />
<glyph glyph-name="e" unicode="e" horiz-adv-x="532" d="M280 -12 C342 -12 394 14 439 44 C445 48 455 55 456 64 C456 67 455 70 452 73 L424 115 C421 119 417 121 413 121 C406 121 399 118 395 114 C363 87 320 72 280 72 C206 72 144 127 132 207 L439 207 C475 207 504 213 504 253 L504 265 C504 395 402 501 280 501 C149 501 44 386 44 244 C44 102 149 -12 280 -12 L280 -12 Z M136 281 C153 356 209 417 278 417 C345 417 406 356 419 281 L136 281 Z " />
<glyph glyph-name="f" unicode="f" horiz-adv-x="324" d="M268 746 C154 744 108 680 108 587 L108 491 L56 491 C42 491 31 484 31 466 L31 440 C31 423 42 412 56 412 L108 412 L108 25 C108 10 116 0 132 0 L170 0 C182 0 196 9 196 25 L196 412 L268 412 C283 412 292 423 292 440 L292 466 C292 484 283 491 268 491 L196 491 L196 586 C196 647 223 659 270 661 C284 661 292 673 292 686 L292 720 C292 736 283 746 268 746 L268 746 Z " />
<glyph glyph-name="g" unicode="g" horiz-adv-x="596" d="M422 14 C422 -71 341 -122 267 -122 C236 -122 201 -110 176 -93 C173 -91 168 -89 165 -89 C157 -89 154 -91 151 -95 L123 -143 C122 -144 118 -151 118 -154 C118 -160 121 -162 130 -167 L130 -167 C169 -192 212 -205 268 -205 C405 -205 510 -122 510 47 L510 464 C510 480 496 489 481 489 L449 489 C429 489 422 479 422 464 L422 423 C392 465 340 500 273 500 C143 500 40 386 40 244 C40 103 137 -11 273 -11 C334 -11 391 33 422 74 L422 14 Z M125 244 C125 337 192 415 273 415 C355 415 422 334 422 241 C422 148 351 73 273 73 C192 73 125 149 125 244 L125 244 Z " />
<glyph glyph-name="h" unicode="h" horiz-adv-x="591" d="M167 720 C167 733 157 742 144 742 L103 742 C89 742 81 733 81 720 L81 22 C81 8 89 0 104 0 L145 0 C159 0 167 7 167 22 L167 296 C172 362 254 414 318 414 C403 414 436 358 436 291 L436 24 C436 8 440 0 458 0 L499 0 C512 0 523 9 523 25 L523 291 C523 407 450 500 335 500 C275 500 198 460 167 422 L167 720 Z " />
<glyph glyph-name="i" unicode="i" horiz-adv-x="248" d="M167 469 C167 482 158 491 145 491 L103 491 C89 491 81 483 81 469 L81 22 C81 7 88 0 103 0 L145 0 C159 0 167 7 167 22 L167 469 Z M61 629 C61 595 89 567 124 567 C160 567 187 595 187 629 C187 664 160 692 124 692 C89 692 61 664 61 629 L61 629 Z " />
<glyph glyph-name="j" unicode="j" horiz-adv-x="248" d="M9 -200 C94 -198 167 -126 167 -37 L167 466 C167 481 158 491 141 491 L107 491 C91 491 80 483 80 466 L80 -37 C80 -75 51 -114 12 -117 L9 -117 C-6 -117 -16 -127 -16 -143 L-16 -175 C-16 -190 -6 -200 9 -200 L9 -200 Z M61 629 C61 595 89 567 124 567 C160 567 187 595 187 629 C187 664 160 692 124 692 C89 692 61 664 61 629 L61 629 Z " />
<glyph glyph-name="k" unicode="k" horiz-adv-x="523" d="M81 22 C81 7 89 0 103 0 L144 0 C159 0 167 7 167 22 L167 180 L231 246 L416 16 C424 5 435 0 444 0 L513 0 C524 0 530 5 530 11 C530 14 526 22 521 27 C521 27 521 27 291 307 L444 463 C450 471 452 472 452 480 C452 486 447 491 437 491 L367 491 C354 491 348 485 340 477 L167 296 L167 720 C167 733 156 742 144 742 L103 742 C89 742 81 732 81 720 L81 22 Z " />
<glyph glyph-name="l" unicode="l" horiz-adv-x="248" d="M167 720 C167 733 158 742 145 742 L103 742 C89 742 81 734 81 720 L81 22 C81 7 88 0 103 0 L145 0 C159 0 167 7 167 22 L167 720 Z " />
<glyph glyph-name="m" unicode="m" horiz-adv-x="873" d="M164 467 C163 480 155 489 141 489 L103 489 C90 489 81 481 81 467 L81 22 C81 8 89 0 104 0 L145 0 C159 0 167 7 167 22 L167 295 C167 361 226 414 291 414 C364 414 397 361 397 294 L397 24 C397 8 402 0 419 0 L459 0 C474 0 483 9 483 25 L483 293 C483 362 547 414 607 414 C682 414 712 361 712 294 L712 24 C712 8 720 0 738 0 L774 0 C788 0 799 9 799 25 L799 293 C799 404 734 500 620 500 C546 500 488 455 457 396 C429 451 385 498 307 498 C245 498 194 461 167 423 L164 467 Z " />
<glyph glyph-name="n" unicode="n" horiz-adv-x="591" d="M164 467 C163 481 154 489 141 489 L103 489 C91 489 81 481 81 467 L81 22 C81 8 89 0 104 0 L145 0 C159 0 167 7 167 22 L167 308 C167 362 247 414 313 414 C389 414 436 358 436 291 L436 24 C436 8 440 0 458 0 L499 0 C512 0 523 9 523 25 L523 291 C523 407 450 500 335 500 C275 500 198 460 167 422 L164 467 Z " />
<glyph glyph-name="o" unicode="o" horiz-adv-x="610" d="M44 244 C44 102 158 -12 300 -12 C442 -12 557 102 557 244 C557 386 442 501 300 501 C158 501 44 386 44 244 L44 244 Z M125 244 C125 340 204 421 300 421 C396 421 476 340 476 244 C476 148 396 68 300 68 C204 68 125 148 125 244 L125 244 Z " />
<glyph glyph-name="p" unicode="p" horiz-adv-x="591" d="M81 -168 C81 -183 93 -193 110 -193 L139 -193 C158 -193 168 -183 168 -168 L168 68 C199 22 248 -8 316 -8 C445 -8 546 104 546 246 C546 388 445 501 316 501 C252 501 198 466 167 422 L163 466 C162 481 151 491 134 491 L108 491 C91 491 81 482 81 466 L81 -168 Z M167 244 L167 246 C168 338 231 416 312 416 C393 416 456 338 456 244 C456 150 393 74 312 74 C231 74 167 150 167 244 L167 244 Z " />
<glyph glyph-name="q" unicode="q" horiz-adv-x="585" d="M509 466 C509 482 499 491 482 491 L456 491 C439 491 428 481 427 466 L423 422 C392 466 338 501 274 501 C145 501 44 388 44 246 C44 104 145 -8 274 -8 C342 -8 391 22 422 68 L422 -168 C422 -183 432 -193 451 -193 L480 -193 C497 -193 509 -183 509 -168 L509 466 Z M423 244 C423 150 359 74 278 74 C197 74 134 150 134 244 C134 338 197 416 278 416 C359 416 422 338 423 246 L423 244 Z " />
<glyph glyph-name="r" unicode="r" horiz-adv-x="381" d="M162 469 C161 481 153 491 139 491 L103 491 C91 491 81 482 81 469 L81 22 C81 7 89 0 104 0 L145 0 C159 0 167 7 167 22 L167 282 C167 343 208 413 268 413 C286 412 309 405 322 397 C324 396 328 392 334 392 C338 392 343 395 347 402 L372 449 C373 452 374 454 374 457 C374 469 324 499 280 499 C218 499 184 463 167 432 L162 469 Z " />
<glyph glyph-name="s" unicode="s" horiz-adv-x="425" d="M39 100 C59 28 137 -9 209 -9 C312 -9 387 46 387 135 C387 215 322 267 216 294 C178 304 134 321 134 362 C134 394 167 425 215 425 C251 425 277 402 296 376 C305 364 312 352 323 360 L364 389 C371 394 368 401 365 406 C331 466 288 503 214 503 C119 503 54 444 54 362 C54 285 112 236 200 213 C255 198 303 179 303 135 C303 95 254 70 209 70 C183 70 132 84 117 125 C114 135 105 145 94 140 L44 120 C36 117 36 106 39 100 L39 100 Z " />
<glyph glyph-name="t" unicode="t" horiz-adv-x="328" d="M251 -8 C267 -7 276 1 276 16 L276 48 C276 64 266 73 251 73 C211 74 198 75 198 143 L198 411 L272 411 C287 411 294 419 294 435 L294 468 C294 485 287 491 272 491 L198 491 L198 633 C198 646 195 659 179 659 L128 652 C116 649 111 644 111 632 L111 491 L51 491 C35 491 26 487 26 470 L26 433 C26 416 35 411 51 411 L111 411 L111 111 C111 4 171 -9 235 -9 C241 -9 246 -8 251 -8 L251 -8 Z " />
<glyph glyph-name="u" unicode="u" horiz-adv-x="568" d="M409 22 C409 9 417 0 432 0 L465 0 C478 0 487 9 487 22 L487 469 C487 483 479 491 464 491 L423 491 C409 491 400 483 400 469 L400 195 C397 128 338 75 274 75 C208 75 147 130 147 196 L147 466 C147 483 142 491 124 491 L80 491 C67 491 60 482 60 471 L60 197 C60 82 151 -11 265 -11 C327 -11 370 28 400 67 C403 52 406 37 409 22 L409 22 Z " />
<glyph glyph-name="v" unicode="v" horiz-adv-x="491" d="M111 473 C106 484 98 491 85 491 L42 491 C28 491 21 486 21 475 C21 465 25 457 26 454 L207 19 C212 5 215 0 233 0 L262 0 C274 0 282 3 289 19 L471 460 C472 461 475 471 475 475 C475 486 468 491 454 491 L412 491 C399 491 390 485 385 474 L248 120 L111 473 Z " />
<glyph glyph-name="w" unicode="w" horiz-adv-x="773" d="M118 471 C113 482 103 491 90 491 L48 491 C34 491 26 486 26 475 C26 468 28 461 28 462 L211 19 C213 12 220 0 237 0 L267 0 L269 1 C287 1 290 17 292 19 L388 253 L485 19 C488 13 494 0 511 0 L540 0 C560 0 566 21 566 19 L749 462 C749 463 752 471 752 474 C752 485 743 491 728 491 L686 491 C673 491 663 482 659 472 C616 364 564 228 525 135 L490 220 C472 265 452 315 433 364 C447 396 461 429 474 462 C475 463 477 471 477 474 C477 485 468 491 454 491 L412 491 C398 491 389 483 385 472 L340 358 C309 278 277 200 251 135 C212 228 160 364 118 471 L118 471 Z " />
<glyph glyph-name="x" unicode="x" horiz-adv-x="471" d="M285 258 L431 473 C436 481 434 491 422 491 L361 491 C345 491 338 487 328 471 L235 324 L142 470 C130 486 124 491 108 491 L46 491 C32 491 34 480 37 475 L185 258 L25 25 C21 18 17 11 17 8 C17 3 24 0 34 0 L92 0 C105 0 114 6 123 19 L235 192 L347 17 C356 6 365 0 377 0 L437 0 C446 0 453 3 453 8 C453 11 450 15 446 22 L285 258 Z " />
<glyph glyph-name="y" unicode="y" horiz-adv-x="501" d="M478 446 C486 464 486 468 486 471 C486 483 479 491 462 491 L421 491 C408 491 400 487 394 475 L251 111 C204 226 152 357 108 473 C104 484 94 491 82 491 L39 491 C25 491 18 486 18 475 C18 473 18 465 22 456 L206 10 L134 -166 C133 -170 132 -173 132 -176 C132 -188 140 -193 155 -193 L195 -193 C208 -193 217 -187 222 -176 C308 30 391 239 478 446 L478 446 Z " />
<glyph glyph-name="z" unicode="z" horiz-adv-x="517" d="M437 0 C451 0 462 13 462 26 L462 56 C462 73 451 81 437 81 L168 81 L446 399 C456 411 460 415 460 433 L460 469 C460 484 449 491 433 491 L81 491 C65 491 55 482 55 465 L55 436 C55 417 65 408 81 408 L349 408 C283 332 120 148 54 72 C51 68 50 61 50 56 L50 26 C50 12 62 0 76 0 L437 0 Z " />
<glyph glyph-name="braceleft" unicode="&#x7b;" horiz-adv-x="300" d="M291 855 C183 840 132 752 132 635 L132 475 C132 443 119 414 83 414 L66 414 C52 414 44 406 44 392 L44 350 C44 335 52 327 66 327 L85 327 C113 327 132 295 132 268 L132 101 C132 -21 183 -105 307 -120 C321 -119 329 -111 329 -98 L329 -56 C329 -19 229 -36 222 49 C220 53 218 57 218 63 L218 301 C218 328 206 352 182 371 C207 392 218 419 218 441 L218 676 C218 727 264 771 307 771 C320 771 329 781 329 794 L329 836 C329 850 320 856 304 857 L291 855 Z " />
<glyph glyph-name="bar" unicode="&#x7c;" horiz-adv-x="251" d="M81 -192 C81 -207 88 -214 103 -214 L144 -214 C159 -214 167 -207 167 -192 L167 742 C167 756 156 764 144 764 L103 764 C88 764 81 754 81 742 L81 -192 Z " />
<glyph glyph-name="braceright" unicode="&#x7d;" horiz-adv-x="300" d="M22 858 C8 857 0 849 0 836 L0 794 C0 779 10 771 24 771 C66 769 111 727 111 676 L111 441 C111 419 122 392 147 371 C123 352 111 328 111 301 L111 63 C111 0 64 -20 26 -31 C12 -36 0 -42 0 -56 L0 -98 C0 -111 8 -119 22 -120 C142 -106 198 -25 198 101 L198 268 C198 295 216 327 244 327 L263 327 C277 327 285 335 285 350 L285 392 C285 406 277 414 263 414 L246 414 C210 414 198 443 198 475 L198 635 C198 761 139 844 22 858 L22 858 Z " />
<glyph glyph-name="asciitilde" unicode="&#x7e;" horiz-adv-x="659" d="M135 209 C145 219 158 237 168 247 C183 261 204 269 226 269 C245 269 264 263 281 252 L325 223 C356 203 391 189 424 189 C486 189 538 212 582 272 C583 273 593 287 593 292 C593 299 591 302 586 307 C578 314 562 328 550 337 C545 340 541 343 535 343 C532 343 526 340 523 337 C513 327 500 309 490 299 C475 285 454 277 432 277 C413 277 394 283 377 294 L333 322 C302 343 267 357 234 357 C172 357 120 334 76 274 C75 273 65 259 65 254 C65 247 67 244 72 239 C80 232 96 218 108 209 C113 206 117 203 123 203 C126 203 132 206 135 209 L135 209 Z " />
<glyph glyph-name="exclamdown" unicode="&#xa1;" horiz-adv-x="248" d="M81 -240 C81 -253 90 -262 103 -262 L145 -262 C159 -262 167 -253 167 -240 L167 256 C167 270 160 278 145 278 L103 278 C89 278 81 270 81 256 L81 -240 Z M188 434 C188 468 160 496 126 496 C90 496 63 468 63 434 C63 399 90 371 126 371 C160 371 188 399 188 434 L188 434 Z " />
<glyph glyph-name="cent" unicode="&#xa2;" horiz-adv-x="488" d="M295 68 C199 68 119 148 119 244 C119 340 199 421 295 421 C337 421 375 402 406 378 C412 373 419 370 422 370 C428 370 432 372 435 376 L435 375 L462 418 C464 420 465 426 465 429 C465 436 459 442 449 449 C411 476 375 491 337 498 L339 498 L339 562 C339 574 330 584 316 584 L275 584 C263 584 253 575 253 562 L253 498 C131 477 39 372 39 244 C39 116 131 11 253 -9 L253 -78 C253 -92 260 -100 276 -100 L317 -100 C331 -100 339 -92 339 -78 L339 -8 C385 1 470 40 471 64 C471 67 470 70 468 73 L439 114 C437 118 433 120 428 120 C422 120 415 117 410 113 C379 86 335 68 295 68 L295 68 Z " />
<glyph glyph-name="sterling" unicode="&#xa3;" horiz-adv-x="600" d="M167 385 L167 493 C167 605 256 674 367 674 C410 674 454 657 485 635 L507 619 L506 619 C509 618 512 617 514 617 C518 617 522 619 525 624 L525 624 L549 667 L549 666 L551 671 C553 674 555 676 555 679 C555 683 552 687 542 695 L542 695 C494 734 432 755 367 755 C209 755 81 651 81 495 L81 385 L61 385 C51 385 45 377 45 368 L45 317 C45 305 51 300 61 300 L81 300 L81 15 C81 4 87 0 97 0 L538 0 C548 0 554 8 554 17 L554 70 C554 80 547 86 538 86 L167 86 L167 300 L297 300 C308 300 313 307 313 317 L313 368 C313 380 308 385 297 385 L167 385 Z " />
<glyph glyph-name="currency" unicode="&#xa4;" horiz-adv-x="539" d="M185 276 C185 323 222 361 269 361 C317 361 354 323 354 276 C354 229 317 191 269 191 C222 191 185 229 185 276 L185 276 Z M69 413 C64 408 61 402 61 396 C61 390 64 386 68 381 L121 328 C115 307 112 289 112 276 C112 262 115 244 121 223 L68 170 C65 167 62 161 62 156 C62 147 65 142 69 138 L133 75 C137 69 143 67 148 67 C154 67 158 69 164 75 L216 127 C237 122 255 119 269 119 C282 119 300 122 321 127 L375 75 C378 71 384 69 389 69 C397 69 402 71 407 76 L471 139 C476 144 478 149 478 155 C478 160 476 165 471 170 L418 223 C423 244 427 262 427 276 C427 289 423 307 418 328 L471 381 C476 387 478 391 478 397 C478 402 476 407 471 412 L407 476 C401 482 396 484 389 484 C384 484 379 482 375 477 L321 424 C300 430 282 433 269 433 C255 433 237 430 216 424 L164 477 C158 483 153 485 147 485 C143 485 138 483 133 477 L69 413 Z " />
<glyph glyph-name="yen" unicode="&#xa5;" horiz-adv-x="650" d="M363 231 L363 295 L499 295 C509 295 515 304 515 313 L515 347 C515 358 508 363 499 363 L386 363 C460 482 532 600 606 720 C610 725 612 731 612 733 C612 739 608 742 600 742 L531 742 C521 741 516 738 508 725 L320 416 L134 721 C123 740 121 741 108 742 L43 742 C34 742 28 738 28 732 C28 728 31 723 35 717 L253 363 L159 363 C149 363 143 358 143 347 L143 313 C143 301 149 295 159 295 L277 295 L277 231 L159 231 C149 231 143 225 143 215 L143 180 C143 169 149 163 159 163 L277 163 L277 23 C277 7 283 0 298 0 L341 0 C356 0 363 7 363 23 L363 163 L499 163 C509 163 515 171 515 180 L515 215 C515 225 508 231 499 231 L363 231 Z " />
<glyph glyph-name="brokenbar" unicode="&#xa6;" horiz-adv-x="248" d="M81 365 C81 351 88 343 103 343 L143 343 C160 343 167 351 167 365 L167 738 C167 751 155 760 143 760 L103 760 C88 760 81 750 81 738 L81 365 Z M81 -187 C81 -202 88 -209 103 -209 L143 -209 C160 -209 167 -202 167 -187 L167 186 C167 199 155 208 143 208 L103 208 C88 208 81 198 81 186 L81 -187 Z " />
<glyph glyph-name="section" unicode="&#xa7;" horiz-adv-x="538" d="M429 628 C434 622 436 620 441 620 C443 620 446 622 451 625 L480 644 C486 649 488 653 488 658 C488 664 471 691 440 715 C395 749 346 764 289 764 C176 764 86 695 86 593 C86 538 116 501 161 478 C113 453 86 411 86 357 C86 287 136 246 251 211 C335 186 403 172 403 117 C403 51 331 17 271 17 C238 17 171 38 131 83 L130 87 C123 92 122 93 117 93 C115 93 112 92 108 90 L79 70 C73 67 69 61 69 57 C69 50 88 24 119 0 C163 -34 213 -51 269 -51 C383 -51 473 20 473 121 C473 178 440 211 395 234 C444 259 473 302 473 357 C473 427 424 470 309 505 C225 529 156 541 156 597 C156 663 229 697 287 697 C320 697 387 676 428 631 L429 628 Z M269 439 C326 439 375 411 394 389 C397 379 400 368 400 355 C400 317 366 276 289 276 L282 276 C159 288 156 343 156 359 C156 398 192 439 269 439 L269 439 Z " />
<glyph glyph-name="dieresis" unicode="&#xa8;" horiz-adv-x="442" d="M69 633 C69 599 97 571 131 571 C167 571 194 599 194 633 C194 668 167 696 131 696 C97 696 69 668 69 633 L69 633 Z M255 634 C255 600 283 572 317 572 C353 572 380 600 380 634 C380 669 353 697 317 697 C283 697 255 669 255 634 L255 634 Z " />
<glyph glyph-name="copyright" unicode="&#xa9;" horiz-adv-x="865" d="M440 752 C227 752 57 579 57 372 C57 159 230 -11 438 -11 C650 -11 820 161 820 369 C820 582 648 752 440 752 L440 752 Z M286 634 C337 664 393 678 447 678 C598 678 751 557 751 377 C751 221 618 61 436 61 C273 61 128 193 128 365 C128 471 185 575 286 634 L286 634 Z M571 561 C532 586 493 599 445 599 C319 599 213 496 213 369 C213 243 315 141 442 141 C489 141 533 154 572 180 C577 184 580 188 580 192 C580 194 579 196 578 199 L549 248 C545 253 542 255 538 255 C535 255 532 254 529 252 C504 233 475 224 442 224 C361 224 296 287 296 369 C296 451 361 516 442 516 C474 516 502 507 528 488 C531 486 534 485 537 485 C541 485 545 487 548 491 L577 541 C578 543 579 545 579 547 C579 552 576 557 571 561 L571 561 Z " />
<glyph glyph-name="ordfeminine" unicode="&#xaa;" horiz-adv-x="469" d="M412 397 L412 734 C412 737 412 739 412 740 C410 741 406 742 404 742 L359 742 C353 742 350 739 350 732 L336 677 C314 721 279 748 228 748 C127 748 45 667 45 565 C45 463 127 382 228 382 C275 382 308 406 335 444 L335 397 C335 392 339 389 345 389 L404 389 C406 389 408 390 411 391 C412 392 412 394 412 397 L412 397 Z M411 391 C411 391 411 390 411 390 L413 392 C412 391 412 391 411 391 L411 391 Z M118 565 C118 627 166 674 227 674 C286 674 333 628 336 569 L336 565 C336 503 289 456 227 456 C166 456 118 503 118 565 L118 565 Z " />
<glyph glyph-name="guillemotleft" unicode="&#xab;" horiz-adv-x="689" d="M71 264 C154 180 233 100 316 18 C326 8 337 -4 349 -4 C355 -4 359 -1 363 2 L391 31 C396 35 398 40 398 46 C398 50 396 59 392 62 L178 277 L392 493 C397 496 398 505 398 509 C398 515 396 519 391 523 L365 551 C360 555 355 557 349 557 C345 557 336 555 333 552 L72 292 C68 288 66 284 66 279 C66 275 68 267 71 264 L71 264 Z M299 264 C382 180 461 100 544 18 C554 8 565 -4 577 -4 C583 -4 587 -1 591 2 L619 31 C624 35 626 40 626 46 C626 50 624 59 620 62 L406 277 L620 493 C625 496 626 505 626 509 C626 515 624 519 619 523 L593 551 C588 555 583 557 577 557 C573 557 564 555 561 552 L300 292 C296 288 294 284 294 279 C294 275 296 267 299 264 L299 264 Z " />
<glyph glyph-name="logicalnot" unicode="&#xac;" horiz-adv-x="581" d="M484 382 C484 392 477 398 467 398 L88 398 C76 398 71 392 71 382 L71 336 C71 324 76 319 88 319 L404 319 L404 186 C404 177 413 170 423 170 L467 170 C477 170 484 178 484 186 L484 382 Z " />
<glyph glyph-name="uni00AD" unicode="&#xad;" horiz-adv-x="528" d="M109 319 C93 319 85 311 85 297 L85 255 C85 240 93 232 109 232 L427 232 C440 232 449 243 449 255 L449 297 C449 311 439 319 427 319 L109 319 Z " />
<glyph glyph-name="registered" unicode="&#xae;" horiz-adv-x="878" d="M440 752 C227 752 57 579 57 372 C57 159 230 -11 438 -11 C650 -11 820 161 820 369 C820 582 648 752 440 752 L440 752 Z M286 634 C337 664 393 678 447 678 C598 678 751 557 751 377 C751 221 618 61 436 61 C273 61 128 193 128 365 C128 471 185 575 286 634 L286 634 Z M279 172 C279 164 285 160 292 160 L345 160 C354 160 358 165 358 172 L358 307 L457 307 L520 169 C522 164 526 160 531 160 L593 160 C601 160 606 164 606 170 C606 171 605 172 605 174 L533 324 C574 350 600 392 600 444 C600 519 541 578 466 582 L292 582 C284 582 279 577 279 567 L279 172 Z M522 445 C522 411 498 385 464 385 L358 385 L358 505 L464 505 C499 505 522 475 522 445 L522 445 Z " />
<glyph glyph-name="macron" unicode="&#xaf;" horiz-adv-x="487" d="M50 617 C50 604 55 598 68 598 L418 598 C431 598 436 610 436 617 L436 656 C436 668 431 673 418 673 L68 673 C55 673 50 668 50 656 L50 617 Z " />
<glyph glyph-name="degree" unicode="&#xb0;" horiz-adv-x="325" d="M163 630 C101 630 53 582 53 520 C53 457 102 410 163 410 C223 410 273 457 273 520 C273 582 224 630 163 630 L163 630 Z M163 582 C197 582 224 554 224 520 C224 485 197 458 163 458 C127 458 101 485 101 520 C101 554 127 582 163 582 L163 582 Z " />
<glyph glyph-name="plusminus" unicode="&#xb1;" horiz-adv-x="497" d="M291 275 L408 275 C421 275 430 286 430 298 L430 340 C430 355 420 362 408 362 L291 362 L291 479 C291 494 283 502 269 502 L228 502 C211 502 204 494 204 479 L204 362 L88 362 C73 362 65 355 65 340 L65 298 C65 283 73 275 88 275 L204 275 L204 158 C204 145 215 136 228 136 L269 136 C283 136 291 146 291 158 L291 275 Z M88 87 C73 87 65 79 65 65 L65 23 C65 7 73 0 88 0 L408 0 C421 0 430 11 430 23 L430 65 C430 79 420 87 408 87 L88 87 Z " />
<glyph glyph-name="twosuperior" unicode="&#xb2;" horiz-adv-x="368" d="M189 677 C223 677 252 650 252 619 C252 603 248 593 232 576 L53 392 C52 389 50 387 50 386 L50 344 C50 336 57 331 65 331 L318 331 C325 331 331 336 331 344 L331 390 C331 399 327 403 318 403 L166 403 L289 528 C312 549 331 582 331 621 C331 702 263 748 185 748 C140 748 93 726 68 683 L56 664 C55 662 55 659 55 657 C55 653 56 650 61 647 L104 622 C107 620 109 620 111 620 C115 620 119 622 121 626 L133 646 C144 665 166 677 189 677 L189 677 Z " />
<glyph glyph-name="threesuperior" unicode="&#xb3;" horiz-adv-x="333" d="M153 400 C124 400 100 420 87 452 C82 467 85 471 74 471 C72 471 68 470 66 470 L27 461 C19 459 17 454 17 449 C17 447 17 445 18 443 C30 378 83 329 157 329 C233 329 294 387 294 461 C294 511 268 543 234 567 C252 585 265 610 265 639 C265 699 212 748 154 748 C103 748 61 714 45 668 C44 664 43 661 43 658 C43 652 47 650 51 648 L89 630 C91 629 92 629 94 629 C98 629 102 631 103 636 C109 656 125 678 152 678 C178 678 194 657 194 635 C194 616 177 593 152 593 C143 593 138 588 138 580 L138 536 C138 528 143 524 151 524 C189 524 217 496 217 462 C217 425 187 400 153 400 L153 400 Z " />
<glyph glyph-name="acute" unicode="&#xb4;" horiz-adv-x="248" d="M206 713 C214 730 216 742 198 742 L158 742 C145 742 137 736 131 721 L87 619 C80 604 78 587 98 587 L134 587 C146 587 154 593 161 608 L206 713 Z " />
<glyph glyph-name="mu" unicode="&#xb5;" horiz-adv-x="584" d="M290 76 C227 77 171 129 167 195 L167 469 C167 483 159 491 145 491 L103 491 C89 491 81 483 81 469 L81 -171 C81 -184 89 -193 103 -193 L144 -193 C157 -193 167 -184 167 -171 L167 58 C196 24 234 -5 290 -5 C346 -5 395 34 424 69 L428 24 C429 11 437 2 451 2 L488 2 C501 2 511 11 511 24 L511 470 C511 484 502 492 487 492 L446 492 C433 492 424 484 424 470 L424 196 C420 130 358 76 294 76 L290 76 Z " />
<glyph glyph-name="paragraph" unicode="&#xb6;" horiz-adv-x="668" d="M533 741 C529 742 527 742 525 742 L473 742 C471 742 470 742 468 742 C466 742 465 741 464 741 L235 741 C125 741 35 651 35 540 C35 431 131 341 249 341 L249 16 C249 5 256 0 266 0 L319 0 C330 0 336 5 336 16 L336 655 L456 655 L456 16 C456 5 462 0 473 0 L525 0 C537 0 543 5 543 16 L543 655 L625 655 C635 655 641 663 641 672 L641 725 C641 735 634 741 625 741 L533 741 Z " />
<glyph glyph-name="periodcentered" unicode="&#xb7;" horiz-adv-x="227" d="M55 276 C55 242 83 214 117 214 C153 214 180 242 180 276 C180 311 153 339 117 339 C83 339 55 311 55 276 L55 276 Z " />
<glyph glyph-name="cedilla" unicode="&#xb8;" horiz-adv-x="278" d="M145 -3 C145 5 144 15 131 15 L88 15 C78 15 73 15 73 2 L73 -15 C73 -47 90 -71 121 -87 C145 -100 164 -111 164 -134 C164 -154 136 -174 91 -183 C85 -185 81 -190 81 -197 C81 -213 91 -243 110 -243 C112 -243 115 -243 117 -242 C197 -219 234 -184 237 -141 C237 -89 205 -67 172 -48 L168 -45 C146 -29 145 -17 145 -3 L145 -3 Z " />
<glyph glyph-name="onesuperior" unicode="&#xb9;" horiz-adv-x="203" d="M28 658 C28 650 32 644 39 644 C39 645 39 645 40 645 C42 645 43 645 44 647 L81 665 L81 346 C81 339 86 335 93 335 L144 335 C152 335 156 340 156 347 L156 731 C156 739 152 743 143 743 L93 743 C89 743 86 742 84 741 L40 719 C33 715 28 709 28 702 L28 658 Z " />
<glyph glyph-name="ordmasculine" unicode="&#xba;" horiz-adv-x="487" d="M59 568 C59 467 140 385 242 385 C343 385 425 467 425 568 C425 670 343 751 242 751 C140 751 59 670 59 568 L59 568 Z M132 568 C132 629 181 677 241 677 C302 677 349 629 349 568 C349 508 302 459 241 459 C181 459 132 508 132 568 L132 568 Z " />
<glyph glyph-name="guillemotright" unicode="&#xbb;" horiz-adv-x="691" d="M625 264 C629 267 631 275 631 279 C631 284 629 288 624 292 L363 552 C360 555 351 557 347 557 C341 557 336 555 332 551 L305 523 C301 519 299 515 299 509 C299 505 300 496 304 493 L519 277 L304 62 C301 59 299 50 299 46 C299 40 301 35 305 31 L334 2 C337 -1 341 -4 347 -4 C359 -4 370 9 380 18 C462 101 543 180 625 264 L625 264 Z M397 264 C401 267 403 275 403 279 C403 284 401 288 396 292 L135 552 C132 555 123 557 119 557 C113 557 108 555 104 551 L77 523 C73 519 71 515 71 509 C71 505 72 496 76 493 L291 277 L76 62 C73 59 71 50 71 46 C71 40 73 35 77 31 L106 2 C109 -1 113 -4 119 -4 C131 -4 142 9 152 18 C234 101 315 180 397 264 L397 264 Z " />
<glyph glyph-name="onequarter" unicode="&#xbc;" horiz-adv-x="742" d="M550 60 L550 11 C550 3 554 -1 562 -1 L612 -1 C622 -1 625 3 625 11 L625 60 L666 60 C674 60 681 67 681 73 L681 125 C681 134 674 137 666 137 L625 137 L625 402 C625 408 621 415 614 415 L562 415 C558 415 556 414 551 407 L366 90 C363 85 361 81 361 77 C361 69 366 60 377 60 L550 60 Z M472 137 L550 272 L550 137 L472 137 Z M55 658 C55 650 59 644 66 644 C66 645 66 645 67 645 C69 645 70 645 71 647 L108 665 L108 346 C108 339 113 335 120 335 L171 335 C179 335 183 340 183 347 L183 731 C183 739 179 743 170 743 L120 743 C116 743 113 742 111 741 L67 719 C60 715 55 709 55 702 L55 658 Z M98 22 C97 14 96 12 96 13 C96 4 102 0 117 0 L152 0 C166 0 170 5 178 22 L560 720 C561 721 561 724 561 727 C561 737 549 742 536 742 L512 742 C495 742 485 732 480 720 L98 22 Z " />
<glyph glyph-name="onehalf" unicode="&#xbd;" horiz-adv-x="742" d="M98 22 C97 14 96 12 96 13 C96 4 102 0 117 0 L152 0 C166 0 170 5 178 22 L560 720 C561 721 561 724 561 727 C561 737 549 742 536 742 L512 742 C495 742 485 732 480 720 L98 22 Z M55 658 C55 650 59 644 66 644 C66 645 66 645 67 645 C69 645 70 645 71 647 L108 665 L108 346 C108 339 113 335 120 335 L171 335 C179 335 183 340 183 347 L183 731 C183 739 179 743 170 743 L120 743 C116 743 113 742 111 741 L67 719 C60 715 55 709 55 702 L55 658 Z M558 346 C592 346 620 318 620 288 C620 271 616 261 600 245 L421 61 C420 58 419 55 419 54 L419 13 C419 5 426 -1 433 -1 L686 -1 C694 -1 699 5 699 13 L699 59 C699 68 695 72 686 72 L534 72 L658 196 C681 217 699 250 699 290 C699 370 631 417 554 417 C508 417 461 394 436 352 L425 332 C424 330 423 328 423 325 C423 322 425 318 429 316 L473 290 C475 289 478 288 480 288 C484 288 487 290 490 295 L501 314 C512 333 535 346 558 346 L558 346 Z " />
<glyph glyph-name="threequarters" unicode="&#xbe;" horiz-adv-x="766" d="M169 22 C168 14 167 12 167 13 C167 4 173 0 188 0 L223 0 C237 0 241 5 249 22 L631 720 C632 721 632 724 632 727 C632 737 620 742 607 742 L583 742 C566 742 556 732 551 720 L169 22 Z M148 411 C119 411 96 431 82 463 C78 478 80 482 70 482 C67 482 63 481 61 481 L22 472 C15 470 13 465 13 460 C13 458 13 456 13 454 C26 389 79 340 152 340 C228 340 289 398 289 472 C289 522 263 554 229 578 C247 596 260 621 260 650 C260 710 208 759 150 759 C98 759 56 725 41 679 C40 675 38 672 38 669 C38 663 42 661 47 659 L85 641 C86 640 88 640 89 640 C94 640 97 642 99 647 C105 667 120 689 147 689 C174 689 190 668 190 646 C190 627 172 604 147 604 C139 604 134 599 134 591 L134 547 C134 539 138 535 147 535 C185 535 212 507 212 473 C212 436 183 411 148 411 L148 411 Z M578 61 L578 12 C578 4 582 0 590 0 L640 0 C650 0 653 4 653 12 L653 61 L694 61 C702 61 709 68 709 74 L709 126 C709 135 702 138 694 138 L653 138 L653 403 C653 409 649 416 642 416 L590 416 C586 416 584 415 579 408 L394 91 C391 86 389 82 389 78 C389 70 394 61 405 61 L578 61 Z M500 138 L578 273 L578 138 L500 138 Z " />
<glyph glyph-name="questiondown" unicode="&#xbf;" horiz-adv-x="512" d="M245 227 C245 182 208 155 166 126 C111 87 40 28 40 -83 C40 -211 148 -301 284 -301 C413 -301 529 -214 529 -67 L529 -59 C529 -52 523 -43 512 -43 L459 -43 C451 -43 443 -48 443 -60 L443 -72 C443 -175 353 -220 285 -220 C196 -220 125 -160 125 -73 C125 0 178 37 231 75 C282 111 332 147 332 217 L332 299 C332 308 326 317 315 317 L261 317 C253 317 245 310 245 299 L245 227 Z M348 442 C348 476 320 504 286 504 C250 504 223 476 223 442 C223 407 250 379 286 379 C320 379 348 407 348 442 L348 442 Z " />
<glyph glyph-name="Agrave" unicode="&#xc0;" horiz-adv-x="716" d="M172 162 L536 162 L594 19 C598 8 608 0 621 0 L664 0 C677 0 686 5 686 16 C686 20 683 28 683 28 L395 724 C392 731 387 742 370 742 L341 742 C323 742 319 731 316 724 C316 723 315 723 26 29 C26 29 24 23 24 16 C24 5 31 0 45 0 L88 0 C102 0 110 6 116 20 L172 162 Z M355 613 L501 247 L208 247 L355 613 Z M304 824 C311 809 319 803 331 803 L367 803 C381 803 384 807 384 817 C383 821 382 825 378 835 L334 937 C326 952 320 958 307 958 L267 958 C259 958 252 957 252 949 C252 945 254 940 259 929 L304 824 Z " />
<glyph glyph-name="Aacute" unicode="&#xc1;" horiz-adv-x="716" d="M172 162 L536 162 L594 19 C598 8 608 0 621 0 L664 0 C677 0 686 5 686 16 C686 20 683 28 683 28 L395 724 C392 731 387 742 370 742 L341 742 C323 742 319 731 316 724 C316 723 315 723 26 29 C26 29 24 23 24 16 C24 5 31 0 45 0 L88 0 C102 0 110 6 116 20 L172 162 Z M355 613 L501 247 L208 247 L355 613 Z M451 929 C459 946 461 958 443 958 L403 958 C390 958 382 952 376 937 L332 835 C325 820 323 803 343 803 L379 803 C391 803 399 809 406 824 L451 929 Z " />
<glyph glyph-name="Acircumflex" unicode="&#xc2;" horiz-adv-x="716" d="M172 162 L536 162 L594 19 C598 8 608 0 621 0 L664 0 C677 0 686 5 686 16 C686 20 683 28 683 28 L395 724 C392 731 387 742 370 742 L341 742 C323 742 319 731 316 724 C316 723 315 723 26 29 C26 29 24 23 24 16 C24 5 31 0 45 0 L88 0 C102 0 110 6 116 20 L172 162 Z M355 613 L501 247 L208 247 L355 613 Z M364 967 C362 969 357 972 353 972 C349 972 344 969 342 967 L211 836 C209 833 204 828 204 823 C204 818 208 814 211 811 L234 790 C238 787 242 783 246 783 C251 783 254 784 258 788 L353 884 L448 788 C452 784 456 783 460 783 C464 783 469 787 472 790 L495 811 C498 814 502 818 502 823 C502 828 498 833 495 836 L364 967 Z " />
<glyph glyph-name="Atilde" unicode="&#xc3;" horiz-adv-x="716" d="M172 162 L536 162 L594 19 C598 8 608 0 621 0 L664 0 C677 0 686 5 686 16 C686 20 683 28 683 28 L395 724 C392 731 387 742 370 742 L341 742 C323 742 319 731 316 724 C316 723 315 723 26 29 C26 29 24 23 24 16 C24 5 31 0 45 0 L88 0 C102 0 110 6 116 20 L172 162 Z M355 613 L501 247 L208 247 L355 613 Z M238 814 C245 820 252 833 258 839 C268 848 280 853 294 853 C306 853 318 849 328 842 L355 823 C374 810 395 801 416 801 C454 801 486 816 513 855 C514 855 520 864 520 868 C520 872 519 874 516 878 C511 882 501 891 494 897 C490 899 488 901 485 901 C482 901 479 899 477 897 C471 891 463 878 457 872 C447 863 435 858 421 858 C409 858 398 862 387 869 L360 888 C341 901 320 910 300 910 C261 910 230 895 202 856 C201 855 195 847 195 843 C195 839 196 837 199 834 C204 829 214 820 221 814 C225 812 228 810 231 810 C233 810 236 812 238 814 L238 814 Z " />
<glyph glyph-name="Adieresis" unicode="&#xc4;" horiz-adv-x="716" d="M172 162 L536 162 L594 19 C598 8 608 0 621 0 L664 0 C677 0 686 5 686 16 C686 20 683 28 683 28 L395 724 C392 731 387 742 370 742 L341 742 C323 742 319 731 316 724 C316 723 315 723 26 29 C26 29 24 23 24 16 C24 5 31 0 45 0 L88 0 C102 0 110 6 116 20 L172 162 Z M355 613 L501 247 L208 247 L355 613 Z M197 856 C197 822 225 794 259 794 C295 794 322 822 322 856 C322 891 295 919 259 919 C225 919 197 891 197 856 L197 856 Z M383 857 C383 823 411 795 445 795 C481 795 508 823 508 857 C508 892 481 920 445 920 C411 920 383 892 383 857 L383 857 Z " />
<glyph glyph-name="Aring" unicode="&#xc5;" horiz-adv-x="716" d="M172 162 L536 162 L594 19 C598 8 608 0 621 0 L664 0 C677 0 686 5 686 16 C686 20 683 28 683 28 L395 724 C392 731 387 742 370 742 L341 742 C323 742 319 731 316 724 C316 723 315 723 26 29 C26 29 24 23 24 16 C24 5 31 0 45 0 L88 0 C102 0 110 6 116 20 L172 162 Z M355 613 L501 247 L208 247 L355 613 Z M357 911 C299 911 253 863 253 805 C253 747 299 701 357 701 C415 701 463 747 463 805 C463 863 415 911 357 911 L357 911 Z M357 858 C387 858 410 835 410 805 C410 775 387 753 357 753 C327 753 305 775 305 805 C305 835 327 858 357 858 L357 858 Z " />
<glyph glyph-name="AE" unicode="&#xc6;" horiz-adv-x="1151" d="M248 162 L603 162 L603 21 C603 6 611 0 625 0 L1105 0 C1119 0 1127 8 1127 22 L1127 63 C1127 79 1119 87 1105 87 L690 87 L690 347 L1015 347 C1030 347 1037 358 1037 370 L1037 411 C1037 427 1027 434 1015 434 L690 434 L690 655 L1100 655 C1116 655 1124 666 1124 678 L1124 719 C1124 735 1116 742 1101 742 L625 742 C607 742 599 731 593 724 C593 723 592 723 28 29 C28 29 28 29 28 29 C28 28 19 18 19 9 C19 3 25 0 36 0 L102 0 C113 0 124 6 135 20 L248 162 Z M603 600 L603 247 L318 247 L603 600 Z " />
<glyph glyph-name="Ccedilla" unicode="&#xc7;" horiz-adv-x="705" d="M653 677 C588 725 510 752 426 752 C215 752 44 581 44 370 C44 159 214 -11 425 -11 C513 -11 590 17 653 63 C660 67 664 73 664 80 C664 84 663 89 661 94 L638 132 C632 141 627 144 621 144 C612 144 597 128 584 122 C525 86 478 75 427 75 C272 75 131 203 131 369 C131 526 254 664 429 664 C490 664 553 642 603 606 C611 601 617 599 621 598 C627 598 633 603 638 610 L659 643 C662 647 666 654 666 660 C666 667 661 672 653 677 L653 677 Z M448 -3 C448 5 447 15 434 15 L391 15 C381 15 376 15 376 2 L376 -15 C376 -47 393 -71 424 -87 C448 -100 467 -111 467 -134 C467 -154 439 -174 394 -183 C388 -185 384 -190 384 -197 C384 -213 394 -243 413 -243 C415 -243 418 -243 420 -242 C500 -219 537 -184 540 -141 C540 -89 508 -67 475 -48 L471 -45 C449 -29 448 -17 448 -3 L448 -3 Z " />
<glyph glyph-name="Egrave" unicode="&#xc8;" horiz-adv-x="642" d="M103 742 C89 742 81 734 81 719 L81 21 C81 6 89 0 103 0 L588 0 C602 0 610 8 610 22 L610 63 C610 79 602 87 587 87 L167 87 L167 347 L498 347 C512 347 520 358 520 370 L520 411 C520 427 510 434 498 434 L167 434 L167 655 L583 655 C598 655 606 666 606 678 L606 719 C606 735 598 742 584 742 L103 742 Z M313 825 C320 810 328 804 340 804 L376 804 C390 804 393 808 393 818 C392 822 391 826 387 836 L343 938 C335 953 329 959 316 959 L276 959 C268 959 261 958 261 950 C261 946 263 941 268 930 L313 825 Z " />
<glyph glyph-name="Eacute" unicode="&#xc9;" horiz-adv-x="642" d="M103 742 C89 742 81 734 81 719 L81 21 C81 6 89 0 103 0 L588 0 C602 0 610 8 610 22 L610 63 C610 79 602 87 587 87 L167 87 L167 347 L498 347 C512 347 520 358 520 370 L520 411 C520 427 510 434 498 434 L167 434 L167 655 L583 655 C598 655 606 666 606 678 L606 719 C606 735 598 742 584 742 L103 742 Z M427 929 C435 946 437 958 419 958 L379 958 C366 958 358 952 352 937 L308 835 C301 820 299 803 319 803 L355 803 C367 803 375 809 382 824 L427 929 Z " />
<glyph glyph-name="Ecircumflex" unicode="&#xca;" horiz-adv-x="642" d="M103 742 C89 742 81 734 81 719 L81 21 C81 6 89 0 103 0 L588 0 C602 0 610 8 610 22 L610 63 C610 79 602 87 587 87 L167 87 L167 347 L498 347 C512 347 520 358 520 370 L520 411 C520 427 510 434 498 434 L167 434 L167 655 L583 655 C598 655 606 666 606 678 L606 719 C606 735 598 742 584 742 L103 742 Z M361 977 C359 979 354 982 350 982 C346 982 341 979 339 977 L208 846 C206 843 201 838 201 833 C201 828 205 824 208 821 L231 800 C235 797 239 793 243 793 C248 793 251 794 255 798 L350 894 L445 798 C449 794 453 793 457 793 C461 793 466 797 469 800 L492 821 C495 824 499 828 499 833 C499 838 495 843 492 846 L361 977 Z " />
<glyph glyph-name="Edieresis" unicode="&#xcb;" horiz-adv-x="642" d="M103 742 C89 742 81 734 81 719 L81 21 C81 6 89 0 103 0 L588 0 C602 0 610 8 610 22 L610 63 C610 79 602 87 587 87 L167 87 L167 347 L498 347 C512 347 520 358 520 370 L520 411 C520 427 510 434 498 434 L167 434 L167 655 L583 655 C598 655 606 666 606 678 L606 719 C606 735 598 742 584 742 L103 742 Z M218 869 C218 835 246 807 280 807 C316 807 343 835 343 869 C343 904 316 932 280 932 C246 932 218 904 218 869 L218 869 Z M404 870 C404 836 432 808 466 808 C502 808 529 836 529 870 C529 905 502 933 466 933 C432 933 404 905 404 870 L404 870 Z " />
<glyph glyph-name="Igrave" unicode="&#xcc;" horiz-adv-x="248" d="M167 720 C167 733 158 742 145 742 L103 742 C89 742 81 734 81 720 L81 22 C81 7 88 0 103 0 L145 0 C159 0 167 7 167 22 L167 720 Z M79 824 C86 809 94 803 106 803 L142 803 C156 803 159 807 159 817 C158 821 157 825 153 835 L109 937 C101 952 95 958 82 958 L42 958 C34 958 27 957 27 949 C27 945 29 940 34 929 L79 824 Z " />
<glyph glyph-name="Iacute" unicode="&#xcd;" horiz-adv-x="248" d="M167 720 C167 733 158 742 145 742 L103 742 C89 742 81 734 81 720 L81 22 C81 7 88 0 103 0 L145 0 C159 0 167 7 167 22 L167 720 Z M203 930 C211 947 213 959 195 959 L155 959 C142 959 134 953 128 938 L84 836 C77 821 75 804 95 804 L131 804 C143 804 151 810 158 825 L203 930 Z " />
<glyph glyph-name="Icircumflex" unicode="&#xce;" horiz-adv-x="248" d="M167 720 C167 733 158 742 145 742 L103 742 C89 742 81 734 81 720 L81 22 C81 7 88 0 103 0 L145 0 C159 0 167 7 167 22 L167 720 Z M133 964 C131 966 126 969 122 969 C118 969 113 966 111 964 L-20 833 C-22 830 -27 825 -27 820 C-27 815 -23 811 -20 808 L3 787 C7 784 11 780 15 780 C20 780 23 781 27 785 L122 881 L217 785 C221 781 225 780 229 780 C233 780 238 784 241 787 L264 808 C267 811 271 815 271 820 C271 825 267 830 264 833 L133 964 Z " />
<glyph glyph-name="Idieresis" unicode="&#xcf;" horiz-adv-x="258" d="M167 720 C167 733 158 742 145 742 L103 742 C89 742 81 734 81 720 L81 22 C81 7 88 0 103 0 L145 0 C159 0 167 7 167 22 L167 720 Z M-34 873 C-34 839 -6 811 28 811 C64 811 91 839 91 873 C91 908 64 936 28 936 C-6 936 -34 908 -34 873 L-34 873 Z M152 874 C152 840 180 812 214 812 C250 812 277 840 277 874 C277 909 250 937 214 937 C180 937 152 909 152 874 L152 874 Z " />
<glyph glyph-name="Eth" unicode="&#xd0;" horiz-adv-x="740" d="M81 410 L26 410 C16 410 11 406 11 397 L11 339 C11 329 16 323 26 323 L81 323 L81 21 C81 4 92 0 104 0 L337 0 C545 0 711 165 711 370 C711 578 550 742 337 742 L104 742 C88 742 81 735 81 718 L81 410 Z M176 95 L176 647 L337 647 C490 647 615 539 615 376 C615 223 498 95 335 95 L176 95 Z " />
<glyph glyph-name="Ntilde" unicode="&#xd1;" horiz-adv-x="791" d="M689 0 C705 0 713 8 713 22 L713 720 C713 733 701 742 689 742 L648 742 C636 742 628 735 626 723 L626 148 L177 732 C172 739 166 742 158 742 L103 742 C90 742 81 732 81 719 L81 22 C81 7 88 0 103 0 L144 0 C160 0 167 7 167 22 L167 608 L623 9 C628 3 635 0 642 0 L689 0 Z M269 820 C276 826 283 839 289 845 C299 854 311 859 325 859 C337 859 349 855 359 848 L386 829 C405 816 426 807 447 807 C485 807 517 822 544 861 C545 861 551 870 551 874 C551 878 550 880 547 884 C542 888 532 897 525 903 C521 905 519 907 516 907 C513 907 510 905 508 903 C502 897 494 884 488 878 C478 869 466 864 452 864 C440 864 429 868 418 875 L391 894 C372 907 351 916 331 916 C292 916 261 901 233 862 C232 861 226 853 226 849 C226 845 227 843 230 840 C235 835 245 826 252 820 C256 818 259 816 262 816 C264 816 267 818 269 820 L269 820 Z " />
<glyph glyph-name="Ograve" unicode="&#xd2;" horiz-adv-x="853" d="M426 752 C215 752 44 581 44 370 C44 159 214 -11 425 -11 C637 -11 808 159 808 369 C808 582 636 752 426 752 L426 752 Z M131 371 C131 533 262 665 426 665 C588 665 720 533 720 371 C720 207 588 75 426 75 C262 75 131 207 131 371 L131 371 Z M385 824 C392 809 400 803 412 803 L448 803 C462 803 465 807 465 817 C464 821 463 825 459 835 L415 937 C407 952 401 958 388 958 L348 958 C340 958 333 957 333 949 C333 945 335 940 340 929 L385 824 Z " />
<glyph glyph-name="Oacute" unicode="&#xd3;" horiz-adv-x="853" d="M426 752 C215 752 44 581 44 370 C44 159 214 -11 425 -11 C637 -11 808 159 808 369 C808 582 636 752 426 752 L426 752 Z M131 371 C131 533 262 665 426 665 C588 665 720 533 720 371 C720 207 588 75 426 75 C262 75 131 207 131 371 L131 371 Z M517 930 C525 947 527 959 509 959 L469 959 C456 959 448 953 442 938 L398 836 C391 821 389 804 409 804 L445 804 C457 804 465 810 472 825 L517 930 Z " />
<glyph glyph-name="Ocircumflex" unicode="&#xd4;" horiz-adv-x="853" d="M426 752 C215 752 44 581 44 370 C44 159 214 -11 425 -11 C637 -11 808 159 808 369 C808 582 636 752 426 752 L426 752 Z M131 371 C131 533 262 665 426 665 C588 665 720 533 720 371 C720 207 588 75 426 75 C262 75 131 207 131 371 L131 371 Z M442 972 C440 974 435 977 431 977 C427 977 422 974 420 972 L289 841 C287 838 282 833 282 828 C282 823 286 819 289 816 L312 795 C316 792 320 788 324 788 C329 788 332 789 336 793 L431 889 L526 793 C530 789 534 788 538 788 C542 788 547 792 550 795 L573 816 C576 819 580 823 580 828 C580 833 576 838 573 841 L442 972 Z " />
<glyph glyph-name="Otilde" unicode="&#xd5;" horiz-adv-x="853" d="M426 752 C215 752 44 581 44 370 C44 159 214 -11 425 -11 C637 -11 808 159 808 369 C808 582 636 752 426 752 L426 752 Z M131 371 C131 533 262 665 426 665 C588 665 720 533 720 371 C720 207 588 75 426 75 C262 75 131 207 131 371 L131 371 Z M303 824 C310 830 317 843 323 849 C333 858 345 863 359 863 C371 863 383 859 393 852 L420 833 C439 820 460 811 481 811 C519 811 551 826 578 865 C579 865 585 874 585 878 C585 882 584 884 581 888 C576 892 566 901 559 907 C555 909 553 911 550 911 C547 911 544 909 542 907 C536 901 528 888 522 882 C512 873 500 868 486 868 C474 868 463 872 452 879 L425 898 C406 911 385 920 365 920 C326 920 295 905 267 866 C266 865 260 857 260 853 C260 849 261 847 264 844 C269 839 279 830 286 824 C290 822 293 820 296 820 C298 820 301 822 303 824 L303 824 Z " />
<glyph glyph-name="Odieresis" unicode="&#xd6;" horiz-adv-x="853" d="M426 752 C215 752 44 581 44 370 C44 159 214 -11 425 -11 C637 -11 808 159 808 369 C808 582 636 752 426 752 L426 752 Z M131 371 C131 533 262 665 426 665 C588 665 720 533 720 371 C720 207 588 75 426 75 C262 75 131 207 131 371 L131 371 Z M271 875 C271 841 299 813 333 813 C369 813 396 841 396 875 C396 910 369 938 333 938 C299 938 271 910 271 875 L271 875 Z M457 876 C457 842 485 814 519 814 C555 814 582 842 582 876 C582 911 555 939 519 939 C485 939 457 911 457 876 L457 876 Z " />
<glyph glyph-name="multiply" unicode="&#xd7;" horiz-adv-x="446" d="M378 404 C383 409 385 414 385 420 C385 425 383 430 378 435 L349 464 C344 468 338 471 332 471 C326 471 321 469 317 465 L231 380 L147 465 C142 470 136 472 131 472 C126 472 121 470 116 465 L87 436 C81 430 78 424 78 419 C78 413 81 408 86 403 L170 319 L86 234 C81 229 78 224 78 219 C78 213 81 208 87 202 L116 173 C121 168 126 165 131 165 C136 165 142 168 147 173 L231 257 L317 172 C321 168 326 166 332 166 C338 166 344 169 349 174 L378 202 C383 207 385 213 385 218 C385 223 383 229 378 233 L293 319 L378 404 Z " />
<glyph glyph-name="Oslash" unicode="&#xd8;" horiz-adv-x="851" d="M426 752 C215 752 44 581 44 370 C44 226 123 101 241 36 L180 -96 C179 -100 178 -103 178 -106 C178 -113 183 -117 195 -117 L247 -117 C260 -117 267 -111 272 -100 L322 3 C355 -6 389 -11 425 -11 C637 -11 808 159 808 369 C808 512 730 637 615 702 C627 733 663 812 673 836 C676 842 677 847 677 850 C677 859 670 862 655 862 L610 862 C594 862 587 857 579 840 L534 737 C500 747 464 752 426 752 L426 752 Z M131 371 C131 533 262 665 426 665 C588 665 720 533 720 371 C720 207 588 75 426 75 C262 75 131 207 131 371 L131 371 Z " />
<glyph glyph-name="Ugrave" unicode="&#xd9;" horiz-adv-x="752" d="M158 720 C158 732 145 742 135 742 L91 742 C79 742 70 730 70 720 L70 293 C70 125 208 -12 376 -12 C544 -12 682 110 682 293 L682 720 C682 733 669 742 656 742 L618 742 C605 742 595 732 595 720 L595 303 C595 175 517 72 376 72 C242 72 158 174 158 303 L158 720 Z M347 823 C354 808 362 802 374 802 L410 802 C424 802 427 806 427 816 C426 820 425 824 421 834 L377 936 C369 951 363 957 350 957 L310 957 C302 957 295 956 295 948 C295 944 297 939 302 928 L347 823 Z " />
<glyph glyph-name="Uacute" unicode="&#xda;" horiz-adv-x="752" d="M158 720 C158 732 145 742 135 742 L91 742 C79 742 70 730 70 720 L70 293 C70 125 208 -12 376 -12 C544 -12 682 110 682 293 L682 720 C682 733 669 742 656 742 L618 742 C605 742 595 732 595 720 L595 303 C595 175 517 72 376 72 C242 72 158 174 158 303 L158 720 Z M456 930 C464 947 466 959 448 959 L408 959 C395 959 387 953 381 938 L337 836 C330 821 328 804 348 804 L384 804 C396 804 404 810 411 825 L456 930 Z " />
<glyph glyph-name="Ucircumflex" unicode="&#xdb;" horiz-adv-x="752" d="M158 720 C158 732 145 742 135 742 L91 742 C79 742 70 730 70 720 L70 293 C70 125 208 -12 376 -12 C544 -12 682 110 682 293 L682 720 C682 733 669 742 656 742 L618 742 C605 742 595 732 595 720 L595 303 C595 175 517 72 376 72 C242 72 158 174 158 303 L158 720 Z M386 991 C384 993 379 996 375 996 C371 996 366 993 364 991 L233 860 C231 857 226 852 226 847 C226 842 230 838 233 835 L256 814 C260 811 264 807 268 807 C273 807 276 808 280 812 L375 908 L470 812 C474 808 478 807 482 807 C486 807 491 811 494 814 L517 835 C520 838 524 842 524 847 C524 852 520 857 517 860 L386 991 Z " />
<glyph glyph-name="Udieresis" unicode="&#xdc;" horiz-adv-x="752" d="M158 720 C158 732 145 742 135 742 L91 742 C79 742 70 730 70 720 L70 293 C70 125 208 -12 376 -12 C544 -12 682 110 682 293 L682 720 C682 733 669 742 656 742 L618 742 C605 742 595 732 595 720 L595 303 C595 175 517 72 376 72 C242 72 158 174 158 303 L158 720 Z M221 875 C221 841 249 813 283 813 C319 813 346 841 346 875 C346 910 319 938 283 938 C249 938 221 910 221 875 L221 875 Z M407 876 C407 842 435 814 469 814 C505 814 532 842 532 876 C532 911 505 939 469 939 C435 939 407 911 407 876 L407 876 Z " />
<glyph glyph-name="Yacute" unicode="&#xdd;" horiz-adv-x="659" d="M286 324 L286 23 C286 7 293 0 307 0 L350 0 C365 0 373 7 373 23 L373 327 C455 459 534 588 616 720 C620 725 621 731 621 733 C621 739 617 742 609 742 L541 742 C531 741 526 738 518 725 L329 413 L144 721 C132 740 131 741 118 742 L53 742 C43 742 38 738 38 732 C38 728 40 723 44 717 L286 324 Z M420 929 C428 946 430 958 412 958 L372 958 C359 958 351 952 345 937 L301 835 C294 820 292 803 312 803 L348 803 C360 803 368 809 375 824 L420 929 Z " />
<glyph glyph-name="Thorn" unicode="&#xde;" horiz-adv-x="627" d="M167 721 C167 734 158 743 145 743 L103 743 C89 743 81 734 81 721 L81 22 C81 7 88 0 103 0 L145 0 C160 0 167 7 167 22 L167 145 L355 145 C484 145 583 252 583 375 C583 501 483 607 352 607 L167 607 L167 721 Z M497 376 C497 298 431 230 352 230 L167 230 L167 522 L352 522 C433 522 497 453 497 376 L497 376 Z " />
<glyph glyph-name="germandbls" unicode="&#xdf;" horiz-adv-x="576" d="M281 72 C269 72 263 64 263 50 L263 0 C265 -6 270 -14 278 -14 L280 -14 C417 -13 521 83 521 219 C521 316 475 380 399 422 C443 456 468 505 468 562 C468 670 380 750 275 750 C176 750 80 688 80 571 L80 -171 C80 -185 88 -193 103 -193 L144 -193 C158 -193 167 -185 167 -171 L167 574 C167 630 208 671 272 671 C349 671 382 618 382 559 C382 501 336 454 269 454 C258 454 253 448 253 438 L253 385 C253 374 258 370 270 370 C369 370 434 319 434 220 C434 128 369 74 281 72 L281 72 Z " />
<glyph glyph-name="agrave" unicode="&#xe0;" horiz-adv-x="594" d="M430 25 C430 10 437 0 455 0 L487 0 C501 0 513 9 513 22 L513 466 C513 482 501 491 487 491 L458 491 C441 491 435 482 434 466 L430 416 C400 459 361 499 279 499 C138 499 40 386 40 244 C40 102 139 -10 279 -10 C360 -10 400 27 430 72 L430 25 Z M123 244 C123 337 183 415 279 415 C377 415 430 336 430 242 C430 146 375 73 279 73 C185 73 123 150 123 244 L123 244 Z M250 608 C257 593 265 587 277 587 L313 587 C327 587 330 591 330 601 C329 605 328 609 324 619 L280 721 C272 736 266 742 253 742 L213 742 C205 742 198 741 198 733 C198 729 200 724 205 713 L250 608 Z " />
<glyph glyph-name="aacute" unicode="&#xe1;" horiz-adv-x="594" d="M430 25 C430 10 437 0 455 0 L487 0 C501 0 513 9 513 22 L513 466 C513 482 501 491 487 491 L458 491 C441 491 435 482 434 466 L430 416 C400 459 361 499 279 499 C138 499 40 386 40 244 C40 102 139 -10 279 -10 C360 -10 400 27 430 72 L430 25 Z M123 244 C123 337 183 415 279 415 C377 415 430 336 430 242 C430 146 375 73 279 73 C185 73 123 150 123 244 L123 244 Z M359 713 C367 730 369 742 351 742 L311 742 C298 742 290 736 284 721 L240 619 C233 604 231 587 251 587 L287 587 C299 587 307 593 314 608 L359 713 Z " />
<glyph glyph-name="acircumflex" unicode="&#xe2;" horiz-adv-x="594" d="M430 25 C430 10 437 0 455 0 L487 0 C501 0 513 9 513 22 L513 466 C513 482 501 491 487 491 L458 491 C441 491 435 482 434 466 L430 416 C400 459 361 499 279 499 C138 499 40 386 40 244 C40 102 139 -10 279 -10 C360 -10 400 27 430 72 L430 25 Z M123 244 C123 337 183 415 279 415 C377 415 430 336 430 242 C430 146 375 73 279 73 C185 73 123 150 123 244 L123 244 Z M292 760 C290 762 285 765 281 765 C277 765 272 762 270 760 L139 629 C137 626 132 621 132 616 C132 611 136 607 139 604 L162 583 C166 580 170 576 174 576 C179 576 182 577 186 581 L281 677 L376 581 C380 577 384 576 388 576 C392 576 397 580 400 583 L423 604 C426 607 430 611 430 616 C430 621 426 626 423 629 L292 760 Z " />
<glyph glyph-name="atilde" unicode="&#xe3;" horiz-adv-x="594" d="M430 25 C430 10 437 0 455 0 L487 0 C501 0 513 9 513 22 L513 466 C513 482 501 491 487 491 L458 491 C441 491 435 482 434 466 L430 416 C400 459 361 499 279 499 C138 499 40 386 40 244 C40 102 139 -10 279 -10 C360 -10 400 27 430 72 L430 25 Z M123 244 C123 337 183 415 279 415 C377 415 430 336 430 242 C430 146 375 73 279 73 C185 73 123 150 123 244 L123 244 Z M163 580 C170 586 177 599 183 605 C193 614 205 619 219 619 C231 619 243 615 253 608 L280 589 C299 576 320 567 341 567 C379 567 411 582 438 621 C439 621 445 630 445 634 C445 638 444 640 441 644 C436 648 426 657 419 663 C415 665 413 667 410 667 C407 667 404 665 402 663 C396 657 388 644 382 638 C372 629 360 624 346 624 C334 624 323 628 312 635 L285 654 C266 667 245 676 225 676 C186 676 155 661 127 622 C126 621 120 613 120 609 C120 605 121 603 124 600 C129 595 139 586 146 580 C150 578 153 576 156 576 C158 576 161 578 163 580 L163 580 Z " />
<glyph glyph-name="adieresis" unicode="&#xe4;" horiz-adv-x="594" d="M430 25 C430 10 437 0 455 0 L487 0 C501 0 513 9 513 22 L513 466 C513 482 501 491 487 491 L458 491 C441 491 435 482 434 466 L430 416 C400 459 361 499 279 499 C138 499 40 386 40 244 C40 102 139 -10 279 -10 C360 -10 400 27 430 72 L430 25 Z M123 244 C123 337 183 415 279 415 C377 415 430 336 430 242 C430 146 375 73 279 73 C185 73 123 150 123 244 L123 244 Z M122 633 C122 599 150 571 184 571 C220 571 247 599 247 633 C247 668 220 696 184 696 C150 696 122 668 122 633 L122 633 Z M308 634 C308 600 336 572 370 572 C406 572 433 600 433 634 C433 669 406 697 370 697 C336 697 308 669 308 634 L308 634 Z " />
<glyph glyph-name="aring" unicode="&#xe5;" horiz-adv-x="594" d="M430 25 C430 10 437 0 455 0 L487 0 C501 0 513 9 513 22 L513 466 C513 482 501 491 487 491 L458 491 C441 491 435 482 434 466 L430 416 C400 459 361 499 279 499 C138 499 40 386 40 244 C40 102 139 -10 279 -10 C360 -10 400 27 430 72 L430 25 Z M123 244 C123 337 183 415 279 415 C377 415 430 336 430 242 C430 146 375 73 279 73 C185 73 123 150 123 244 L123 244 Z M287 772 C229 772 183 724 183 666 C183 608 229 562 287 562 C345 562 393 608 393 666 C393 724 345 772 287 772 L287 772 Z M287 719 C317 719 340 696 340 666 C340 636 317 614 287 614 C257 614 235 636 235 666 C235 696 257 719 287 719 L287 719 Z " />
<glyph glyph-name="ae" unicode="&#xe6;" horiz-adv-x="967" d="M122 244 C122 337 182 415 278 415 C376 415 429 336 429 242 C429 146 374 73 278 73 C184 73 122 150 122 244 L122 244 Z M532 275 C549 361 616 420 682 420 C757 420 824 365 843 275 L532 275 Z M429 25 C429 10 436 0 454 0 L486 0 C500 0 512 9 512 22 L512 78 C556 24 622 -9 694 -9 C755 -9 807 21 852 59 C861 66 864 69 864 74 C864 78 862 82 857 88 L835 117 C832 121 829 123 825 123 C818 123 811 115 803 109 C768 80 730 66 690 66 C621 66 551 122 535 211 L856 211 C891 211 917 212 917 250 L917 259 C909 403 803 495 686 495 C617 495 555 466 512 415 L512 466 C512 482 500 491 486 491 L457 491 C440 491 434 482 433 466 L429 416 C399 459 360 499 278 499 C137 499 39 386 39 244 C39 102 138 -10 278 -10 C359 -10 399 27 429 72 L429 25 Z " />
<glyph glyph-name="ccedilla" unicode="&#xe7;" horiz-adv-x="511" d="M295 68 C199 68 119 148 119 244 C119 340 199 421 295 421 C338 421 375 402 406 378 C412 373 419 370 422 370 C428 370 432 372 435 376 L435 375 L462 418 C464 420 465 426 465 429 C465 436 459 442 449 449 C397 486 348 501 295 501 C153 501 39 386 39 244 C39 102 153 -12 295 -12 C356 -12 410 13 454 44 C460 48 471 55 471 64 C471 67 470 70 468 73 L439 114 C437 118 433 120 428 120 C422 120 415 117 410 113 C379 86 335 68 295 68 L295 68 Z M316 -3 C316 5 315 15 302 15 L259 15 C249 15 244 15 244 2 L244 -15 C244 -47 261 -71 292 -87 C316 -100 335 -111 335 -134 C335 -154 307 -174 262 -183 C256 -185 252 -190 252 -197 C252 -213 262 -243 281 -243 C283 -243 286 -243 288 -242 C368 -219 405 -184 408 -141 C408 -89 376 -67 343 -48 L339 -45 C317 -29 316 -17 316 -3 L316 -3 Z " />
<glyph glyph-name="egrave" unicode="&#xe8;" horiz-adv-x="532" d="M280 -12 C342 -12 394 14 439 44 C445 48 455 55 456 64 C456 67 455 70 452 73 L424 115 C421 119 417 121 413 121 C406 121 399 118 395 114 C363 87 320 72 280 72 C206 72 144 127 132 207 L439 207 C475 207 504 213 504 253 L504 265 C504 395 402 501 280 501 C149 501 44 386 44 244 C44 102 149 -12 280 -12 L280 -12 Z M136 281 C153 356 209 417 278 417 C345 417 406 356 419 281 L136 281 Z M240 608 C247 593 255 587 267 587 L303 587 C317 587 320 591 320 601 C319 605 318 609 314 619 L270 721 C262 736 256 742 243 742 L203 742 C195 742 188 741 188 733 C188 729 190 724 195 713 L240 608 Z " />
<glyph glyph-name="eacute" unicode="&#xe9;" horiz-adv-x="532" d="M280 -12 C342 -12 394 14 439 44 C445 48 455 55 456 64 C456 67 455 70 452 73 L424 115 C421 119 417 121 413 121 C406 121 399 118 395 114 C363 87 320 72 280 72 C206 72 144 127 132 207 L439 207 C475 207 504 213 504 253 L504 265 C504 395 402 501 280 501 C149 501 44 386 44 244 C44 102 149 -12 280 -12 L280 -12 Z M136 281 C153 356 209 417 278 417 C345 417 406 356 419 281 L136 281 Z M374 713 C382 730 384 742 366 742 L326 742 C313 742 305 736 299 721 L255 619 C248 604 246 587 266 587 L302 587 C314 587 322 593 329 608 L374 713 Z " />
<glyph glyph-name="ecircumflex" unicode="&#xea;" horiz-adv-x="532" d="M280 -12 C342 -12 394 14 439 44 C445 48 455 55 456 64 C456 67 455 70 452 73 L424 115 C421 119 417 121 413 121 C406 121 399 118 395 114 C363 87 320 72 280 72 C206 72 144 127 132 207 L439 207 C475 207 504 213 504 253 L504 265 C504 395 402 501 280 501 C149 501 44 386 44 244 C44 102 149 -12 280 -12 L280 -12 Z M136 281 C153 356 209 417 278 417 C345 417 406 356 419 281 L136 281 Z M298 760 C296 762 291 765 287 765 C283 765 278 762 276 760 L145 629 C143 626 138 621 138 616 C138 611 142 607 145 604 L168 583 C172 580 176 576 180 576 C185 576 188 577 192 581 L287 677 L382 581 C386 577 390 576 394 576 C398 576 403 580 406 583 L429 604 C432 607 436 611 436 616 C436 621 432 626 429 629 L298 760 Z " />
<glyph glyph-name="edieresis" unicode="&#xeb;" horiz-adv-x="532" d="M280 -12 C342 -12 394 14 439 44 C445 48 455 55 456 64 C456 67 455 70 452 73 L424 115 C421 119 417 121 413 121 C406 121 399 118 395 114 C363 87 320 72 280 72 C206 72 144 127 132 207 L439 207 C475 207 504 213 504 253 L504 265 C504 395 402 501 280 501 C149 501 44 386 44 244 C44 102 149 -12 280 -12 L280 -12 Z M136 281 C153 356 209 417 278 417 C345 417 406 356 419 281 L136 281 Z M127 633 C127 599 155 571 189 571 C225 571 252 599 252 633 C252 668 225 696 189 696 C155 696 127 668 127 633 L127 633 Z M313 634 C313 600 341 572 375 572 C411 572 438 600 438 634 C438 669 411 697 375 697 C341 697 313 669 313 634 L313 634 Z " />
<glyph glyph-name="igrave" unicode="&#xec;" horiz-adv-x="248" d="M167 469 C167 481 158 491 144 491 L103 491 C91 491 81 482 81 469 L81 22 C81 7 88 0 104 0 L145 0 C159 0 167 7 167 22 L167 469 Z M83 608 C90 593 98 587 110 587 L146 587 C160 587 163 591 163 601 C162 605 161 609 157 619 L113 721 C105 736 99 742 86 742 L46 742 C38 742 31 741 31 733 C31 729 33 724 38 713 L83 608 Z " />
<glyph glyph-name="iacute" unicode="&#xed;" horiz-adv-x="248" d="M167 469 C167 481 158 491 144 491 L103 491 C91 491 81 482 81 469 L81 22 C81 7 88 0 104 0 L145 0 C159 0 167 7 167 22 L167 469 Z M209 713 C217 730 219 742 201 742 L161 742 C148 742 140 736 134 721 L90 619 C83 604 81 587 101 587 L137 587 C149 587 157 593 164 608 L209 713 Z " />
<glyph glyph-name="icircumflex" unicode="&#xee;" horiz-adv-x="248" d="M167 469 C167 481 158 491 144 491 L103 491 C91 491 81 482 81 469 L81 22 C81 7 88 0 104 0 L145 0 C159 0 167 7 167 22 L167 469 Z M139 760 C137 762 132 765 128 765 C124 765 119 762 117 760 L-14 629 C-16 626 -21 621 -21 616 C-21 611 -17 607 -14 604 L9 583 C13 580 17 576 21 576 C26 576 29 577 33 581 L128 677 L223 581 C227 577 231 576 235 576 C239 576 244 580 247 583 L270 604 C273 607 277 611 277 616 C277 621 273 626 270 629 L139 760 Z " />
<glyph glyph-name="idieresis" unicode="&#xef;" horiz-adv-x="248" d="M167 469 C167 481 158 491 144 491 L103 491 C91 491 81 482 81 469 L81 22 C81 7 88 0 104 0 L145 0 C159 0 167 7 167 22 L167 469 Z M-20 633 C-20 599 8 571 42 571 C78 571 105 599 105 633 C105 668 78 696 42 696 C8 696 -20 668 -20 633 L-20 633 Z M166 634 C166 600 194 572 228 572 C264 572 291 600 291 634 C291 669 264 697 228 697 C194 697 166 669 166 634 L166 634 Z " />
<glyph glyph-name="eth" unicode="&#xf0;" horiz-adv-x="574" d="M553 245 C553 293 539 337 517 376 L370 630 L420 660 C424 663 427 668 427 673 C427 677 425 681 423 684 L411 707 C406 714 401 717 396 717 C393 717 391 716 389 715 L339 685 L319 721 C310 737 303 743 286 743 L234 743 C221 743 215 741 215 734 C215 731 216 724 220 717 C238 685 252 661 264 641 L218 613 C212 610 209 604 209 600 C209 596 210 593 213 589 L225 566 C230 558 235 555 241 555 C243 555 246 556 250 558 L296 585 C316 550 327 530 351 489 C336 495 318 499 298 499 C157 499 44 386 44 245 C44 103 157 -10 298 -10 C439 -10 553 103 553 245 L553 245 Z M465 245 C465 150 392 74 298 74 C205 74 133 150 133 245 C133 338 205 416 298 416 C392 416 465 338 465 245 L465 245 Z " />
<glyph glyph-name="ntilde" unicode="&#xf1;" horiz-adv-x="591" d="M164 467 C163 481 154 489 141 489 L103 489 C91 489 81 481 81 467 L81 22 C81 8 89 0 104 0 L145 0 C159 0 167 7 167 22 L167 308 C167 362 247 414 313 414 C389 414 436 358 436 291 L436 24 C436 8 440 0 458 0 L499 0 C512 0 523 9 523 25 L523 291 C523 407 450 500 335 500 C275 500 198 460 167 422 L164 467 Z M169 588 C176 594 183 607 189 613 C199 622 211 627 225 627 C237 627 249 623 259 616 L286 597 C305 584 326 575 347 575 C385 575 417 590 444 629 C445 629 451 638 451 642 C451 646 450 648 447 652 C442 656 432 665 425 671 C421 673 419 675 416 675 C413 675 410 673 408 671 C402 665 394 652 388 646 C378 637 366 632 352 632 C340 632 329 636 318 643 L291 662 C272 675 251 684 231 684 C192 684 161 669 133 630 C132 629 126 621 126 617 C126 613 127 611 130 608 C135 603 145 594 152 588 C156 586 159 584 162 584 C164 584 167 586 169 588 L169 588 Z " />
<glyph glyph-name="ograve" unicode="&#xf2;" horiz-adv-x="610" d="M44 244 C44 102 158 -12 300 -12 C442 -12 557 102 557 244 C557 386 442 501 300 501 C158 501 44 386 44 244 L44 244 Z M125 244 C125 340 204 421 300 421 C396 421 476 340 476 244 C476 148 396 68 300 68 C204 68 125 148 125 244 L125 244 Z M248 608 C255 593 263 587 275 587 L311 587 C325 587 328 591 328 601 C327 605 326 609 322 619 L278 721 C270 736 264 742 251 742 L211 742 C203 742 196 741 196 733 C196 729 198 724 203 713 L248 608 Z " />
<glyph glyph-name="oacute" unicode="&#xf3;" horiz-adv-x="610" d="M44 244 C44 102 158 -12 300 -12 C442 -12 557 102 557 244 C557 386 442 501 300 501 C158 501 44 386 44 244 L44 244 Z M125 244 C125 340 204 421 300 421 C396 421 476 340 476 244 C476 148 396 68 300 68 C204 68 125 148 125 244 L125 244 Z M373 713 C381 730 383 742 365 742 L325 742 C312 742 304 736 298 721 L254 619 C247 604 245 587 265 587 L301 587 C313 587 321 593 328 608 L373 713 Z " />
<glyph glyph-name="ocircumflex" unicode="&#xf4;" horiz-adv-x="610" d="M44 244 C44 102 158 -12 300 -12 C442 -12 557 102 557 244 C557 386 442 501 300 501 C158 501 44 386 44 244 L44 244 Z M125 244 C125 340 204 421 300 421 C396 421 476 340 476 244 C476 148 396 68 300 68 C204 68 125 148 125 244 L125 244 Z M308 760 C306 762 301 765 297 765 C293 765 288 762 286 760 L155 629 C153 626 148 621 148 616 C148 611 152 607 155 604 L178 583 C182 580 186 576 190 576 C195 576 198 577 202 581 L297 677 L392 581 C396 577 400 576 404 576 C408 576 413 580 416 583 L439 604 C442 607 446 611 446 616 C446 621 442 626 439 629 L308 760 Z " />
<glyph glyph-name="otilde" unicode="&#xf5;" horiz-adv-x="610" d="M44 244 C44 102 158 -12 300 -12 C442 -12 557 102 557 244 C557 386 442 501 300 501 C158 501 44 386 44 244 L44 244 Z M125 244 C125 340 204 421 300 421 C396 421 476 340 476 244 C476 148 396 68 300 68 C204 68 125 148 125 244 L125 244 Z M181 590 C188 596 195 609 201 615 C211 624 223 629 237 629 C249 629 261 625 271 618 L298 599 C317 586 338 577 359 577 C397 577 429 592 456 631 C457 631 463 640 463 644 C463 648 462 650 459 654 C454 658 444 667 437 673 C433 675 431 677 428 677 C425 677 422 675 420 673 C414 667 406 654 400 648 C390 639 378 634 364 634 C352 634 341 638 330 645 L303 664 C284 677 263 686 243 686 C204 686 173 671 145 632 C144 631 138 623 138 619 C138 615 139 613 142 610 C147 605 157 596 164 590 C168 588 171 586 174 586 C176 586 179 588 181 590 L181 590 Z " />
<glyph glyph-name="odieresis" unicode="&#xf6;" horiz-adv-x="610" d="M44 244 C44 102 158 -12 300 -12 C442 -12 557 102 557 244 C557 386 442 501 300 501 C158 501 44 386 44 244 L44 244 Z M125 244 C125 340 204 421 300 421 C396 421 476 340 476 244 C476 148 396 68 300 68 C204 68 125 148 125 244 L125 244 Z M140 633 C140 599 168 571 202 571 C238 571 265 599 265 633 C265 668 238 696 202 696 C168 696 140 668 140 633 L140 633 Z M326 634 C326 600 354 572 388 572 C424 572 451 600 451 634 C451 669 424 697 388 697 C354 697 326 669 326 634 L326 634 Z " />
<glyph glyph-name="divide" unicode="&#xf7;" horiz-adv-x="451" d="M167 440 C167 405 195 377 229 377 C265 377 292 405 292 440 C292 475 265 503 229 503 C195 503 167 475 167 440 L167 440 Z M167 50 C167 15 195 -13 229 -13 C265 -13 292 15 292 50 C292 85 265 113 229 113 C195 113 167 85 167 50 L167 50 Z M386 201 C398 201 408 209 408 223 L408 265 C408 277 399 288 386 288 L68 288 C52 288 44 281 44 265 L44 223 C44 209 52 201 68 201 L386 201 Z " />
<glyph glyph-name="oslash" unicode="&#xf8;" horiz-adv-x="610" d="M44 244 C44 155 88 76 157 31 L121 -58 C119 -61 119 -64 119 -66 C119 -73 123 -76 133 -76 L179 -76 C188 -76 196 -71 200 -61 L225 -1 C249 -8 274 -12 300 -12 C442 -12 557 102 557 244 C557 343 501 428 420 471 L450 544 C452 549 453 553 453 556 C453 564 447 566 434 566 L396 566 C382 566 375 562 369 547 L348 497 C332 500 316 501 300 501 C158 501 44 386 44 244 L44 244 Z M125 244 C125 340 204 421 300 421 C396 421 476 340 476 244 C476 148 396 68 300 68 C204 68 125 148 125 244 L125 244 Z " />
<glyph glyph-name="ugrave" unicode="&#xf9;" horiz-adv-x="568" d="M409 22 C409 9 417 0 432 0 L465 0 C478 0 487 9 487 22 L487 469 C487 483 479 491 464 491 L423 491 C409 491 400 483 400 469 L400 195 C397 128 338 75 274 75 C208 75 147 130 147 196 L147 466 C147 483 142 491 124 491 L80 491 C67 491 60 482 60 471 L60 197 C60 82 151 -11 265 -11 C327 -11 370 28 400 67 C403 52 406 37 409 22 L409 22 Z M232 608 C239 593 247 587 259 587 L295 587 C309 587 312 591 312 601 C311 605 310 609 306 619 L262 721 C254 736 248 742 235 742 L195 742 C187 742 180 741 180 733 C180 729 182 724 187 713 L232 608 Z " />
<glyph glyph-name="uacute" unicode="&#xfa;" horiz-adv-x="568" d="M409 22 C409 9 417 0 432 0 L465 0 C478 0 487 9 487 22 L487 469 C487 483 479 491 464 491 L423 491 C409 491 400 483 400 469 L400 195 C397 128 338 75 274 75 C208 75 147 130 147 196 L147 466 C147 483 142 491 124 491 L80 491 C67 491 60 482 60 471 L60 197 C60 82 151 -11 265 -11 C327 -11 370 28 400 67 C403 52 406 37 409 22 L409 22 Z M353 713 C361 730 363 742 345 742 L305 742 C292 742 284 736 278 721 L234 619 C227 604 225 587 245 587 L281 587 C293 587 301 593 308 608 L353 713 Z " />
<glyph glyph-name="ucircumflex" unicode="&#xfb;" horiz-adv-x="568" d="M409 22 C409 9 417 0 432 0 L465 0 C478 0 487 9 487 22 L487 469 C487 483 479 491 464 491 L423 491 C409 491 400 483 400 469 L400 195 C397 128 338 75 274 75 C208 75 147 130 147 196 L147 466 C147 483 142 491 124 491 L80 491 C67 491 60 482 60 471 L60 197 C60 82 151 -11 265 -11 C327 -11 370 28 400 67 C403 52 406 37 409 22 L409 22 Z M295 760 C293 762 288 765 284 765 C280 765 275 762 273 760 L142 629 C140 626 135 621 135 616 C135 611 139 607 142 604 L165 583 C169 580 173 576 177 576 C182 576 185 577 189 581 L284 677 L379 581 C383 577 387 576 391 576 C395 576 400 580 403 583 L426 604 C429 607 433 611 433 616 C433 621 429 626 426 629 L295 760 Z " />
<glyph glyph-name="udieresis" unicode="&#xfc;" horiz-adv-x="568" d="M409 22 C409 9 417 0 432 0 L465 0 C478 0 487 9 487 22 L487 469 C487 483 479 491 464 491 L423 491 C409 491 400 483 400 469 L400 195 C397 128 338 75 274 75 C208 75 147 130 147 196 L147 466 C147 483 142 491 124 491 L80 491 C67 491 60 482 60 471 L60 197 C60 82 151 -11 265 -11 C327 -11 370 28 400 67 C403 52 406 37 409 22 L409 22 Z M123 633 C123 599 151 571 185 571 C221 571 248 599 248 633 C248 668 221 696 185 696 C151 696 123 668 123 633 L123 633 Z M309 634 C309 600 337 572 371 572 C407 572 434 600 434 634 C434 669 407 697 371 697 C337 697 309 669 309 634 L309 634 Z " />
<glyph glyph-name="yacute" unicode="&#xfd;" horiz-adv-x="501" d="M478 446 C486 464 486 468 486 471 C486 483 479 491 462 491 L421 491 C408 491 400 487 394 475 L251 111 C204 226 152 357 108 473 C104 484 94 491 82 491 L39 491 C25 491 18 486 18 475 C18 473 18 465 22 456 L206 10 L134 -166 C133 -170 132 -173 132 -176 C132 -188 140 -193 155 -193 L195 -193 C208 -193 217 -187 222 -176 C308 30 391 239 478 446 L478 446 Z M348 713 C356 730 358 742 340 742 L300 742 C287 742 279 736 273 721 L229 619 C222 604 220 587 240 587 L276 587 C288 587 296 593 303 608 L348 713 Z " />
<glyph glyph-name="thorn" unicode="&#xfe;" horiz-adv-x="591" d="M167 720 C167 733 158 742 145 742 L103 742 C89 742 81 734 81 720 L81 -168 C81 -183 93 -193 110 -193 L139 -193 C158 -193 168 -183 168 -168 L168 68 C199 22 248 -8 316 -8 C445 -8 546 104 546 246 C546 388 445 501 316 501 C252 501 199 467 167 422 L167 720 Z M312 416 C393 416 456 338 456 244 C456 150 393 74 312 74 C235 74 173 142 167 230 L167 260 C174 346 235 416 312 416 L312 416 Z " />
<glyph glyph-name="ydieresis" unicode="&#xff;" horiz-adv-x="501" d="M478 446 C486 464 486 468 486 471 C486 483 479 491 462 491 L421 491 C408 491 400 487 394 475 L251 111 C204 226 152 357 108 473 C104 484 94 491 82 491 L39 491 C25 491 18 486 18 475 C18 473 18 465 22 456 L206 10 L134 -166 C133 -170 132 -173 132 -176 C132 -188 140 -193 155 -193 L195 -193 C208 -193 217 -187 222 -176 C308 30 391 239 478 446 L478 446 Z M111 633 C111 599 139 571 173 571 C209 571 236 599 236 633 C236 668 209 696 173 696 C139 696 111 668 111 633 L111 633 Z M297 634 C297 600 325 572 359 572 C395 572 422 600 422 634 C422 669 395 697 359 697 C325 697 297 669 297 634 L297 634 Z " />
<glyph glyph-name="Amacron" unicode="&#x100;" horiz-adv-x="716" d="M172 162 L536 162 L594 19 C598 8 608 0 621 0 L664 0 C677 0 686 5 686 16 C686 20 683 28 683 28 L395 724 C392 731 387 742 370 742 L341 742 C323 742 319 731 316 724 C316 723 315 723 26 29 C26 29 24 23 24 16 C24 5 31 0 45 0 L88 0 C102 0 110 6 116 20 L172 162 Z M355 613 L501 247 L208 247 L355 613 Z M158 824 C158 811 163 805 176 805 L526 805 C539 805 544 817 544 824 L544 863 C544 875 539 880 526 880 L176 880 C163 880 158 875 158 863 L158 824 Z " />
<glyph glyph-name="amacron" unicode="&#x101;" horiz-adv-x="594" d="M430 25 C430 10 437 0 455 0 L487 0 C501 0 513 9 513 22 L513 466 C513 482 501 491 487 491 L458 491 C441 491 435 482 434 466 L430 416 C400 459 361 499 279 499 C138 499 40 386 40 244 C40 102 139 -10 279 -10 C360 -10 400 27 430 72 L430 25 Z M123 244 C123 337 183 415 279 415 C377 415 430 336 430 242 C430 146 375 73 279 73 C185 73 123 150 123 244 L123 244 Z M118 617 C118 604 123 598 136 598 L486 598 C499 598 504 610 504 617 L504 656 C504 668 499 673 486 673 L136 673 C123 673 118 668 118 656 L118 617 Z " />
<glyph glyph-name="Abreve" unicode="&#x102;" horiz-adv-x="716" d="M172 162 L536 162 L594 19 C598 8 608 0 621 0 L664 0 C677 0 686 5 686 16 C686 20 683 28 683 28 L395 724 C392 731 387 742 370 742 L341 742 C323 742 319 731 316 724 C316 723 315 723 26 29 C26 29 24 23 24 16 C24 5 31 0 45 0 L88 0 C102 0 110 6 116 20 L172 162 Z M355 613 L501 247 L208 247 L355 613 Z M347 800 C418 799 473 854 473 915 C473 929 460 934 448 934 L419 934 C403 934 399 922 399 910 C399 889 379 870 349 870 C315 870 296 891 296 915 C296 925 288 934 276 934 L243 934 C232 934 223 926 223 915 C223 855 277 800 347 800 L347 800 Z " />
<glyph glyph-name="abreve" unicode="&#x103;" horiz-adv-x="594" d="M430 25 C430 10 437 0 455 0 L487 0 C501 0 513 9 513 22 L513 466 C513 482 501 491 487 491 L458 491 C441 491 435 482 434 466 L430 416 C400 459 361 499 279 499 C138 499 40 386 40 244 C40 102 139 -10 279 -10 C360 -10 400 27 430 72 L430 25 Z M123 244 C123 337 183 415 279 415 C377 415 430 336 430 242 C430 146 375 73 279 73 C185 73 123 150 123 244 L123 244 Z M274 608 C345 607 400 662 400 723 C400 737 387 742 375 742 L346 742 C330 742 326 730 326 718 C326 697 306 678 276 678 C242 678 223 699 223 723 C223 733 215 742 203 742 L170 742 C159 742 150 734 150 723 C150 663 204 608 274 608 L274 608 Z " />
<glyph glyph-name="Aogonek" unicode="&#x104;" horiz-adv-x="716" d="M172 162 L536 162 L594 19 C598 8 608 0 621 0 L664 0 C677 0 686 5 686 16 C686 20 683 28 683 28 L395 724 C392 731 387 742 370 742 L341 742 C323 742 319 731 316 724 C316 723 315 723 26 29 C26 29 24 23 24 16 C24 5 31 0 45 0 L88 0 C102 0 110 6 116 20 L172 162 Z M355 613 L501 247 L208 247 L355 613 Z M607 -6 C607 -19 603 -31 583 -44 C549 -66 514 -86 514 -139 C518 -183 554 -217 635 -241 C637 -241 640 -242 642 -242 C660 -242 671 -211 671 -196 C671 -189 667 -184 661 -182 C615 -172 587 -153 587 -132 C587 -110 608 -100 630 -86 C657 -74 679 -45 679 -14 L679 -1 C679 12 673 13 663 13 L620 13 C607 13 607 2 607 -6 L607 -6 Z " />
<glyph glyph-name="aogonek" unicode="&#x105;" horiz-adv-x="594" d="M430 25 C430 10 437 0 455 0 L487 0 C501 0 513 9 513 22 L513 466 C513 482 501 491 487 491 L458 491 C441 491 435 482 434 466 L430 416 C400 459 361 499 279 499 C138 499 40 386 40 244 C40 102 139 -10 279 -10 C360 -10 400 27 430 72 L430 25 Z M123 244 C123 337 183 415 279 415 C377 415 430 336 430 242 C430 146 375 73 279 73 C185 73 123 150 123 244 L123 244 Z M435 3 C435 -10 431 -22 411 -35 C377 -57 342 -77 342 -130 C346 -174 382 -208 463 -232 C465 -232 468 -233 470 -233 C488 -233 499 -202 499 -187 C499 -180 495 -175 489 -173 C443 -163 415 -144 415 -123 C415 -101 436 -91 458 -77 C485 -65 507 -36 507 -5 L507 8 C507 21 501 22 491 22 L448 22 C435 22 435 11 435 3 L435 3 Z " />
<glyph glyph-name="Cacute" unicode="&#x106;" horiz-adv-x="705" d="M653 677 C588 725 510 752 426 752 C215 752 44 581 44 370 C44 159 214 -11 425 -11 C513 -11 590 17 653 63 C660 67 664 73 664 80 C664 84 663 89 661 94 L638 132 C632 141 627 144 621 144 C612 144 597 128 584 122 C525 86 478 75 427 75 C272 75 131 203 131 369 C131 526 254 664 429 664 C490 664 553 642 603 606 C611 601 617 599 621 598 C627 598 633 603 638 610 L659 643 C662 647 666 654 666 660 C666 667 661 672 653 677 L653 677 Z M517 929 C525 946 527 958 509 958 L469 958 C456 958 448 952 442 937 L398 835 C391 820 389 803 409 803 L445 803 C457 803 465 809 472 824 L517 929 Z " />
<glyph glyph-name="cacute" unicode="&#x107;" horiz-adv-x="511" d="M295 68 C199 68 119 148 119 244 C119 340 199 421 295 421 C338 421 375 402 406 378 C412 373 419 370 422 370 C428 370 432 372 435 376 L435 375 L462 418 C464 420 465 426 465 429 C465 436 459 442 449 449 C397 486 348 501 295 501 C153 501 39 386 39 244 C39 102 153 -12 295 -12 C356 -12 410 13 454 44 C460 48 471 55 471 64 C471 67 470 70 468 73 L439 114 C437 118 433 120 428 120 C422 120 415 117 410 113 C379 86 335 68 295 68 L295 68 Z M366 713 C374 730 376 742 358 742 L318 742 C305 742 297 736 291 721 L247 619 C240 604 238 587 258 587 L294 587 C306 587 314 593 321 608 L366 713 Z " />
<glyph glyph-name="Ccircumflex" unicode="&#x108;" horiz-adv-x="705" d="M653 677 C588 725 510 752 426 752 C215 752 44 581 44 370 C44 159 214 -11 425 -11 C513 -11 590 17 653 63 C660 67 664 73 664 80 C664 84 663 89 661 94 L638 132 C632 141 627 144 621 144 C612 144 597 128 584 122 C525 86 478 75 427 75 C272 75 131 203 131 369 C131 526 254 664 429 664 C490 664 553 642 603 606 C611 601 617 599 621 598 C627 598 633 603 638 610 L659 643 C662 647 666 654 666 660 C666 667 661 672 653 677 L653 677 Z M430 964 C428 966 423 969 419 969 C415 969 410 966 408 964 L277 833 C275 830 270 825 270 820 C270 815 274 811 277 808 L300 787 C304 784 308 780 312 780 C317 780 320 781 324 785 L419 881 L514 785 C518 781 522 780 526 780 C530 780 535 784 538 787 L561 808 C564 811 568 815 568 820 C568 825 564 830 561 833 L430 964 Z " />
<glyph glyph-name="ccircumflex" unicode="&#x109;" horiz-adv-x="511" d="M295 68 C199 68 119 148 119 244 C119 340 199 421 295 421 C338 421 375 402 406 378 C412 373 419 370 422 370 C428 370 432 372 435 376 L435 375 L462 418 C464 420 465 426 465 429 C465 436 459 442 449 449 C397 486 348 501 295 501 C153 501 39 386 39 244 C39 102 153 -12 295 -12 C356 -12 410 13 454 44 C460 48 471 55 471 64 C471 67 470 70 468 73 L439 114 C437 118 433 120 428 120 C422 120 415 117 410 113 C379 86 335 68 295 68 L295 68 Z M302 760 C300 762 295 765 291 765 C287 765 282 762 280 760 L149 629 C147 626 142 621 142 616 C142 611 146 607 149 604 L172 583 C176 580 180 576 184 576 C189 576 192 577 196 581 L291 677 L386 581 C390 577 394 576 398 576 C402 576 407 580 410 583 L433 604 C436 607 440 611 440 616 C440 621 436 626 433 629 L302 760 Z " />
<glyph glyph-name="Cdotaccent" unicode="&#x10a;" horiz-adv-x="705" d="M653 677 C588 725 510 752 426 752 C215 752 44 581 44 370 C44 159 214 -11 425 -11 C513 -11 590 17 653 63 C660 67 664 73 664 80 C664 84 663 89 661 94 L638 132 C632 141 627 144 621 144 C612 144 597 128 584 122 C525 86 478 75 427 75 C272 75 131 203 131 369 C131 526 254 664 429 664 C490 664 553 642 603 606 C611 601 617 599 621 598 C627 598 633 603 638 610 L659 643 C662 647 666 654 666 660 C666 667 661 672 653 677 L653 677 Z M363 885 C363 850 391 822 425 822 C461 822 488 850 488 885 C488 920 461 948 425 948 C391 948 363 920 363 885 L363 885 Z " />
<glyph glyph-name="cdotaccent" unicode="&#x10b;" horiz-adv-x="511" d="M295 68 C199 68 119 148 119 244 C119 340 199 421 295 421 C338 421 375 402 406 378 C412 373 419 370 422 370 C428 370 432 372 435 376 L435 375 L462 418 C464 420 465 426 465 429 C465 436 459 442 449 449 C397 486 348 501 295 501 C153 501 39 386 39 244 C39 102 153 -12 295 -12 C356 -12 410 13 454 44 C460 48 471 55 471 64 C471 67 470 70 468 73 L439 114 C437 118 433 120 428 120 C422 120 415 117 410 113 C379 86 335 68 295 68 L295 68 Z M237 634 C237 599 265 571 299 571 C335 571 362 599 362 634 C362 669 335 697 299 697 C265 697 237 669 237 634 L237 634 Z " />
<glyph glyph-name="Ccaron" unicode="&#x10c;" horiz-adv-x="705" d="M653 677 C588 725 510 752 426 752 C215 752 44 581 44 370 C44 159 214 -11 425 -11 C513 -11 590 17 653 63 C660 67 664 73 664 80 C664 84 663 89 661 94 L638 132 C632 141 627 144 621 144 C612 144 597 128 584 122 C525 86 478 75 427 75 C272 75 131 203 131 369 C131 526 254 664 429 664 C490 664 553 642 603 606 C611 601 617 599 621 598 C627 598 633 603 638 610 L659 643 C662 647 666 654 666 660 C666 667 661 672 653 677 L653 677 Z M559 928 C561 931 565 936 565 941 C565 946 562 950 559 953 L535 974 C532 977 528 981 523 981 C520 981 515 980 512 976 L417 880 L321 976 C318 980 315 981 310 981 C306 981 301 977 297 974 L275 953 C271 950 268 946 268 941 C268 936 272 931 275 928 L406 797 C408 795 412 792 417 792 C420 792 425 795 428 797 L559 928 Z " />
<glyph glyph-name="ccaron" unicode="&#x10d;" horiz-adv-x="511" d="M295 68 C199 68 119 148 119 244 C119 340 199 421 295 421 C338 421 375 402 406 378 C412 373 419 370 422 370 C428 370 432 372 435 376 L435 375 L462 418 C464 420 465 426 465 429 C465 436 459 442 449 449 C397 486 348 501 295 501 C153 501 39 386 39 244 C39 102 153 -12 295 -12 C356 -12 410 13 454 44 C460 48 471 55 471 64 C471 67 470 70 468 73 L439 114 C437 118 433 120 428 120 C422 120 415 117 410 113 C379 86 335 68 295 68 L295 68 Z M438 710 C440 713 444 718 444 723 C444 728 441 732 438 735 L414 756 C411 759 407 763 402 763 C399 763 394 762 391 758 L296 662 L200 758 C197 762 194 763 189 763 C185 763 180 759 176 756 L154 735 C150 732 147 728 147 723 C147 718 151 713 154 710 L285 579 C287 577 291 574 296 574 C299 574 304 577 307 579 L438 710 Z " />
<glyph glyph-name="Dcaron" unicode="&#x10e;" horiz-adv-x="745" d="M81 21 C81 5 91 0 104 0 L333 0 C539 0 705 166 705 370 C705 578 543 742 333 742 L104 742 C89 742 81 734 81 718 L81 21 Z M167 85 L167 657 L333 657 C487 657 620 546 620 376 C620 224 503 85 339 85 L167 85 Z M468 924 C470 927 474 932 474 937 C474 942 471 946 468 949 L444 970 C441 973 437 977 432 977 C429 977 424 976 421 972 L326 876 L230 972 C227 976 224 977 219 977 C215 977 210 973 206 970 L184 949 C180 946 177 942 177 937 C177 932 181 927 184 924 L315 793 C317 791 321 788 326 788 C329 788 334 791 337 793 L468 924 Z " />
<glyph glyph-name="dcaron" unicode="&#x10f;" horiz-adv-x="579" d="M505 718 C505 733 493 742 476 742 L447 742 C428 742 419 733 419 718 L419 420 C387 467 343 499 268 499 C128 499 38 386 38 244 C38 102 128 -10 268 -10 C343 -10 386 21 419 66 L419 25 C419 9 430 0 447 0 L477 0 C495 0 505 9 505 25 L505 718 Z M427 243 C427 150 366 72 276 72 C176 72 125 150 125 243 C125 337 176 415 276 415 C367 415 427 337 427 243 L427 243 Z M526 714 C526 685 550 658 577 654 L577 651 C577 638 573 630 568 625 C564 620 561 618 561 612 C561 608 564 602 568 599 L582 588 C585 585 587 584 592 584 C607 584 646 625 646 709 C646 748 620 773 586 773 C553 773 526 748 526 714 L526 714 Z " />
<glyph glyph-name="Dcroat" unicode="&#x110;" horiz-adv-x="740" d="M35 324 L81 324 L81 21 C81 5 91 0 104 0 L328 0 C534 0 700 166 700 370 C700 578 538 742 328 742 L104 742 C89 742 81 734 81 718 L81 409 L35 409 C20 409 12 401 12 387 L12 347 C12 331 20 324 35 324 L35 324 Z M167 85 L167 324 L213 324 C229 324 237 331 237 347 L237 387 C237 401 229 409 213 409 L167 409 L167 657 L328 657 C482 657 615 546 615 376 C615 224 498 85 334 85 L167 85 Z " />
<glyph glyph-name="dcroat" unicode="&#x111;" horiz-adv-x="579" d="M349 638 C336 638 329 630 329 616 L329 575 C329 560 336 552 349 552 L419 552 L419 420 C387 467 343 499 268 499 C128 499 38 386 38 244 C38 102 128 -10 268 -10 C343 -10 386 21 419 66 L419 25 C419 9 430 0 447 0 L477 0 C495 0 505 9 505 25 L505 552 L581 552 C593 552 600 563 600 575 L600 616 C600 630 592 638 581 638 L505 638 L505 718 C505 733 493 742 476 742 L447 742 C428 742 419 733 419 718 L419 638 L349 638 Z M427 243 C427 150 366 72 276 72 C176 72 125 150 125 243 C125 337 176 415 276 415 C367 415 427 337 427 243 L427 243 Z " />
<glyph glyph-name="Emacron" unicode="&#x112;" horiz-adv-x="642" d="M103 742 C89 742 81 734 81 719 L81 21 C81 6 89 0 103 0 L588 0 C602 0 610 8 610 22 L610 63 C610 79 602 87 587 87 L167 87 L167 347 L498 347 C512 347 520 358 520 370 L520 411 C520 427 510 434 498 434 L167 434 L167 655 L583 655 C598 655 606 666 606 678 L606 719 C606 735 598 742 584 742 L103 742 Z M153 866 C153 853 158 847 171 847 L521 847 C534 847 539 859 539 866 L539 905 C539 917 534 922 521 922 L171 922 C158 922 153 917 153 905 L153 866 Z " />
<glyph glyph-name="emacron" unicode="&#x113;" horiz-adv-x="532" d="M280 -12 C342 -12 394 14 439 44 C445 48 455 55 456 64 C456 67 455 70 452 73 L424 115 C421 119 417 121 413 121 C406 121 399 118 395 114 C363 87 320 72 280 72 C206 72 144 127 132 207 L439 207 C475 207 504 213 504 253 L504 265 C504 395 402 501 280 501 C149 501 44 386 44 244 C44 102 149 -12 280 -12 L280 -12 Z M136 281 C153 356 209 417 278 417 C345 417 406 356 419 281 L136 281 Z M104 617 C104 604 109 598 122 598 L472 598 C485 598 490 610 490 617 L490 656 C490 668 485 673 472 673 L122 673 C109 673 104 668 104 656 L104 617 Z " />
<glyph glyph-name="Ebreve" unicode="&#x114;" horiz-adv-x="642" d="M103 742 C89 742 81 734 81 719 L81 21 C81 6 89 0 103 0 L588 0 C602 0 610 8 610 22 L610 63 C610 79 602 87 587 87 L167 87 L167 347 L498 347 C512 347 520 358 520 370 L520 411 C520 427 510 434 498 434 L167 434 L167 655 L583 655 C598 655 606 666 606 678 L606 719 C606 735 598 742 584 742 L103 742 Z M348 823 C419 822 474 877 474 938 C474 952 461 957 449 957 L420 957 C404 957 400 945 400 933 C400 912 380 893 350 893 C316 893 297 914 297 938 C297 948 289 957 277 957 L244 957 C233 957 224 949 224 938 C224 878 278 823 348 823 L348 823 Z " />
<glyph glyph-name="ebreve" unicode="&#x115;" horiz-adv-x="532" d="M280 -12 C342 -12 394 14 439 44 C445 48 455 55 456 64 C456 67 455 70 452 73 L424 115 C421 119 417 121 413 121 C406 121 399 118 395 114 C363 87 320 72 280 72 C206 72 144 127 132 207 L439 207 C475 207 504 213 504 253 L504 265 C504 395 402 501 280 501 C149 501 44 386 44 244 C44 102 149 -12 280 -12 L280 -12 Z M136 281 C153 356 209 417 278 417 C345 417 406 356 419 281 L136 281 Z M287 608 C358 607 413 662 413 723 C413 737 400 742 388 742 L359 742 C343 742 339 730 339 718 C339 697 319 678 289 678 C255 678 236 699 236 723 C236 733 228 742 216 742 L183 742 C172 742 163 734 163 723 C163 663 217 608 287 608 L287 608 Z " />
<glyph glyph-name="Edotaccent" unicode="&#x116;" horiz-adv-x="642" d="M103 742 C89 742 81 734 81 719 L81 21 C81 6 89 0 103 0 L588 0 C602 0 610 8 610 22 L610 63 C610 79 602 87 587 87 L167 87 L167 347 L498 347 C512 347 520 358 520 370 L520 411 C520 427 510 434 498 434 L167 434 L167 655 L583 655 C598 655 606 666 606 678 L606 719 C606 735 598 742 584 742 L103 742 Z M292 867 C292 832 320 804 354 804 C390 804 417 832 417 867 C417 902 390 930 354 930 C320 930 292 902 292 867 L292 867 Z " />
<glyph glyph-name="edotaccent" unicode="&#x117;" horiz-adv-x="532" d="M280 -12 C342 -12 394 14 439 44 C445 48 455 55 456 64 C456 67 455 70 452 73 L424 115 C421 119 417 121 413 121 C406 121 399 118 395 114 C363 87 320 72 280 72 C206 72 144 127 132 207 L439 207 C475 207 504 213 504 253 L504 265 C504 395 402 501 280 501 C149 501 44 386 44 244 C44 102 149 -12 280 -12 L280 -12 Z M136 281 C153 356 209 417 278 417 C345 417 406 356 419 281 L136 281 Z M216 634 C216 599 244 571 278 571 C314 571 341 599 341 634 C341 669 314 697 278 697 C244 697 216 669 216 634 L216 634 Z " />
<glyph glyph-name="Eogonek" unicode="&#x118;" horiz-adv-x="642" d="M103 742 C89 742 81 734 81 719 L81 21 C81 6 89 0 103 0 L588 0 C602 0 610 8 610 22 L610 63 C610 79 602 87 587 87 L167 87 L167 347 L498 347 C512 347 520 358 520 370 L520 411 C520 427 510 434 498 434 L167 434 L167 655 L583 655 C598 655 606 666 606 678 L606 719 C606 735 598 742 584 742 L103 742 Z M527 -6 C527 -19 523 -31 503 -44 C469 -66 434 -86 434 -139 C438 -183 474 -217 555 -241 C557 -241 560 -242 562 -242 C580 -242 591 -211 591 -196 C591 -189 587 -184 581 -182 C535 -172 507 -153 507 -132 C507 -110 528 -100 550 -86 C577 -74 599 -45 599 -14 L599 -1 C599 12 593 13 583 13 L540 13 C527 13 527 2 527 -6 L527 -6 Z " />
<glyph glyph-name="eogonek" unicode="&#x119;" horiz-adv-x="532" d="M280 -12 C342 -12 394 14 439 44 C445 48 455 55 456 64 C456 67 455 70 452 73 L424 115 C421 119 417 121 413 121 C406 121 399 118 395 114 C363 87 320 72 280 72 C206 72 144 127 132 207 L439 207 C475 207 504 213 504 253 L504 265 C504 395 402 501 280 501 C149 501 44 386 44 244 C44 102 149 -12 280 -12 L280 -12 Z M136 281 C153 356 209 417 278 417 C345 417 406 356 419 281 L136 281 Z M254 -6 C254 -19 250 -31 230 -44 C196 -66 161 -86 161 -139 C165 -183 201 -217 282 -241 C284 -241 287 -242 289 -242 C307 -242 318 -211 318 -196 C318 -189 314 -184 308 -182 C262 -172 234 -153 234 -132 C234 -110 255 -100 277 -86 C304 -74 326 -45 326 -14 L326 -1 C326 12 320 13 310 13 L267 13 C254 13 254 2 254 -6 L254 -6 Z " />
<glyph glyph-name="Ecaron" unicode="&#x11a;" horiz-adv-x="642" d="M103 742 C89 742 81 734 81 719 L81 21 C81 6 89 0 103 0 L588 0 C602 0 610 8 610 22 L610 63 C610 79 602 87 587 87 L167 87 L167 347 L498 347 C512 347 520 358 520 370 L520 411 C520 427 510 434 498 434 L167 434 L167 655 L583 655 C598 655 606 666 606 678 L606 719 C606 735 598 742 584 742 L103 742 Z M488 914 C490 917 494 922 494 927 C494 932 491 936 488 939 L464 960 C461 963 457 967 452 967 C449 967 444 966 441 962 L346 866 L250 962 C247 966 244 967 239 967 C235 967 230 963 226 960 L204 939 C200 936 197 932 197 927 C197 922 201 917 204 914 L335 783 C337 781 341 778 346 778 C349 778 354 781 357 783 L488 914 Z " />
<glyph glyph-name="ecaron" unicode="&#x11b;" horiz-adv-x="532" d="M280 -12 C342 -12 394 14 439 44 C445 48 455 55 456 64 C456 67 455 70 452 73 L424 115 C421 119 417 121 413 121 C406 121 399 118 395 114 C363 87 320 72 280 72 C206 72 144 127 132 207 L439 207 C475 207 504 213 504 253 L504 265 C504 395 402 501 280 501 C149 501 44 386 44 244 C44 102 149 -12 280 -12 L280 -12 Z M136 281 C153 356 209 417 278 417 C345 417 406 356 419 281 L136 281 Z M430 710 C432 713 436 718 436 723 C436 728 433 732 430 735 L406 756 C403 759 399 763 394 763 C391 763 386 762 383 758 L288 662 L192 758 C189 762 186 763 181 763 C177 763 172 759 168 756 L146 735 C142 732 139 728 139 723 C139 718 143 713 146 710 L277 579 C279 577 283 574 288 574 C291 574 296 577 299 579 L430 710 Z " />
<glyph glyph-name="Gcircumflex" unicode="&#x11c;" horiz-adv-x="726" d="M582 121 C553 100 495 76 426 76 C267 76 131 205 131 369 C131 523 254 664 427 664 C492 664 555 641 604 606 C611 600 618 598 623 598 C629 598 635 602 640 610 L662 646 C664 649 665 653 665 657 C665 682 597 713 563 726 C520 743 474 752 426 752 C215 752 44 580 44 370 C44 159 214 -11 425 -11 C512 -11 591 15 653 61 L655 63 C666 70 669 77 669 84 L669 306 C669 320 658 328 646 328 L604 328 C589 328 582 320 582 306 L582 121 Z M440 968 C438 970 433 973 429 973 C425 973 420 970 418 968 L287 837 C285 834 280 829 280 824 C280 819 284 815 287 812 L310 791 C314 788 318 784 322 784 C327 784 330 785 334 789 L429 885 L524 789 C528 785 532 784 536 784 C540 784 545 788 548 791 L571 812 C574 815 578 819 578 824 C578 829 574 834 571 837 L440 968 Z " />
<glyph glyph-name="gcircumflex" unicode="&#x11d;" horiz-adv-x="596" d="M422 14 C422 -71 341 -122 267 -122 C236 -122 201 -110 176 -93 C173 -91 168 -89 165 -89 C157 -89 154 -91 151 -95 L123 -143 C122 -144 118 -151 118 -154 C118 -160 121 -162 130 -167 L130 -167 C169 -192 212 -205 268 -205 C405 -205 510 -122 510 47 L510 464 C510 480 496 489 481 489 L449 489 C429 489 422 479 422 464 L422 423 C392 465 340 500 273 500 C143 500 40 386 40 244 C40 103 137 -11 273 -11 C334 -11 391 33 422 74 L422 14 Z M125 244 C125 337 192 415 273 415 C355 415 422 334 422 241 C422 148 351 73 273 73 C192 73 125 149 125 244 L125 244 Z M299 763 C297 765 292 768 288 768 C284 768 279 765 277 763 L146 632 C144 629 139 624 139 619 C139 614 143 610 146 607 L169 586 C173 583 177 579 181 579 C186 579 189 580 193 584 L288 680 L383 584 C387 580 391 579 395 579 C399 579 404 583 407 586 L430 607 C433 610 437 614 437 619 C437 624 433 629 430 632 L299 763 Z " />
<glyph glyph-name="Gbreve" unicode="&#x11e;" horiz-adv-x="726" d="M582 121 C553 100 495 76 426 76 C267 76 131 205 131 369 C131 523 254 664 427 664 C492 664 555 641 604 606 C611 600 618 598 623 598 C629 598 635 602 640 610 L662 646 C664 649 665 653 665 657 C665 682 597 713 563 726 C520 743 474 752 426 752 C215 752 44 580 44 370 C44 159 214 -11 425 -11 C512 -11 591 15 653 61 L655 63 C666 70 669 77 669 84 L669 306 C669 320 658 328 646 328 L604 328 C589 328 582 320 582 306 L582 121 Z M415 788 C486 787 541 842 541 903 C541 917 528 922 516 922 L487 922 C471 922 467 910 467 898 C467 877 447 858 417 858 C383 858 364 879 364 903 C364 913 356 922 344 922 L311 922 C300 922 291 914 291 903 C291 843 345 788 415 788 L415 788 Z " />
<glyph glyph-name="gbreve" unicode="&#x11f;" horiz-adv-x="596" d="M422 14 C422 -71 341 -122 267 -122 C236 -122 201 -110 176 -93 C173 -91 168 -89 165 -89 C157 -89 154 -91 151 -95 L123 -143 C122 -144 118 -151 118 -154 C118 -160 121 -162 130 -167 L130 -167 C169 -192 212 -205 268 -205 C405 -205 510 -122 510 47 L510 464 C510 480 496 489 481 489 L449 489 C429 489 422 479 422 464 L422 423 C392 465 340 500 273 500 C143 500 40 386 40 244 C40 103 137 -11 273 -11 C334 -11 391 33 422 74 L422 14 Z M125 244 C125 337 192 415 273 415 C355 415 422 334 422 241 C422 148 351 73 273 73 C192 73 125 149 125 244 L125 244 Z M284 608 C355 607 410 662 410 723 C410 737 397 742 385 742 L356 742 C340 742 336 730 336 718 C336 697 316 678 286 678 C252 678 233 699 233 723 C233 733 225 742 213 742 L180 742 C169 742 160 734 160 723 C160 663 214 608 284 608 L284 608 Z " />
<glyph glyph-name="Gdotaccent" unicode="&#x120;" horiz-adv-x="726" d="M582 121 C553 100 495 76 426 76 C267 76 131 205 131 369 C131 523 254 664 427 664 C492 664 555 641 604 606 C611 600 618 598 623 598 C629 598 635 602 640 610 L662 646 C664 649 665 653 665 657 C665 682 597 713 563 726 C520 743 474 752 426 752 C215 752 44 580 44 370 C44 159 214 -11 425 -11 C512 -11 591 15 653 61 L655 63 C666 70 669 77 669 84 L669 306 C669 320 658 328 646 328 L604 328 C589 328 582 320 582 306 L582 121 Z M354 887 C354 852 382 824 416 824 C452 824 479 852 479 887 C479 922 452 950 416 950 C382 950 354 922 354 887 L354 887 Z " />
<glyph glyph-name="gdotaccent" unicode="&#x121;" horiz-adv-x="596" d="M422 14 C422 -71 341 -122 267 -122 C236 -122 201 -110 176 -93 C173 -91 168 -89 165 -89 C157 -89 154 -91 151 -95 L123 -143 C122 -144 118 -151 118 -154 C118 -160 121 -162 130 -167 L130 -167 C169 -192 212 -205 268 -205 C405 -205 510 -122 510 47 L510 464 C510 480 496 489 481 489 L449 489 C429 489 422 479 422 464 L422 423 C392 465 340 500 273 500 C143 500 40 386 40 244 C40 103 137 -11 273 -11 C334 -11 391 33 422 74 L422 14 Z M125 244 C125 337 192 415 273 415 C355 415 422 334 422 241 C422 148 351 73 273 73 C192 73 125 149 125 244 L125 244 Z M213 634 C213 599 241 571 275 571 C311 571 338 599 338 634 C338 669 311 697 275 697 C241 697 213 669 213 634 L213 634 Z " />
<glyph glyph-name="Gcommaaccent" unicode="&#x122;" horiz-adv-x="726" d="M582 121 C553 100 495 76 426 76 C267 76 131 205 131 369 C131 523 254 664 427 664 C492 664 555 641 604 606 C611 600 618 598 623 598 C629 598 635 602 640 610 L662 646 C664 649 665 653 665 657 C665 682 597 713 563 726 C520 743 474 752 426 752 C215 752 44 580 44 370 C44 159 214 -11 425 -11 C512 -11 591 15 653 61 L655 63 C666 70 669 77 669 84 L669 306 C669 320 658 328 646 328 L604 328 C589 328 582 320 582 306 L582 121 Z M361 -151 C361 -183 388 -212 418 -217 L418 -221 C418 -245 400 -249 400 -264 C400 -268 403 -275 407 -279 L423 -291 C427 -294 429 -295 434 -295 C452 -295 495 -250 495 -156 C495 -113 466 -84 428 -84 C391 -84 361 -113 361 -151 L361 -151 Z " />
<glyph glyph-name="gcommaaccent" unicode="&#x123;" horiz-adv-x="596" d="M422 14 C422 -71 341 -122 267 -122 C236 -122 201 -110 176 -93 C173 -91 168 -89 165 -89 C157 -89 154 -91 151 -95 L123 -143 C122 -144 118 -151 118 -154 C118 -160 121 -162 130 -167 L130 -167 C169 -192 212 -205 268 -205 C405 -205 510 -122 510 47 L510 464 C510 480 496 489 481 489 L449 489 C429 489 422 479 422 464 L422 423 C392 465 340 500 273 500 C143 500 40 386 40 244 C40 103 137 -11 273 -11 C334 -11 391 33 422 74 L422 14 Z M125 244 C125 337 192 415 273 415 C355 415 422 334 422 241 C422 148 351 73 273 73 C192 73 125 149 125 244 L125 244 Z M349 639 C349 671 322 700 292 705 L292 709 C292 733 310 737 310 752 C310 756 307 763 303 767 L287 779 C283 782 281 783 276 783 C258 783 215 738 215 644 C215 601 244 572 282 572 C319 572 349 601 349 639 L349 639 Z " />
<glyph glyph-name="Hcircumflex" unicode="&#x124;" horiz-adv-x="791" d="M609 432 L167 432 L167 720 C167 732 156 742 144 742 L103 742 C89 742 81 732 81 720 L81 22 C81 7 88 0 103 0 L143 0 C160 0 167 7 167 22 L167 347 L609 347 L609 22 C609 7 616 0 631 0 L672 0 C688 0 695 7 695 22 L695 720 C695 733 684 742 672 742 L631 742 C617 742 609 732 609 720 L609 432 Z M415 964 C413 966 408 969 404 969 C400 969 395 966 393 964 L262 833 C260 830 255 825 255 820 C255 815 259 811 262 808 L285 787 C289 784 293 780 297 780 C302 780 305 781 309 785 L404 881 L499 785 C503 781 507 780 511 780 C515 780 520 784 523 787 L546 808 C549 811 553 815 553 820 C553 825 549 830 546 833 L415 964 Z " />
<glyph glyph-name="hcircumflex" unicode="&#x125;" horiz-adv-x="591" d="M167 720 C167 733 157 742 144 742 L103 742 C89 742 81 733 81 720 L81 22 C81 8 89 0 104 0 L145 0 C159 0 167 7 167 22 L167 296 C172 362 259 414 323 414 C389 414 436 358 436 291 L436 24 C436 8 440 0 458 0 L499 0 C512 0 523 9 523 25 L523 291 C523 407 450 500 335 500 C275 500 198 460 167 422 L167 720 Z M352 802 C350 805 345 808 341 808 C337 808 332 805 330 803 L199 671 C197 669 192 663 192 659 C192 653 196 650 199 647 L222 625 C226 622 230 618 234 618 C239 618 242 619 246 624 L341 719 L436 624 C440 619 444 618 448 618 C452 618 457 622 460 625 L483 647 C486 650 490 653 490 659 C490 663 486 669 483 671 L352 802 Z " />
<glyph glyph-name="Hbar" unicode="&#x126;" horiz-adv-x="773" d="M167 720 C167 732 156 742 144 742 L103 742 C89 742 81 732 81 720 L81 22 C81 7 88 0 103 0 L143 0 C160 0 167 7 167 22 L167 292 L609 292 L609 22 C609 7 616 0 631 0 L672 0 C688 0 695 7 695 22 L695 720 C695 733 684 742 672 742 L631 742 C617 742 609 732 609 720 L609 545 L167 545 L167 720 Z M609 377 L167 377 L167 462 L609 462 L609 377 Z " />
<glyph glyph-name="hbar" unicode="&#x127;" horiz-adv-x="582" d="M167 720 C167 733 157 742 144 742 L103 742 C89 742 81 733 81 720 L81 639 L8 639 C-7 639 -14 631 -14 617 L-14 574 C-14 558 -7 550 8 550 L81 550 L81 22 C81 8 89 0 104 0 L145 0 C159 0 167 7 167 22 L167 296 C172 362 259 414 323 414 C389 414 436 358 436 291 L436 24 C436 8 440 0 458 0 L499 0 C512 0 523 9 523 25 L523 291 C523 407 450 500 335 500 C275 500 198 460 167 422 L167 550 L247 550 C260 550 269 564 269 574 L269 617 C269 631 259 639 247 639 L167 639 L167 720 Z " />
<glyph glyph-name="Itilde" unicode="&#x128;" horiz-adv-x="248" d="M167 720 C167 733 158 742 145 742 L103 742 C89 742 81 734 81 720 L81 22 C81 7 88 0 103 0 L145 0 C159 0 167 7 167 22 L167 720 Z M10 820 C17 826 24 839 30 845 C40 854 52 859 66 859 C78 859 90 855 100 848 L127 829 C146 816 167 807 188 807 C226 807 258 822 285 861 C286 861 292 870 292 874 C292 878 291 880 288 884 C283 888 273 897 266 903 C262 905 260 907 257 907 C254 907 251 905 249 903 C243 897 235 884 229 878 C219 869 207 864 193 864 C181 864 170 868 159 875 L132 894 C113 907 92 916 72 916 C33 916 2 901 -26 862 C-27 861 -33 853 -33 849 C-33 845 -32 843 -29 840 C-24 835 -14 826 -7 820 C-3 818 0 816 3 816 C5 816 8 818 10 820 L10 820 Z " />
<glyph glyph-name="itilde" unicode="&#x129;" horiz-adv-x="248" d="M167 469 C167 481 158 491 144 491 L103 491 C91 491 81 482 81 469 L81 22 C81 7 88 0 104 0 L145 0 C159 0 167 7 167 22 L167 469 Z M10 592 C17 598 24 611 30 617 C40 626 52 631 66 631 C78 631 90 627 100 620 L127 601 C146 588 167 579 188 579 C226 579 258 594 285 633 C286 633 292 642 292 646 C292 650 291 652 288 656 C283 660 273 669 266 675 C262 677 260 679 257 679 C254 679 251 677 249 675 C243 669 235 656 229 650 C219 641 207 636 193 636 C181 636 170 640 159 647 L132 666 C113 679 92 688 72 688 C33 688 2 673 -26 634 C-27 633 -33 625 -33 621 C-33 617 -32 615 -29 612 C-24 607 -14 598 -7 592 C-3 590 0 588 3 588 C5 588 8 590 10 592 L10 592 Z " />
<glyph glyph-name="Imacron" unicode="&#x12a;" horiz-adv-x="248" d="M7 838 C7 825 12 819 25 819 L220 819 C233 819 238 831 238 838 L238 877 C238 889 233 894 220 894 L25 894 C12 894 7 889 7 877 L7 838 Z M167 720 C167 733 158 742 145 742 L103 742 C89 742 81 734 81 720 L81 22 C81 7 88 0 103 0 L145 0 C159 0 167 7 167 22 L167 720 Z " />
<glyph glyph-name="imacron" unicode="&#x12b;" horiz-adv-x="248" d="M11 617 C11 604 16 598 29 598 L219 598 C232 598 237 610 237 617 L237 656 C237 668 232 673 219 673 L29 673 C16 673 11 668 11 656 L11 617 Z M167 469 C167 481 158 491 144 491 L103 491 C91 491 81 482 81 469 L81 22 C81 7 88 0 104 0 L145 0 C159 0 167 7 167 22 L167 469 Z " />
<glyph glyph-name="Ibreve" unicode="&#x12c;" horiz-adv-x="248" d="M167 720 C167 733 158 742 145 742 L103 742 C89 742 81 734 81 720 L81 22 C81 7 88 0 103 0 L145 0 C159 0 167 7 167 22 L167 720 Z M118 822 C189 821 244 876 244 937 C244 951 231 956 219 956 L190 956 C174 956 170 944 170 932 C170 911 150 892 120 892 C86 892 67 913 67 937 C67 947 59 956 47 956 L14 956 C3 956 -6 948 -6 937 C-6 877 48 822 118 822 L118 822 Z " />
<glyph glyph-name="ibreve" unicode="&#x12d;" horiz-adv-x="248" d="M167 469 C167 481 158 491 144 491 L103 491 C91 491 81 482 81 469 L81 22 C81 7 88 0 104 0 L145 0 C159 0 167 7 167 22 L167 469 Z M128 608 C199 607 254 662 254 723 C254 737 241 742 229 742 L200 742 C184 742 180 730 180 718 C180 697 160 678 130 678 C96 678 77 699 77 723 C77 733 69 742 57 742 L24 742 C13 742 4 734 4 723 C4 663 58 608 128 608 L128 608 Z " />
<glyph glyph-name="Iogonek" unicode="&#x12e;" horiz-adv-x="248" d="M167 720 C167 733 158 742 145 742 L103 742 C89 742 81 734 81 720 L81 22 C81 7 88 0 103 0 L145 0 C159 0 167 7 167 22 L167 720 Z M87 -3 C87 -16 83 -28 63 -41 C29 -63 -6 -83 -6 -136 C-2 -180 34 -214 115 -238 C117 -238 120 -239 122 -239 C140 -239 151 -208 151 -193 C151 -186 147 -181 141 -179 C95 -169 67 -150 67 -129 C67 -107 88 -97 110 -83 C137 -71 159 -42 159 -11 L159 2 C159 15 153 16 143 16 L100 16 C87 16 87 5 87 -3 L87 -3 Z " />
<glyph glyph-name="iogonek" unicode="&#x12f;" horiz-adv-x="248" d="M167 469 C167 482 158 491 145 491 L103 491 C89 491 81 483 81 469 L81 22 C81 7 88 0 103 0 L145 0 C159 0 167 7 167 22 L167 469 Z M61 629 C61 595 89 567 124 567 C160 567 187 595 187 629 C187 664 160 692 124 692 C89 692 61 664 61 629 L61 629 Z M87 -6 C87 -19 83 -31 63 -44 C29 -66 -6 -86 -6 -139 C-2 -183 34 -217 115 -241 C117 -241 120 -242 122 -242 C140 -242 151 -211 151 -196 C151 -189 147 -184 141 -182 C95 -172 67 -153 67 -132 C67 -110 88 -100 110 -86 C137 -74 159 -45 159 -14 L159 -1 C159 12 153 13 143 13 L100 13 C87 13 87 2 87 -6 L87 -6 Z " />
<glyph glyph-name="Idotaccent" unicode="&#x130;" horiz-adv-x="248" d="M167 720 C167 733 158 742 145 742 L103 742 C89 742 81 734 81 720 L81 22 C81 7 88 0 103 0 L145 0 C159 0 167 7 167 22 L167 720 Z M60 886 C60 851 88 823 122 823 C158 823 185 851 185 886 C185 921 158 949 122 949 C88 949 60 921 60 886 L60 886 Z " />
<glyph glyph-name="dotlessi" unicode="&#x131;" horiz-adv-x="248" d="M167 469 C167 481 158 491 144 491 L103 491 C91 491 81 482 81 469 L81 22 C81 7 88 0 104 0 L145 0 C159 0 167 7 167 22 L167 469 Z " />
<glyph glyph-name="IJ" unicode="&#x132;" horiz-adv-x="495" d="M100 -125 C135 -161 184 -182 238 -182 C336 -182 415 -105 415 -5 L415 720 C415 734 407 742 393 742 L351 742 C336 742 329 733 329 721 L329 -5 C329 -56 289 -97 238 -97 C193 -97 171 -76 157 -63 C154 -60 150 -59 146 -59 C143 -59 138 -59 132 -66 L103 -98 C97 -103 95 -107 95 -113 C95 -118 97 -122 100 -125 L100 -125 Z M167 720 C167 733 158 742 145 742 L103 742 C89 742 81 734 81 720 L81 22 C81 7 88 0 103 0 L145 0 C159 0 167 7 167 22 L167 720 Z " />
<glyph glyph-name="ij" unicode="&#x133;" horiz-adv-x="475" d="M237 -200 C322 -198 395 -126 395 -37 L395 466 C395 481 386 491 369 491 L335 491 C319 491 308 483 308 466 L308 -37 C308 -75 279 -114 240 -117 L237 -117 C222 -117 212 -127 212 -143 L212 -175 C212 -190 222 -200 237 -200 L237 -200 Z M289 629 C289 595 317 567 352 567 C388 567 415 595 415 629 C415 664 388 692 352 692 C317 692 289 664 289 629 L289 629 Z M168 469 C168 482 159 491 146 491 L104 491 C90 491 82 483 82 469 L82 22 C82 7 89 0 104 0 L146 0 C160 0 168 7 168 22 L168 469 Z M62 629 C62 595 90 567 125 567 C161 567 188 595 188 629 C188 664 161 692 125 692 C90 692 62 664 62 629 L62 629 Z " />
<glyph glyph-name="Jcircumflex" unicode="&#x134;" horiz-adv-x="400" d="M7 45 C42 9 91 -12 145 -12 C243 -12 322 65 322 165 L322 720 C322 734 314 742 300 742 L258 742 C243 742 236 733 236 721 L236 165 C236 114 196 73 145 73 C100 73 78 94 64 107 C61 110 57 111 53 111 C50 111 45 111 39 104 L10 72 C4 67 2 63 2 57 C2 52 4 48 7 45 L7 45 Z M288 961 C286 963 281 966 277 966 C273 966 268 963 266 961 L135 830 C133 827 128 822 128 817 C128 812 132 808 135 805 L158 784 C162 781 166 777 170 777 C175 777 178 778 182 782 L277 878 L372 782 C376 778 380 777 384 777 C388 777 393 781 396 784 L419 805 C422 808 426 812 426 817 C426 822 422 827 419 830 L288 961 Z " />
<glyph glyph-name="jcircumflex" unicode="&#x135;" horiz-adv-x="248" d="M9 -200 C94 -198 167 -126 167 -37 L167 466 C167 481 158 491 141 491 L107 491 C91 491 80 483 80 466 L80 -37 C80 -75 51 -114 12 -117 L9 -117 C-6 -117 -16 -127 -16 -143 L-16 -175 C-16 -190 -6 -200 9 -200 L9 -200 Z M136 756 C134 758 129 761 125 761 C121 761 116 758 114 756 L-17 625 C-19 622 -24 617 -24 612 C-24 607 -20 603 -17 600 L6 579 C10 576 14 572 18 572 C23 572 26 573 30 577 L125 673 L220 577 C224 573 228 572 232 572 C236 572 241 576 244 579 L267 600 C270 603 274 607 274 612 C274 617 270 622 267 625 L136 756 Z " />
<glyph glyph-name="Kcommaaccent" unicode="&#x136;" horiz-adv-x="733" d="M167 227 L300 365 C394 252 489 139 583 26 C593 12 603 0 614 0 L700 0 C707 0 710 6 710 9 C710 11 709 12 703 20 C593 159 474 291 359 427 L639 722 C642 725 648 731 648 736 C648 740 645 742 635 742 L549 742 C541 742 533 737 525 727 L167 348 L167 720 C167 733 157 742 145 742 L103 742 C88 742 81 732 81 720 L81 22 C81 7 88 0 103 0 L144 0 C160 0 167 7 167 22 L167 227 Z M284 -151 C284 -183 311 -212 341 -217 L341 -221 C341 -245 323 -249 323 -264 C323 -268 326 -275 330 -279 L346 -291 C350 -294 352 -295 357 -295 C375 -295 418 -250 418 -156 C418 -113 389 -84 351 -84 C314 -84 284 -113 284 -151 L284 -151 Z " />
<glyph glyph-name="kcommaaccent" unicode="&#x137;" horiz-adv-x="523" d="M81 22 C81 7 89 0 103 0 L144 0 C159 0 167 7 167 22 L167 180 L231 246 L416 16 C424 5 435 0 444 0 L513 0 C524 0 530 5 530 11 C530 14 526 22 521 27 C521 27 521 27 291 307 L444 463 C450 471 452 472 452 480 C452 486 447 491 437 491 L367 491 C354 491 348 485 340 477 L167 296 L167 720 C167 733 156 742 144 742 L103 742 C89 742 81 732 81 720 L81 22 Z M214 -151 C214 -183 240 -212 271 -217 L271 -221 C271 -234 265 -242 260 -247 L260 -246 L260 -247 C256 -253 252 -257 252 -264 C252 -268 255 -275 260 -279 L275 -291 C279 -294 282 -295 287 -295 C304 -295 347 -250 347 -156 C347 -113 319 -84 280 -84 C244 -84 214 -113 214 -151 L214 -151 Z " />
<glyph glyph-name="kgreenlandic" unicode="&#x138;" horiz-adv-x="523" d="M81 22 C81 7 89 0 103 0 L144 0 C159 0 167 7 167 22 L167 180 L231 246 L416 16 C424 5 435 0 444 0 L513 0 C524 0 530 5 530 11 C530 14 526 22 521 27 C521 27 521 27 291 307 L444 463 C450 471 452 472 452 480 C452 486 447 491 437 491 L367 491 C354 491 348 485 340 477 L167 296 L167 469 C167 482 156 491 144 491 L103 491 C89 491 81 481 81 469 L81 22 Z " />
<glyph glyph-name="Lacute" unicode="&#x139;" horiz-adv-x="574" d="M167 85 L167 720 C167 734 158 742 145 742 L104 742 C89 742 81 732 81 720 L81 22 C81 7 88 0 103 0 L528 0 C541 0 550 10 550 22 L550 62 C550 77 540 85 528 85 L167 85 Z M215 928 C223 945 225 957 207 957 L167 957 C154 957 146 951 140 936 L96 834 C89 819 87 802 107 802 L143 802 C155 802 163 808 170 823 L215 928 Z " />
<glyph glyph-name="lacute" unicode="&#x13a;" horiz-adv-x="248" d="M168 720 C168 733 159 742 146 742 L104 742 C90 742 82 734 82 720 L82 22 C82 7 89 0 104 0 L146 0 C160 0 168 7 168 22 L168 720 Z M215 929 C220 941 221 946 221 949 C221 957 215 959 206 959 L166 959 C154 959 147 952 139 938 L95 835 C91 825 91 822 90 817 C90 808 93 803 106 803 L143 803 C155 803 163 810 169 824 L215 929 Z " />
<glyph glyph-name="Lcommaaccent" unicode="&#x13b;" horiz-adv-x="574" d="M167 85 L167 720 C167 734 158 742 145 742 L104 742 C89 742 81 732 81 720 L81 22 C81 7 88 0 103 0 L528 0 C541 0 550 10 550 22 L550 62 C550 77 540 85 528 85 L167 85 Z M242 -151 C242 -183 269 -212 299 -217 L299 -221 C299 -245 281 -249 281 -264 C281 -268 284 -275 288 -279 L304 -291 C308 -294 310 -295 315 -295 C333 -295 376 -250 376 -156 C376 -113 347 -84 309 -84 C272 -84 242 -113 242 -151 L242 -151 Z " />
<glyph glyph-name="lcommaaccent" unicode="&#x13c;" horiz-adv-x="248" d="M167 720 C167 733 158 742 145 742 L103 742 C89 742 81 734 81 720 L81 22 C81 7 88 0 103 0 L145 0 C159 0 167 7 167 22 L167 720 Z M64 -151 C64 -183 91 -212 121 -217 L121 -221 C121 -234 116 -242 111 -247 L111 -246 L110 -247 C106 -253 103 -257 103 -264 C103 -268 106 -275 110 -279 L126 -291 C130 -294 132 -295 137 -295 C155 -295 198 -250 198 -156 C198 -113 169 -84 131 -84 C94 -84 64 -113 64 -151 L64 -151 Z " />
<glyph glyph-name="Lcaron" unicode="&#x13d;" horiz-adv-x="574" d="M167 85 L167 720 C167 734 158 742 145 742 L104 742 C89 742 81 732 81 720 L81 22 C81 7 88 0 103 0 L528 0 C541 0 550 10 550 22 L550 62 C550 77 540 85 528 85 L167 85 Z M320 691 C320 659 346 630 377 625 L377 621 C377 595 358 590 358 578 C358 574 361 567 366 563 L381 551 C385 548 388 547 393 547 C410 547 453 592 453 686 C453 729 425 758 386 758 C350 758 320 729 320 691 L320 691 Z " />
<glyph glyph-name="lcaron" unicode="&#x13e;" horiz-adv-x="248" d="M167 720 C167 733 158 742 145 742 L103 742 C89 742 81 734 81 720 L81 22 C81 7 88 0 103 0 L145 0 C159 0 167 7 167 22 L167 720 Z M187 702 C187 673 211 647 238 642 L238 639 C238 627 234 619 228 613 C225 609 222 606 222 601 C222 597 224 591 228 587 L242 576 C246 574 248 573 253 573 C268 573 307 613 307 697 C307 736 281 762 247 762 C214 762 187 736 187 702 L187 702 Z " />
<glyph glyph-name="Ldot" unicode="&#x13f;" horiz-adv-x="574" d="M167 85 L167 720 C167 734 158 742 145 742 L104 742 C89 742 81 732 81 720 L81 22 C81 7 88 0 103 0 L528 0 C541 0 550 10 550 22 L550 62 C550 77 540 85 528 85 L167 85 Z M330 368 C330 334 358 306 392 306 C428 306 455 334 455 368 C455 403 428 431 392 431 C358 431 330 403 330 368 L330 368 Z " />
<glyph glyph-name="ldot" unicode="&#x140;" horiz-adv-x="292" d="M167 720 C167 733 158 742 145 742 L103 742 C89 742 81 734 81 720 L81 22 C81 7 88 0 103 0 L145 0 C159 0 167 7 167 22 L167 720 Z M213 321 C213 287 241 259 276 259 C312 259 339 287 339 321 C339 356 312 384 276 384 C241 384 213 356 213 321 L213 321 Z " />
<glyph glyph-name="Lslash" unicode="&#x141;" horiz-adv-x="579" d="M164 83 L164 357 L310 421 C319 425 326 435 326 447 L325 485 C325 494 320 499 315 499 C313 499 311 498 309 497 L164 435 L164 720 C164 734 153 742 141 742 L101 742 C87 742 78 732 78 720 L78 401 L5 370 C-8 365 -12 355 -12 344 L-13 306 C-12 296 -9 291 -2 291 C0 291 3 291 6 293 L78 323 L78 22 C78 7 86 0 100 0 L537 0 C550 0 559 10 559 22 L559 60 C559 74 549 83 537 83 L164 83 Z " />
<glyph glyph-name="lslash" unicode="&#x142;" horiz-adv-x="248" d="M167 720 C167 733 158 742 145 742 L103 742 C89 742 81 734 81 720 L81 424 L-43 379 C-52 376 -55 370 -55 364 C-55 362 -55 360 -54 357 L-42 324 C-39 316 -34 312 -28 312 C-25 312 -23 312 -20 313 L81 350 L81 22 C81 7 88 0 103 0 L145 0 C159 0 167 7 167 22 L167 382 L292 428 C299 430 302 436 302 443 C302 445 302 447 301 450 L289 483 C286 490 280 494 275 494 C273 494 271 493 269 493 L167 456 L167 720 Z " />
<glyph glyph-name="Nacute" unicode="&#x143;" horiz-adv-x="791" d="M689 0 C705 0 713 8 713 22 L713 720 C713 733 701 742 689 742 L648 742 C636 742 628 735 626 723 L626 148 L177 732 C172 739 166 742 158 742 L103 742 C90 742 81 732 81 719 L81 22 C81 7 88 0 103 0 L144 0 C160 0 167 7 167 22 L167 608 L623 9 C628 3 635 0 642 0 L689 0 Z M487 929 C495 946 497 958 479 958 L439 958 C426 958 418 952 412 937 L368 835 C361 820 359 803 379 803 L415 803 C427 803 435 809 442 824 L487 929 Z " />
<glyph glyph-name="nacute" unicode="&#x144;" horiz-adv-x="591" d="M164 467 C163 481 154 489 141 489 L103 489 C91 489 81 481 81 467 L81 22 C81 8 89 0 104 0 L145 0 C159 0 167 7 167 22 L167 308 C167 362 247 414 313 414 C389 414 436 358 436 291 L436 24 C436 8 440 0 458 0 L499 0 C512 0 523 9 523 25 L523 291 C523 407 450 500 335 500 C275 500 198 460 167 422 L164 467 Z M402 713 C410 730 412 742 394 742 L354 742 C341 742 333 736 327 721 L283 619 C276 604 274 587 294 587 L330 587 C342 587 350 593 357 608 L402 713 Z " />
<glyph glyph-name="Ncommaaccent" unicode="&#x145;" horiz-adv-x="791" d="M689 0 C705 0 713 8 713 22 L713 720 C713 733 701 742 689 742 L648 742 C636 742 628 735 626 723 L626 148 L177 732 C172 739 166 742 158 742 L103 742 C90 742 81 732 81 719 L81 22 C81 7 88 0 103 0 L144 0 C160 0 167 7 167 22 L167 608 L623 9 C628 3 635 0 642 0 L689 0 Z M328 -151 C328 -183 355 -212 385 -217 L385 -221 C385 -245 367 -249 367 -264 C367 -268 370 -275 374 -279 L390 -291 C394 -294 396 -295 401 -295 C419 -295 462 -250 462 -156 C462 -113 433 -84 395 -84 C358 -84 328 -113 328 -151 L328 -151 Z " />
<glyph glyph-name="ncommaaccent" unicode="&#x146;" horiz-adv-x="591" d="M164 467 C163 481 154 489 141 489 L103 489 C91 489 81 481 81 467 L81 22 C81 8 89 0 104 0 L145 0 C159 0 167 7 167 22 L167 308 C167 362 247 414 313 414 C389 414 436 358 436 291 L436 24 C436 8 440 0 458 0 L499 0 C512 0 523 9 523 25 L523 291 C523 407 450 500 335 500 C275 500 198 460 167 422 L164 467 Z M222 -151 C222 -183 249 -212 279 -217 L279 -221 C279 -245 261 -249 261 -264 C261 -268 264 -275 268 -279 L284 -291 C288 -294 290 -295 295 -295 C313 -295 356 -250 356 -156 C356 -113 327 -84 289 -84 C252 -84 222 -113 222 -151 L222 -151 Z " />
<glyph glyph-name="Ncaron" unicode="&#x147;" horiz-adv-x="791" d="M689 0 C705 0 713 8 713 22 L713 720 C713 733 701 742 689 742 L648 742 C636 742 628 735 626 723 L626 148 L177 732 C172 739 166 742 158 742 L103 742 C90 742 81 732 81 719 L81 22 C81 7 88 0 103 0 L144 0 C160 0 167 7 167 22 L167 608 L623 9 C628 3 635 0 642 0 L689 0 Z M555 911 C557 914 561 919 561 924 C561 929 558 933 555 936 L531 957 C528 960 524 964 519 964 C516 964 511 963 508 959 L413 863 L317 959 C314 963 311 964 306 964 C302 964 297 960 293 957 L271 936 C267 933 264 929 264 924 C264 919 268 914 271 911 L402 780 C404 778 408 775 413 775 C416 775 421 778 424 780 L555 911 Z " />
<glyph glyph-name="ncaron" unicode="&#x148;" horiz-adv-x="591" d="M164 467 C163 481 154 489 141 489 L103 489 C91 489 81 481 81 467 L81 22 C81 8 89 0 104 0 L145 0 C159 0 167 7 167 22 L167 308 C167 362 247 414 313 414 C389 414 436 358 436 291 L436 24 C436 8 440 0 458 0 L499 0 C512 0 523 9 523 25 L523 291 C523 407 450 500 335 500 C275 500 198 460 167 422 L164 467 Z M446 710 C448 713 452 718 452 723 C452 728 449 732 446 735 L422 756 C419 759 415 763 410 763 C407 763 402 762 399 758 L304 662 L208 758 C205 762 202 763 197 763 C193 763 188 759 184 756 L162 735 C158 732 155 728 155 723 C155 718 159 713 162 710 L293 579 C295 577 299 574 304 574 C307 574 312 577 315 579 L446 710 Z " />
<glyph glyph-name="napostrophe" unicode="&#x149;" horiz-adv-x="592" d="M164 467 C163 481 154 489 141 489 L103 489 C91 489 81 481 81 467 L81 22 C81 8 89 0 104 0 L145 0 C159 0 167 7 167 22 L167 308 C167 362 247 414 313 414 C389 414 436 358 436 291 L436 24 C436 8 440 0 458 0 L499 0 C512 0 523 9 523 25 L523 291 C523 407 450 500 335 500 C275 500 198 460 167 422 L164 467 Z M-37 638 C-37 606 -10 577 20 572 L20 568 C20 544 2 540 2 525 C2 521 5 514 9 510 L25 498 C29 495 31 494 36 494 C54 494 97 539 97 633 C97 676 68 705 30 705 C-7 705 -37 676 -37 638 L-37 638 Z " />
<glyph glyph-name="Eng" unicode="&#x14a;" horiz-adv-x="791" d="M396 -221 C427 -263 479 -282 534 -282 C632 -282 711 -205 711 -106 L711 726 C711 736 702 742 693 742 L641 742 C633 742 627 738 625 730 L625 144 L181 734 C177 740 172 742 165 742 L97 742 C87 742 81 735 81 725 L81 16 C81 5 86 0 97 0 L148 0 C160 0 166 5 166 16 L166 618 L625 2 L625 -106 C625 -157 585 -198 534 -198 C479 -198 460 -160 446 -160 C444 -160 441 -161 438 -162 L432 -166 L399 -199 C395 -204 392 -209 392 -214 C392 -217 393 -218 394 -219 L396 -221 Z " />
<glyph glyph-name="eng" unicode="&#x14b;" horiz-adv-x="581" d="M164 467 C163 481 154 489 141 489 L103 489 C91 489 81 481 81 467 L81 22 C81 8 89 0 104 0 L145 0 C159 0 167 7 167 22 L167 296 C172 362 259 414 323 414 C389 414 436 358 436 291 L436 -72 C436 -110 408 -158 369 -160 L365 -160 C353 -160 344 -168 344 -181 L344 -215 C344 -227 352 -235 364 -235 C450 -235 523 -161 523 -72 L523 291 C523 407 450 500 335 500 C275 500 198 460 167 422 L164 467 Z " />
<glyph glyph-name="Omacron" unicode="&#x14c;" horiz-adv-x="853" d="M426 752 C215 752 44 581 44 370 C44 159 214 -11 425 -11 C637 -11 808 159 808 369 C808 582 636 752 426 752 L426 752 Z M131 371 C131 533 262 665 426 665 C588 665 720 533 720 371 C720 207 588 75 426 75 C262 75 131 207 131 371 L131 371 Z M233 821 C233 808 238 802 251 802 L601 802 C614 802 619 814 619 821 L619 860 C619 872 614 877 601 877 L251 877 C238 877 233 872 233 860 L233 821 Z " />
<glyph glyph-name="omacron" unicode="&#x14d;" horiz-adv-x="610" d="M44 244 C44 102 158 -12 300 -12 C442 -12 557 102 557 244 C557 386 442 501 300 501 C158 501 44 386 44 244 L44 244 Z M125 244 C125 340 204 421 300 421 C396 421 476 340 476 244 C476 148 396 68 300 68 C204 68 125 148 125 244 L125 244 Z M103 617 C103 604 108 598 121 598 L471 598 C484 598 489 610 489 617 L489 656 C489 668 484 673 471 673 L121 673 C108 673 103 668 103 656 L103 617 Z " />
<glyph glyph-name="Obreve" unicode="&#x14e;" horiz-adv-x="853" d="M426 752 C215 752 44 581 44 370 C44 159 214 -11 425 -11 C637 -11 808 159 808 369 C808 582 636 752 426 752 L426 752 Z M131 371 C131 533 262 665 426 665 C588 665 720 533 720 371 C720 207 588 75 426 75 C262 75 131 207 131 371 L131 371 Z M420 794 C491 793 546 848 546 909 C546 923 533 928 521 928 L492 928 C476 928 472 916 472 904 C472 883 452 864 422 864 C388 864 369 885 369 909 C369 919 361 928 349 928 L316 928 C305 928 296 920 296 909 C296 849 350 794 420 794 L420 794 Z " />
<glyph glyph-name="obreve" unicode="&#x14f;" horiz-adv-x="610" d="M44 244 C44 102 158 -12 300 -12 C442 -12 557 102 557 244 C557 386 442 501 300 501 C158 501 44 386 44 244 L44 244 Z M125 244 C125 340 204 421 300 421 C396 421 476 340 476 244 C476 148 396 68 300 68 C204 68 125 148 125 244 L125 244 Z M296 608 C367 607 422 662 422 723 C422 737 409 742 397 742 L368 742 C352 742 348 730 348 718 C348 697 328 678 298 678 C264 678 245 699 245 723 C245 733 237 742 225 742 L192 742 C181 742 172 734 172 723 C172 663 226 608 296 608 L296 608 Z " />
<glyph glyph-name="Ohungarumlaut" unicode="&#x150;" horiz-adv-x="853" d="M426 752 C215 752 44 581 44 370 C44 159 214 -11 425 -11 C637 -11 808 159 808 369 C808 582 636 752 426 752 L426 752 Z M131 371 C131 533 262 665 426 665 C588 665 720 533 720 371 C720 207 588 75 426 75 C262 75 131 207 131 371 L131 371 Z M431 930 C436 941 438 946 438 950 C438 958 431 959 423 959 L383 959 C370 959 364 953 356 938 L312 836 C308 826 307 822 306 818 C306 808 309 804 323 804 L359 804 C371 804 379 810 386 825 L431 930 Z M596 930 C601 941 603 946 603 950 C603 958 596 959 588 959 L548 959 C535 959 529 953 521 938 L477 836 C473 826 472 822 471 818 C471 808 474 804 488 804 L524 804 C536 804 544 810 551 825 L596 930 Z " />
<glyph glyph-name="ohungarumlaut" unicode="&#x151;" horiz-adv-x="610" d="M44 244 C44 102 158 -12 300 -12 C442 -12 557 102 557 244 C557 386 442 501 300 501 C158 501 44 386 44 244 L44 244 Z M125 244 C125 340 204 421 300 421 C396 421 476 340 476 244 C476 148 396 68 300 68 C204 68 125 148 125 244 L125 244 Z M312 713 C317 724 319 729 319 733 C319 741 312 742 304 742 L264 742 C251 742 245 736 237 721 L193 619 C189 609 188 605 187 601 C187 591 190 587 204 587 L240 587 C252 587 260 593 267 608 L312 713 Z M477 713 C482 724 484 729 484 733 C484 741 477 742 469 742 L429 742 C416 742 410 736 402 721 L358 619 C354 609 353 605 352 601 C352 591 355 587 369 587 L405 587 C417 587 425 593 432 608 L477 713 Z " />
<glyph glyph-name="OE" unicode="&#x152;" horiz-adv-x="1253" d="M416 753 C205 753 34 582 34 371 C34 160 204 -10 415 -10 C627 -10 798 160 798 370 C798 583 626 753 416 753 L416 753 Z M121 372 C121 534 252 666 416 666 C578 666 710 534 710 372 C710 208 578 76 416 76 C252 76 121 208 121 372 L121 372 Z M737 740 C723 740 715 732 715 717 L715 19 C715 4 723 -2 737 -2 L1222 -2 C1236 -2 1244 6 1244 20 L1244 61 C1244 77 1236 85 1221 85 L801 85 L801 345 L1132 345 C1146 345 1154 356 1154 368 L1154 409 C1154 425 1144 432 1132 432 L801 432 L801 653 L1217 653 C1232 653 1240 664 1240 676 L1240 717 C1240 733 1232 740 1218 740 L737 740 Z " />
<glyph glyph-name="oe" unicode="&#x153;" horiz-adv-x="1022" d="M44 244 C44 102 158 -12 300 -12 C396 -12 480 40 524 118 C568 41 652 -10 748 -10 C813 -10 870 19 918 59 C925 65 929 68 929 73 C929 77 927 81 923 88 L899 116 C895 120 891 122 887 122 C881 122 872 113 865 108 L859 104 C831 81 786 66 743 66 C670 66 594 122 577 211 L916 211 C956 211 987 210 987 249 L987 258 C979 403 864 495 739 495 C647 495 565 449 522 372 C478 449 395 501 300 501 C158 501 44 386 44 244 L44 244 Z M125 244 C125 340 204 421 300 421 C396 421 476 340 476 244 C476 148 396 68 300 68 C204 68 125 148 125 244 L125 244 Z M577 275 C595 360 666 420 738 420 C818 420 890 365 910 275 L577 275 Z " />
<glyph glyph-name="Racute" unicode="&#x154;" horiz-adv-x="671" d="M541 507 C541 426 477 357 393 357 L167 357 L167 657 L392 657 C476 657 541 586 541 507 L541 507 Z M81 22 C81 7 89 0 103 0 L145 0 C160 0 167 7 167 22 L167 272 L342 272 C355 272 397 272 404 273 L525 19 C531 7 538 0 551 0 L606 0 C618 0 624 5 624 13 C624 15 623 18 622 22 L490 293 C571 330 627 412 627 506 C627 636 523 742 392 742 L103 742 C89 742 81 734 81 718 L81 22 Z M404 929 C412 946 414 958 396 958 L356 958 C343 958 335 952 329 937 L285 835 C278 820 276 803 296 803 L332 803 C344 803 352 809 359 824 L404 929 Z " />
<glyph glyph-name="racute" unicode="&#x155;" horiz-adv-x="381" d="M287 712 C295 729 297 741 279 741 L239 741 C226 741 218 735 212 720 L168 618 C161 603 159 586 179 586 L215 586 C227 586 235 592 242 607 L287 712 Z M162 469 C161 481 153 491 139 491 L103 491 C91 491 81 482 81 469 L81 22 C81 7 89 0 104 0 L145 0 C159 0 167 7 167 22 L167 282 C167 343 208 413 268 413 C286 412 309 405 322 397 C324 396 328 392 334 392 C338 392 343 395 347 402 L372 449 C373 452 374 454 374 457 C374 469 324 499 280 499 C218 499 184 463 167 432 L162 469 Z " />
<glyph glyph-name="Rcommaaccent" unicode="&#x156;" horiz-adv-x="687" d="M541 507 C541 426 477 357 393 357 L167 357 L167 657 L392 657 C476 657 541 586 541 507 L541 507 Z M81 22 C81 7 89 0 103 0 L145 0 C160 0 167 7 167 22 L167 272 L342 272 C355 272 397 272 404 273 L525 19 C531 7 538 0 551 0 L606 0 C618 0 624 5 624 13 C624 15 623 18 622 22 L490 293 C571 330 627 412 627 506 C627 636 523 742 392 742 L103 742 C89 742 81 734 81 718 L81 22 Z M278 -151 C278 -183 305 -212 335 -217 L335 -221 C335 -245 317 -249 317 -264 C317 -268 320 -275 324 -279 L340 -291 C344 -294 346 -295 351 -295 C369 -295 412 -250 412 -156 C412 -113 383 -84 345 -84 C308 -84 278 -113 278 -151 L278 -151 Z " />
<glyph glyph-name="rcommaaccent" unicode="&#x157;" horiz-adv-x="381" d="M162 469 C161 481 153 491 139 491 L103 491 C91 491 81 482 81 469 L81 22 C81 7 89 0 104 0 L145 0 C159 0 167 7 167 22 L167 282 C167 343 208 413 268 413 C286 412 309 405 322 397 C324 396 328 392 334 392 C338 392 343 395 347 402 L372 449 C373 452 374 454 374 457 C374 469 324 499 280 499 C218 499 184 463 167 432 L162 469 Z M65 -151 C65 -183 92 -212 122 -217 L122 -221 C122 -245 104 -249 104 -264 C104 -268 107 -275 111 -279 L127 -291 C131 -294 133 -295 138 -295 C156 -295 199 -250 199 -156 C199 -113 170 -84 132 -84 C95 -84 65 -113 65 -151 L65 -151 Z " />
<glyph glyph-name="Rcaron" unicode="&#x158;" horiz-adv-x="671" d="M541 507 C541 426 477 357 393 357 L167 357 L167 657 L392 657 C476 657 541 586 541 507 L541 507 Z M81 22 C81 7 89 0 103 0 L145 0 C160 0 167 7 167 22 L167 272 L342 272 C355 272 397 272 404 273 L525 19 C531 7 538 0 551 0 L606 0 C618 0 624 5 624 13 C624 15 623 18 622 22 L490 293 C571 330 627 412 627 506 C627 636 523 742 392 742 L103 742 C89 742 81 734 81 718 L81 22 Z M479 921 C481 924 485 929 485 934 C485 939 482 943 479 946 L455 967 C452 970 448 974 443 974 C440 974 435 973 432 969 L337 873 L241 969 C238 973 235 974 230 974 C226 974 221 970 217 967 L195 946 C191 943 188 939 188 934 C188 929 192 924 195 921 L326 790 C328 788 332 785 337 785 C340 785 345 788 348 790 L479 921 Z " />
<glyph glyph-name="rcaron" unicode="&#x159;" horiz-adv-x="381" d="M162 469 C161 481 153 491 139 491 L103 491 C91 491 81 482 81 469 L81 22 C81 7 89 0 104 0 L145 0 C159 0 167 7 167 22 L167 282 C167 343 208 413 268 413 C286 412 309 405 322 397 C324 396 328 392 334 392 C338 392 343 395 347 402 L372 449 C373 452 374 454 374 457 C374 469 324 499 280 499 C218 499 184 463 167 432 L162 469 Z M365 710 C367 713 371 718 371 723 C371 728 368 732 365 735 L341 756 C338 759 334 763 329 763 C326 763 321 762 318 758 L223 662 L127 758 C124 762 121 763 116 763 C112 763 107 759 103 756 L81 735 C77 732 74 728 74 723 C74 718 78 713 81 710 L212 579 C214 577 218 574 223 574 C226 574 231 577 234 579 L365 710 Z " />
<glyph glyph-name="Sacute" unicode="&#x15a;" horiz-adv-x="641" d="M501 588 C507 582 513 578 519 578 C523 578 528 581 532 585 L562 614 C567 619 570 624 570 630 C570 638 559 649 551 658 C494 713 404 753 324 753 C168 753 67 668 67 546 C67 445 149 391 313 349 C417 322 515 298 515 216 C515 119 407 74 324 74 C276 74 183 106 124 167 C121 170 111 182 102 182 C98 182 91 180 87 177 L55 150 C49 145 46 140 46 134 C46 129 49 123 54 116 C118 33 218 -10 321 -10 C477 -10 601 79 601 222 C601 362 456 397 337 430 C251 453 159 481 159 549 C159 607 207 669 320 669 C404 669 469 617 501 588 L501 588 Z M413 929 C421 946 423 958 405 958 L365 958 C352 958 344 952 338 937 L294 835 C287 820 285 803 305 803 L341 803 C353 803 361 809 368 824 L413 929 Z " />
<glyph glyph-name="sacute" unicode="&#x15b;" horiz-adv-x="425" d="M39 100 C59 28 137 -9 209 -9 C312 -9 387 46 387 135 C387 215 322 267 216 294 C178 304 134 321 134 362 C134 394 167 425 215 425 C251 425 277 402 296 376 C305 364 312 352 323 360 L364 389 C371 394 368 401 365 406 C331 466 288 503 214 503 C119 503 54 444 54 362 C54 285 112 236 200 213 C255 198 303 179 303 135 C303 95 254 70 209 70 C183 70 132 84 117 125 C114 135 105 145 94 140 L44 120 C36 117 36 106 39 100 L39 100 Z M305 712 C313 729 315 741 297 741 L257 741 C244 741 236 735 230 720 L186 618 C179 603 177 586 197 586 L233 586 C245 586 253 592 260 607 L305 712 Z " />
<glyph glyph-name="Scircumflex" unicode="&#x15c;" horiz-adv-x="641" d="M501 588 C507 582 513 578 519 578 C523 578 528 581 532 585 L562 614 C567 619 570 624 570 630 C570 638 559 649 551 658 C494 713 404 753 324 753 C168 753 67 668 67 546 C67 445 149 391 313 349 C417 322 515 298 515 216 C515 119 407 74 324 74 C276 74 183 106 124 167 C121 170 111 182 102 182 C98 182 91 180 87 177 L55 150 C49 145 46 140 46 134 C46 129 49 123 54 116 C118 33 218 -10 321 -10 C477 -10 601 79 601 222 C601 362 456 397 337 430 C251 453 159 481 159 549 C159 607 207 669 320 669 C404 669 469 617 501 588 L501 588 Z M327 973 C325 975 320 978 316 978 C312 978 307 975 305 973 L174 842 C172 839 167 834 167 829 C167 824 171 820 174 817 L197 796 C201 793 205 789 209 789 C214 789 217 790 221 794 L316 890 L411 794 C415 790 419 789 423 789 C427 789 432 793 435 796 L458 817 C461 820 465 824 465 829 C465 834 461 839 458 842 L327 973 Z " />
<glyph glyph-name="scircumflex" unicode="&#x15d;" horiz-adv-x="425" d="M39 100 C59 28 137 -9 209 -9 C312 -9 387 46 387 135 C387 215 322 267 216 294 C178 304 134 321 134 362 C134 394 167 425 215 425 C251 425 277 402 296 376 C305 364 312 352 323 360 L364 389 C371 394 368 401 365 406 C331 466 288 503 214 503 C119 503 54 444 54 362 C54 285 112 236 200 213 C255 198 303 179 303 135 C303 95 254 70 209 70 C183 70 132 84 117 125 C114 135 105 145 94 140 L44 120 C36 117 36 106 39 100 L39 100 Z M233 760 C231 762 226 765 222 765 C218 765 213 762 211 760 L80 629 C78 626 73 621 73 616 C73 611 77 607 80 604 L103 583 C107 580 111 576 115 576 C120 576 123 577 127 581 L222 677 L317 581 C321 577 325 576 329 576 C333 576 338 580 341 583 L364 604 C367 607 371 611 371 616 C371 621 367 626 364 629 L233 760 Z " />
<glyph glyph-name="Scedilla" unicode="&#x15e;" horiz-adv-x="641" d="M501 588 C507 582 513 578 519 578 C523 578 528 581 532 585 L562 614 C567 619 570 624 570 630 C570 638 559 649 551 658 C494 713 404 753 324 753 C168 753 67 668 67 546 C67 445 149 391 313 349 C417 322 515 298 515 216 C515 119 407 74 324 74 C276 74 183 106 124 167 C121 170 111 182 102 182 C98 182 91 180 87 177 L55 150 C49 145 46 140 46 134 C46 129 49 123 54 116 C118 33 218 -10 321 -10 C477 -10 601 79 601 222 C601 362 456 397 337 430 C251 453 159 481 159 549 C159 607 207 669 320 669 C404 669 469 617 501 588 L501 588 Z M350 -14 C350 -6 349 4 336 4 L293 4 C283 4 278 4 278 -9 L278 -26 C278 -58 295 -82 326 -98 C350 -111 369 -122 369 -145 C369 -165 341 -185 296 -194 C290 -196 286 -201 286 -208 C286 -224 296 -254 315 -254 C317 -254 320 -254 322 -253 C402 -230 439 -195 442 -152 C442 -100 410 -78 377 -59 L373 -56 C351 -40 350 -28 350 -14 L350 -14 Z " />
<glyph glyph-name="scedilla" unicode="&#x15f;" horiz-adv-x="425" d="M39 100 C59 28 137 -9 209 -9 C312 -9 387 46 387 135 C387 215 322 267 216 294 C178 304 134 321 134 362 C134 394 167 425 215 425 C251 425 277 402 296 376 C305 364 312 352 323 360 L364 389 C371 394 368 401 365 406 C331 466 288 503 214 503 C119 503 54 444 54 362 C54 285 112 236 200 213 C255 198 303 179 303 135 C303 95 254 70 209 70 C183 70 132 84 117 125 C114 135 105 145 94 140 L44 120 C36 117 36 106 39 100 L39 100 Z M238 -3 C238 5 237 15 224 15 L181 15 C171 15 166 15 166 2 L166 -15 C166 -47 183 -71 214 -87 C238 -100 257 -111 257 -134 C257 -154 229 -174 184 -183 C178 -185 174 -190 174 -197 C174 -213 184 -243 203 -243 C205 -243 208 -243 210 -242 C290 -219 327 -184 330 -141 C330 -89 298 -67 265 -48 L261 -45 C239 -29 238 -17 238 -3 L238 -3 Z " />
<glyph glyph-name="Scaron" unicode="&#x160;" horiz-adv-x="641" d="M501 588 C507 582 513 578 519 578 C523 578 528 581 532 585 L562 614 C567 619 570 624 570 630 C570 638 559 649 551 658 C494 713 404 753 324 753 C168 753 67 668 67 546 C67 445 149 391 313 349 C417 322 515 298 515 216 C515 119 407 74 324 74 C276 74 183 106 124 167 C121 170 111 182 102 182 C98 182 91 180 87 177 L55 150 C49 145 46 140 46 134 C46 129 49 123 54 116 C118 33 218 -10 321 -10 C477 -10 601 79 601 222 C601 362 456 397 337 430 C251 453 159 481 159 549 C159 607 207 669 320 669 C404 669 469 617 501 588 L501 588 Z M449 925 C451 928 455 933 455 938 C455 943 452 947 449 950 L425 971 C422 974 418 978 413 978 C410 978 405 977 402 973 L307 877 L211 973 C208 977 205 978 200 978 C196 978 191 974 187 971 L165 950 C161 947 158 943 158 938 C158 933 162 928 165 925 L296 794 C298 792 302 789 307 789 C310 789 315 792 318 794 L449 925 Z " />
<glyph glyph-name="scaron" unicode="&#x161;" horiz-adv-x="425" d="M39 100 C59 28 137 -9 209 -9 C312 -9 387 46 387 135 C387 215 322 267 216 294 C178 304 134 321 134 362 C134 394 167 425 215 425 C251 425 277 402 296 376 C305 364 312 352 323 360 L364 389 C371 394 368 401 365 406 C331 466 288 503 214 503 C119 503 54 444 54 362 C54 285 112 236 200 213 C255 198 303 179 303 135 C303 95 254 70 209 70 C183 70 132 84 117 125 C114 135 105 145 94 140 L44 120 C36 117 36 106 39 100 L39 100 Z M355 710 C357 713 361 718 361 723 C361 728 358 732 355 735 L331 756 C328 759 324 763 319 763 C316 763 311 762 308 758 L213 662 L117 758 C114 762 111 763 106 763 C102 763 97 759 93 756 L71 735 C67 732 64 728 64 723 C64 718 68 713 71 710 L202 579 C204 577 208 574 213 574 C216 574 221 577 224 579 L355 710 Z " />
<glyph glyph-name="Tcommaaccent" unicode="&#x162;" horiz-adv-x="611" d="M44 742 C30 742 21 733 21 720 L21 679 C21 663 30 655 44 655 L258 655 L258 22 C258 9 268 0 281 0 L322 0 C337 0 345 10 345 22 L345 655 L558 655 C574 655 582 666 582 679 L582 720 C581 735 570 742 558 742 L44 742 Z M229 -151 C229 -183 256 -212 286 -217 L286 -221 C286 -245 268 -249 268 -264 C268 -268 271 -275 275 -279 L291 -291 C295 -294 297 -295 302 -295 C320 -295 363 -250 363 -156 C363 -113 334 -84 296 -84 C259 -84 229 -113 229 -151 L229 -151 Z " />
<glyph glyph-name="tcommaaccent" unicode="&#x163;" horiz-adv-x="328" d="M251 -8 C267 -7 276 1 276 16 L276 48 C276 64 266 73 251 73 C211 74 198 75 198 143 L198 411 L272 411 C287 411 294 419 294 435 L294 468 C294 485 287 491 272 491 L198 491 L198 633 C198 646 195 659 179 659 L128 652 C116 649 111 644 111 632 L111 491 L51 491 C35 491 26 487 26 470 L26 433 C26 416 35 411 51 411 L111 411 L111 111 C111 4 171 -9 235 -9 C241 -9 246 -8 251 -8 L251 -8 Z M95 -151 C95 -183 122 -212 152 -217 L152 -221 C152 -245 134 -249 134 -264 C134 -268 137 -275 141 -279 L157 -291 C161 -294 163 -295 168 -295 C186 -295 229 -250 229 -156 C229 -113 200 -84 162 -84 C125 -84 95 -113 95 -151 L95 -151 Z " />
<glyph glyph-name="Tcaron" unicode="&#x164;" horiz-adv-x="611" d="M44 742 C30 742 21 733 21 720 L21 679 C21 663 30 655 44 655 L258 655 L258 22 C258 9 268 0 281 0 L322 0 C337 0 345 10 345 22 L345 655 L558 655 C574 655 582 666 582 679 L582 720 C581 735 570 742 558 742 L44 742 Z M444 921 C446 924 450 929 450 934 C450 939 447 943 444 946 L420 967 C417 970 413 974 408 974 C405 974 400 973 397 969 L302 873 L206 969 C203 973 200 974 195 974 C191 974 186 970 182 967 L160 946 C156 943 153 939 153 934 C153 929 157 924 160 921 L291 790 C293 788 297 785 302 785 C305 785 310 788 313 790 L444 921 Z " />
<glyph glyph-name="tcaron" unicode="&#x165;" horiz-adv-x="328" d="M251 -8 C267 -7 276 1 276 16 L276 48 C276 64 266 73 251 73 C211 74 198 75 198 143 L198 411 L272 411 C287 411 294 419 294 435 L294 468 C294 485 287 491 272 491 L198 491 L198 633 C198 646 195 659 179 659 L128 652 C116 649 111 644 111 632 L111 491 L51 491 C35 491 26 487 26 470 L26 433 C26 416 35 411 51 411 L111 411 L111 111 C111 4 171 -9 235 -9 C241 -9 246 -8 251 -8 L251 -8 Z M239 691 C239 659 265 630 296 625 L296 621 C296 595 277 590 277 578 C277 574 280 567 285 563 L300 551 C304 548 307 547 312 547 C329 547 372 592 372 686 C372 729 344 758 305 758 C269 758 239 729 239 691 L239 691 Z " />
<glyph glyph-name="Tbar" unicode="&#x166;" horiz-adv-x="611" d="M44 742 C30 742 21 733 21 720 L21 679 C21 663 30 655 44 655 L258 655 L258 493 L178 493 C166 493 160 487 160 476 L160 425 C160 413 166 408 178 408 L258 408 L258 22 C258 9 268 0 281 0 L322 0 C337 0 345 10 345 22 L345 408 L433 408 C442 408 448 417 448 425 L448 476 C448 487 442 493 433 493 L345 493 L345 655 L558 655 C574 655 582 666 582 679 L582 720 C581 735 570 742 558 742 L44 742 Z " />
<glyph glyph-name="tbar" unicode="&#x167;" horiz-adv-x="328" d="M254 -8 C270 -7 279 1 279 16 L279 48 C279 64 269 73 254 73 C214 74 201 75 201 143 L201 259 L265 259 C274 259 280 267 280 276 L280 320 C280 331 274 336 265 336 L201 336 L201 411 L275 411 C290 411 297 419 297 435 L297 468 C297 485 290 491 275 491 L201 491 L201 633 C201 646 198 659 182 659 L131 652 C119 649 114 644 114 632 L114 491 L54 491 C38 491 29 487 29 470 L29 433 C29 416 38 411 54 411 L114 411 L114 336 L54 336 C42 336 36 331 36 320 L36 276 C36 264 42 259 54 259 L114 259 L114 111 C114 4 174 -9 238 -9 C244 -9 249 -8 254 -8 L254 -8 Z " />
<glyph glyph-name="Utilde" unicode="&#x168;" horiz-adv-x="752" d="M158 720 C158 732 145 742 135 742 L91 742 C79 742 70 730 70 720 L70 293 C70 125 208 -12 376 -12 C544 -12 682 110 682 293 L682 720 C682 733 669 742 656 742 L618 742 C605 742 595 732 595 720 L595 303 C595 175 517 72 376 72 C242 72 158 174 158 303 L158 720 Z M262 819 C269 825 276 838 282 844 C292 853 304 858 318 858 C330 858 342 854 352 847 L379 828 C398 815 419 806 440 806 C478 806 510 821 537 860 C538 860 544 869 544 873 C544 877 543 879 540 883 C535 887 525 896 518 902 C514 904 512 906 509 906 C506 906 503 904 501 902 C495 896 487 883 481 877 C471 868 459 863 445 863 C433 863 422 867 411 874 L384 893 C365 906 344 915 324 915 C285 915 254 900 226 861 C225 860 219 852 219 848 C219 844 220 842 223 839 C228 834 238 825 245 819 C249 817 252 815 255 815 C257 815 260 817 262 819 L262 819 Z " />
<glyph glyph-name="utilde" unicode="&#x169;" horiz-adv-x="568" d="M409 22 C409 9 417 0 432 0 L465 0 C478 0 487 9 487 22 L487 469 C487 483 479 491 464 491 L423 491 C409 491 400 483 400 469 L400 195 C397 128 338 75 274 75 C208 75 147 130 147 196 L147 466 C147 483 142 491 124 491 L80 491 C67 491 60 482 60 471 L60 197 C60 82 151 -11 265 -11 C327 -11 370 28 400 67 C403 52 406 37 409 22 L409 22 Z M166 592 C173 598 180 611 186 617 C196 626 208 631 222 631 C234 631 246 627 256 620 L283 601 C302 588 323 579 344 579 C382 579 414 594 441 633 C442 633 448 642 448 646 C448 650 447 652 444 656 C439 660 429 669 422 675 C418 677 416 679 413 679 C410 679 407 677 405 675 C399 669 391 656 385 650 C375 641 363 636 349 636 C337 636 326 640 315 647 L288 666 C269 679 248 688 228 688 C189 688 158 673 130 634 C129 633 123 625 123 621 C123 617 124 615 127 612 C132 607 142 598 149 592 C153 590 156 588 159 588 C161 588 164 590 166 592 L166 592 Z " />
<glyph glyph-name="Umacron" unicode="&#x16a;" horiz-adv-x="752" d="M158 720 C158 732 145 742 135 742 L91 742 C79 742 70 730 70 720 L70 293 C70 125 208 -12 376 -12 C544 -12 682 110 682 293 L682 720 C682 733 669 742 656 742 L618 742 C605 742 595 732 595 720 L595 303 C595 175 517 72 376 72 C242 72 158 174 158 303 L158 720 Z M187 859 C187 846 192 840 205 840 L555 840 C568 840 573 852 573 859 L573 898 C573 910 568 915 555 915 L205 915 C192 915 187 910 187 898 L187 859 Z " />
<glyph glyph-name="umacron" unicode="&#x16b;" horiz-adv-x="568" d="M409 22 C409 9 417 0 432 0 L465 0 C478 0 487 9 487 22 L487 469 C487 483 479 491 464 491 L423 491 C409 491 400 483 400 469 L400 195 C397 128 338 75 274 75 C208 75 147 130 147 196 L147 466 C147 483 142 491 124 491 L80 491 C67 491 60 482 60 471 L60 197 C60 82 151 -11 265 -11 C327 -11 370 28 400 67 C403 52 406 37 409 22 L409 22 Z M80 617 C80 604 85 598 98 598 L448 598 C461 598 466 610 466 617 L466 656 C466 668 461 673 448 673 L98 673 C85 673 80 668 80 656 L80 617 Z " />
<glyph glyph-name="Ubreve" unicode="&#x16c;" horiz-adv-x="752" d="M158 720 C158 732 145 742 135 742 L91 742 C79 742 70 730 70 720 L70 293 C70 125 208 -12 376 -12 C544 -12 682 110 682 293 L682 720 C682 733 669 742 656 742 L618 742 C605 742 595 732 595 720 L595 303 C595 175 517 72 376 72 C242 72 158 174 158 303 L158 720 Z M375 825 C446 824 501 879 501 940 C501 954 488 959 476 959 L447 959 C431 959 427 947 427 935 C427 914 407 895 377 895 C343 895 324 916 324 940 C324 950 316 959 304 959 L271 959 C260 959 251 951 251 940 C251 880 305 825 375 825 L375 825 Z " />
<glyph glyph-name="ubreve" unicode="&#x16d;" horiz-adv-x="568" d="M409 22 C409 9 417 0 432 0 L465 0 C478 0 487 9 487 22 L487 469 C487 483 479 491 464 491 L423 491 C409 491 400 483 400 469 L400 195 C397 128 338 75 274 75 C208 75 147 130 147 196 L147 466 C147 483 142 491 124 491 L80 491 C67 491 60 482 60 471 L60 197 C60 82 151 -11 265 -11 C327 -11 370 28 400 67 C403 52 406 37 409 22 L409 22 Z M284 608 C355 607 410 662 410 723 C410 737 397 742 385 742 L356 742 C340 742 336 730 336 718 C336 697 316 678 286 678 C252 678 233 699 233 723 C233 733 225 742 213 742 L180 742 C169 742 160 734 160 723 C160 663 214 608 284 608 L284 608 Z " />
<glyph glyph-name="Uring" unicode="&#x16e;" horiz-adv-x="752" d="M158 720 C158 732 145 742 135 742 L91 742 C79 742 70 730 70 720 L70 293 C70 125 208 -12 376 -12 C544 -12 682 110 682 293 L682 720 C682 733 669 742 656 742 L618 742 C605 742 595 732 595 720 L595 303 C595 175 517 72 376 72 C242 72 158 174 158 303 L158 720 Z M373 978 C315 978 269 930 269 872 C269 814 315 768 373 768 C431 768 479 814 479 872 C479 930 431 978 373 978 L373 978 Z M373 925 C403 925 426 902 426 872 C426 842 403 820 373 820 C343 820 321 842 321 872 C321 902 343 925 373 925 L373 925 Z " />
<glyph glyph-name="uring" unicode="&#x16f;" horiz-adv-x="568" d="M409 22 C409 9 417 0 432 0 L465 0 C478 0 487 9 487 22 L487 469 C487 483 479 491 464 491 L423 491 C409 491 400 483 400 469 L400 195 C397 128 338 75 274 75 C208 75 147 130 147 196 L147 466 C147 483 142 491 124 491 L80 491 C67 491 60 482 60 471 L60 197 C60 82 151 -11 265 -11 C327 -11 370 28 400 67 C403 52 406 37 409 22 L409 22 Z M284 774 C226 774 180 726 180 668 C180 610 226 564 284 564 C342 564 390 610 390 668 C390 726 342 774 284 774 L284 774 Z M284 721 C314 721 337 698 337 668 C337 638 314 616 284 616 C254 616 232 638 232 668 C232 698 254 721 284 721 L284 721 Z " />
<glyph glyph-name="Uhungarumlaut" unicode="&#x170;" horiz-adv-x="752" d="M158 720 C158 732 145 742 135 742 L91 742 C79 742 70 730 70 720 L70 293 C70 125 208 -12 376 -12 C544 -12 682 110 682 293 L682 720 C682 733 669 742 656 742 L618 742 C605 742 595 732 595 720 L595 303 C595 175 517 72 376 72 C242 72 158 174 158 303 L158 720 Z M380 928 C385 939 387 944 387 948 C387 956 380 957 372 957 L332 957 C319 957 313 951 305 936 L261 834 C257 824 256 820 255 816 C255 806 258 802 272 802 L308 802 C320 802 328 808 335 823 L380 928 Z M545 928 C550 939 552 944 552 948 C552 956 545 957 537 957 L497 957 C484 957 478 951 470 936 L426 834 C422 824 421 820 420 816 C420 806 423 802 437 802 L473 802 C485 802 493 808 500 823 L545 928 Z " />
<glyph glyph-name="uhungarumlaut" unicode="&#x171;" horiz-adv-x="568" d="M409 22 C409 9 417 0 432 0 L465 0 C478 0 487 9 487 22 L487 469 C487 483 479 491 464 491 L423 491 C409 491 400 483 400 469 L400 195 C397 128 338 75 274 75 C208 75 147 130 147 196 L147 466 C147 483 142 491 124 491 L80 491 C67 491 60 482 60 471 L60 197 C60 82 151 -11 265 -11 C327 -11 370 28 400 67 C403 52 406 37 409 22 L409 22 Z M277 713 C282 724 284 729 284 733 C284 741 277 742 269 742 L229 742 C216 742 210 736 202 721 L158 619 C154 609 153 605 152 601 C152 591 155 587 169 587 L205 587 C217 587 225 593 232 608 L277 713 Z M442 713 C447 724 449 729 449 733 C449 741 442 742 434 742 L394 742 C381 742 375 736 367 721 L323 619 C319 609 318 605 317 601 C317 591 320 587 334 587 L370 587 C382 587 390 593 397 608 L442 713 Z " />
<glyph glyph-name="Uogonek" unicode="&#x172;" horiz-adv-x="752" d="M158 720 C158 732 145 742 135 742 L91 742 C79 742 70 730 70 720 L70 293 C70 125 208 -12 376 -12 C544 -12 682 110 682 293 L682 720 C682 733 669 742 656 742 L618 742 C605 742 595 732 595 720 L595 303 C595 175 517 72 376 72 C242 72 158 174 158 303 L158 720 Z M345 -6 C345 -19 341 -31 321 -44 C287 -66 252 -86 252 -139 C256 -183 292 -217 373 -241 C375 -241 378 -242 380 -242 C398 -242 409 -211 409 -196 C409 -189 405 -184 399 -182 C353 -172 325 -153 325 -132 C325 -110 346 -100 368 -86 C395 -74 417 -45 417 -14 L417 -1 C417 12 411 13 401 13 L358 13 C345 13 345 2 345 -6 L345 -6 Z " />
<glyph glyph-name="uogonek" unicode="&#x173;" horiz-adv-x="566" d="M409 22 C409 9 417 0 432 0 L465 0 C478 0 487 9 487 22 L487 469 C487 483 479 491 464 491 L423 491 C409 491 400 483 400 469 L400 195 C397 128 338 75 274 75 C208 75 147 130 147 196 L147 466 C147 483 142 491 124 491 L80 491 C67 491 60 482 60 471 L60 197 C60 82 151 -11 265 -11 C327 -11 370 28 400 67 C403 52 406 37 409 22 L409 22 Z M413 -6 C413 -19 409 -31 389 -44 C355 -66 320 -86 320 -139 C324 -183 360 -217 441 -241 C443 -241 446 -242 448 -242 C466 -242 477 -211 477 -196 C477 -189 473 -184 467 -182 C421 -172 393 -153 393 -132 C393 -110 414 -100 436 -86 C463 -74 485 -45 485 -14 L485 -1 C485 12 479 13 469 13 L426 13 C413 13 413 2 413 -6 L413 -6 Z " />
<glyph glyph-name="Wcircumflex" unicode="&#x174;" horiz-adv-x="1065" d="M357 130 L117 720 C111 735 102 742 91 742 L42 742 C30 742 24 737 24 727 C24 724 25 720 25 719 L316 19 C318 13 325 0 340 0 L367 0 C378 0 388 7 395 22 L527 339 L661 19 C662 12 669 0 686 0 L716 0 C733 0 739 17 739 18 C740 18 741 20 741 22 L1032 721 C1033 722 1034 725 1034 727 C1034 736 1026 742 1012 742 L970 742 C956 742 948 735 943 723 C863 525 782 327 701 130 C658 234 615 339 572 444 L686 719 C687 723 688 725 688 727 C688 736 683 742 670 742 L615 742 C606 742 600 737 597 728 L357 130 Z M536 972 C534 974 529 977 525 977 C521 977 516 974 514 972 L383 841 C381 838 376 833 376 828 C376 823 380 819 383 816 L406 795 C410 792 414 788 418 788 C423 788 426 789 430 793 L525 889 L620 793 C624 789 628 788 632 788 C636 788 641 792 644 795 L667 816 C670 819 674 823 674 828 C674 833 670 838 667 841 L536 972 Z " />
<glyph glyph-name="wcircumflex" unicode="&#x175;" horiz-adv-x="773" d="M118 471 C113 482 103 491 90 491 L48 491 C34 491 26 486 26 475 C26 468 28 461 28 462 L211 19 C213 12 220 0 237 0 L267 0 L269 1 C287 1 290 17 292 19 L388 253 L485 19 C488 13 494 0 511 0 L540 0 C560 0 566 21 566 19 L749 462 C749 463 752 471 752 474 C752 485 743 491 728 491 L686 491 C673 491 663 482 659 472 C616 364 564 228 525 135 L490 220 C472 265 452 315 433 364 C447 396 461 429 474 462 C475 463 477 471 477 474 C477 485 468 491 454 491 L412 491 C398 491 389 483 385 472 L340 358 C309 278 277 200 251 135 C212 228 160 364 118 471 L118 471 Z M400 760 C398 762 393 765 389 765 C385 765 380 762 378 760 L247 629 C245 626 240 621 240 616 C240 611 244 607 247 604 L270 583 C274 580 278 576 282 576 C287 576 290 577 294 581 L389 677 L484 581 C488 577 492 576 496 576 C500 576 505 580 508 583 L531 604 C534 607 538 611 538 616 C538 621 534 626 531 629 L400 760 Z " />
<glyph glyph-name="Ycircumflex" unicode="&#x176;" horiz-adv-x="659" d="M286 324 L286 23 C286 7 293 0 307 0 L350 0 C365 0 373 7 373 23 L373 327 C455 459 534 588 616 720 C620 725 621 731 621 733 C621 739 617 742 609 742 L541 742 C531 741 526 738 518 725 L329 413 L144 721 C132 740 131 741 118 742 L53 742 C43 742 38 738 38 732 C38 728 40 723 44 717 L286 324 Z M339 974 C337 976 332 979 328 979 C324 979 319 976 317 974 L186 843 C184 840 179 835 179 830 C179 825 183 821 186 818 L209 797 C213 794 217 790 221 790 C226 790 229 791 233 795 L328 891 L423 795 C427 791 431 790 435 790 C439 790 444 794 447 797 L470 818 C473 821 477 825 477 830 C477 835 473 840 470 843 L339 974 Z " />
<glyph glyph-name="ycircumflex" unicode="&#x177;" horiz-adv-x="501" d="M478 446 C486 464 486 468 486 471 C486 483 479 491 462 491 L421 491 C408 491 400 487 394 475 L251 111 C204 226 152 357 108 473 C104 484 94 491 82 491 L39 491 C25 491 18 486 18 475 C18 473 18 465 22 456 L206 10 L134 -166 C133 -170 132 -173 132 -176 C132 -188 140 -193 155 -193 L195 -193 C208 -193 217 -187 222 -176 C308 30 391 239 478 446 L478 446 Z M270 760 C268 762 263 765 259 765 C255 765 250 762 248 760 L117 629 C115 626 110 621 110 616 C110 611 114 607 117 604 L140 583 C144 580 148 576 152 576 C157 576 160 577 164 581 L259 677 L354 581 C358 577 362 576 366 576 C370 576 375 580 378 583 L401 604 C404 607 408 611 408 616 C408 621 404 626 401 629 L270 760 Z " />
<glyph glyph-name="Ydieresis" unicode="&#x178;" horiz-adv-x="659" d="M286 324 L286 23 C286 7 293 0 307 0 L350 0 C365 0 373 7 373 23 L373 327 C455 459 534 588 616 720 C620 725 621 731 621 733 C621 739 617 742 609 742 L541 742 C531 741 526 738 518 725 L329 413 L144 721 C132 740 131 741 118 742 L53 742 C43 742 38 738 38 732 C38 728 40 723 44 717 L286 324 Z M172 875 C172 841 200 813 234 813 C270 813 297 841 297 875 C297 910 270 938 234 938 C200 938 172 910 172 875 L172 875 Z M358 876 C358 842 386 814 420 814 C456 814 483 842 483 876 C483 911 456 939 420 939 C386 939 358 911 358 876 L358 876 Z " />
<glyph glyph-name="Zacute" unicode="&#x179;" horiz-adv-x="639" d="M574 0 C587 0 597 11 597 23 L597 63 C597 79 587 87 574 87 L154 87 L591 657 C595 662 596 667 596 673 L596 719 C596 733 585 742 572 742 L67 742 C51 742 43 735 43 720 L43 678 C43 663 51 655 67 655 L478 655 L39 86 C33 80 32 73 32 68 L32 23 C32 10 43 0 56 0 L574 0 Z M419 930 C427 947 429 959 411 959 L371 959 C358 959 350 953 344 938 L300 836 C293 821 291 804 311 804 L347 804 C359 804 367 810 374 825 L419 930 Z " />
<glyph glyph-name="zacute" unicode="&#x17a;" horiz-adv-x="517" d="M437 0 C451 0 462 13 462 26 L462 56 C462 73 451 81 437 81 L168 81 L446 399 C456 411 460 415 460 433 L460 469 C460 484 449 491 433 491 L81 491 C65 491 55 482 55 465 L55 436 C55 417 65 408 81 408 L349 408 C283 332 120 148 54 72 C51 68 50 61 50 56 L50 26 C50 12 62 0 76 0 L437 0 Z M318 713 C326 730 328 742 310 742 L270 742 C257 742 249 736 243 721 L199 619 C192 604 190 587 210 587 L246 587 C258 587 266 593 273 608 L318 713 Z " />
<glyph glyph-name="Zdotaccent" unicode="&#x17b;" horiz-adv-x="639" d="M574 0 C587 0 597 11 597 23 L597 63 C597 79 587 87 574 87 L154 87 L591 657 C595 662 596 667 596 673 L596 719 C596 733 585 742 572 742 L67 742 C51 742 43 735 43 720 L43 678 C43 663 51 655 67 655 L478 655 L39 86 C33 80 32 73 32 68 L32 23 C32 10 43 0 56 0 L574 0 Z M266 886 C266 851 294 823 328 823 C364 823 391 851 391 886 C391 921 364 949 328 949 C294 949 266 921 266 886 L266 886 Z " />
<glyph glyph-name="zdotaccent" unicode="&#x17c;" horiz-adv-x="517" d="M437 0 C451 0 462 13 462 26 L462 56 C462 73 451 81 437 81 L168 81 L446 399 C456 411 460 415 460 433 L460 469 C460 484 449 491 433 491 L81 491 C65 491 55 482 55 465 L55 436 C55 417 65 408 81 408 L349 408 C283 332 120 148 54 72 C51 68 50 61 50 56 L50 26 C50 12 62 0 76 0 L437 0 Z M209 634 C209 599 237 571 271 571 C307 571 334 599 334 634 C334 669 307 697 271 697 C237 697 209 669 209 634 L209 634 Z " />
<glyph glyph-name="Zcaron" unicode="&#x17d;" horiz-adv-x="639" d="M574 0 C587 0 597 11 597 23 L597 63 C597 79 587 87 574 87 L154 87 L591 657 C595 662 596 667 596 673 L596 719 C596 733 585 742 572 742 L67 742 C51 742 43 735 43 720 L43 678 C43 663 51 655 67 655 L478 655 L39 86 C33 80 32 73 32 68 L32 23 C32 10 43 0 56 0 L574 0 Z M483 962 C485 965 489 970 489 975 C489 980 486 984 483 987 L459 1008 C456 1011 452 1015 447 1015 C444 1015 439 1014 436 1010 L341 914 L245 1010 C242 1014 239 1015 234 1015 C230 1015 225 1011 221 1008 L199 987 C195 984 192 980 192 975 C192 970 196 965 199 962 L330 831 C332 829 336 826 341 826 C344 826 349 829 352 831 L483 962 Z " />
<glyph glyph-name="zcaron" unicode="&#x17e;" horiz-adv-x="517" d="M437 0 C451 0 462 13 462 26 L462 56 C462 73 451 81 437 81 L168 81 L446 399 C456 411 460 415 460 433 L460 469 C460 484 449 491 433 491 L81 491 C65 491 55 482 55 465 L55 436 C55 417 65 408 81 408 L349 408 C283 332 120 148 54 72 C51 68 50 61 50 56 L50 26 C50 12 62 0 76 0 L437 0 Z M397 710 C399 713 403 718 403 723 C403 728 400 732 397 735 L373 756 C370 759 366 763 361 763 C358 763 353 762 350 758 L255 662 L159 758 C156 762 153 763 148 763 C144 763 139 759 135 756 L113 735 C109 732 106 728 106 723 C106 718 110 713 113 710 L244 579 C246 577 250 574 255 574 C258 574 263 577 266 579 L397 710 Z " />
<glyph glyph-name="florin" unicode="&#x192;" horiz-adv-x="309" d="M25 -196 C123 -175 185 -90 185 18 L185 429 L277 429 C288 429 294 435 294 448 L294 494 C294 505 288 511 277 511 L185 511 L185 579 C185 628 225 674 277 674 C286 674 294 682 294 693 L294 744 C294 754 288 760 277 761 L257 758 C170 741 97 672 97 579 L97 511 L26 511 C15 511 9 505 9 494 L9 448 C9 435 15 429 26 429 L97 429 L97 -17 C97 -66 54 -112 5 -112 C-5 -112 -12 -119 -12 -129 L-12 -182 C-12 -192 -5 -198 5 -199 L25 -196 Z " />
<glyph glyph-name="AEacute" unicode="&#x1fc;" horiz-adv-x="1159" d="M247 162 L602 162 L602 21 C602 6 610 0 624 0 L1104 0 C1118 0 1126 8 1126 22 L1126 63 C1126 79 1118 87 1104 87 L689 87 L689 347 L1014 347 C1029 347 1036 358 1036 370 L1036 411 C1036 427 1026 434 1014 434 L689 434 L689 655 L1099 655 C1115 655 1123 666 1123 678 L1123 719 C1123 735 1115 742 1100 742 L624 742 C606 742 598 731 592 724 C592 723 591 723 27 29 C27 29 27 29 27 29 C27 28 18 18 18 9 C18 3 24 0 35 0 L101 0 C112 0 123 6 134 20 L247 162 Z M602 600 L602 247 L317 247 L602 600 Z M742 928 C750 945 752 957 734 957 L694 957 C681 957 673 951 667 936 L623 834 C616 819 614 802 634 802 L670 802 C682 802 690 808 697 823 L742 928 Z " />
<glyph glyph-name="aeacute" unicode="&#x1fd;" horiz-adv-x="967" d="M122 244 C122 337 182 415 278 415 C376 415 429 336 429 242 C429 146 374 73 278 73 C184 73 122 150 122 244 L122 244 Z M532 275 C549 361 616 420 682 420 C757 420 824 365 843 275 L532 275 Z M429 25 C429 10 436 0 454 0 L486 0 C500 0 512 9 512 22 L512 78 C556 24 622 -9 694 -9 C755 -9 807 21 852 59 C861 66 864 69 864 74 C864 78 862 82 857 88 L835 117 C832 121 829 123 825 123 C818 123 811 115 803 109 C768 80 730 66 690 66 C621 66 551 122 535 211 L856 211 C891 211 917 212 917 250 L917 259 C909 403 803 495 686 495 C617 495 555 466 512 415 L512 466 C512 482 500 491 486 491 L457 491 C440 491 434 482 433 466 L429 416 C399 459 360 499 278 499 C137 499 39 386 39 244 C39 102 138 -10 278 -10 C359 -10 399 27 429 72 L429 25 Z M554 713 C562 730 564 742 546 742 L506 742 C493 742 485 736 479 721 L435 619 C428 604 426 587 446 587 L482 587 C494 587 502 593 509 608 L554 713 Z " />
<glyph glyph-name="Oslashacute" unicode="&#x1fe;" horiz-adv-x="853" d="M512 928 C520 945 522 957 504 957 L464 957 C451 957 443 951 437 936 L393 834 C386 819 384 802 404 802 L440 802 C452 802 460 808 467 823 L512 928 Z M426 752 C215 752 44 581 44 370 C44 226 123 101 241 36 L180 -96 C179 -100 178 -103 178 -106 C178 -113 183 -117 195 -117 L247 -117 C260 -117 267 -111 272 -100 L322 3 C355 -6 389 -11 425 -11 C637 -11 808 159 808 369 C808 512 730 637 615 702 C627 733 663 812 673 836 C676 842 677 847 677 850 C677 859 670 862 655 862 L610 862 C594 862 587 857 579 840 L534 737 C500 747 464 752 426 752 L426 752 Z M131 371 C131 533 262 665 426 665 C588 665 720 533 720 371 C720 207 588 75 426 75 C262 75 131 207 131 371 L131 371 Z " />
<glyph glyph-name="oslashacute" unicode="&#x1ff;" horiz-adv-x="596" d="M384 713 C392 730 394 742 376 742 L336 742 C323 742 315 736 309 721 L265 619 C258 604 256 587 276 587 L312 587 C324 587 332 593 339 608 L384 713 Z M44 244 C44 155 88 76 157 31 L121 -58 C119 -61 119 -64 119 -66 C119 -73 123 -76 133 -76 L179 -76 C188 -76 196 -71 200 -61 L225 -1 C249 -8 274 -12 300 -12 C442 -12 557 102 557 244 C557 343 501 428 420 471 L450 544 C452 549 453 553 453 556 C453 564 447 566 434 566 L396 566 C382 566 375 562 369 547 L348 497 C332 500 316 501 300 501 C158 501 44 386 44 244 L44 244 Z M125 244 C125 340 204 421 300 421 C396 421 476 340 476 244 C476 148 396 68 300 68 C204 68 125 148 125 244 L125 244 Z " />
<glyph glyph-name="Scommaaccent" unicode="&#x218;" horiz-adv-x="641" d="M501 588 C507 582 513 578 519 578 C523 578 528 581 532 585 L562 614 C567 619 570 624 570 630 C570 638 559 649 551 658 C494 713 404 753 324 753 C168 753 67 668 67 546 C67 445 149 391 313 349 C417 322 515 298 515 216 C515 119 407 74 324 74 C276 74 183 106 124 167 C121 170 111 182 102 182 C98 182 91 180 87 177 L55 150 C49 145 46 140 46 134 C46 129 49 123 54 116 C118 33 218 -10 321 -10 C477 -10 601 79 601 222 C601 362 456 397 337 430 C251 453 159 481 159 549 C159 607 207 669 320 669 C404 669 469 617 501 588 L501 588 Z M261 -151 C261 -183 288 -212 318 -217 L318 -221 C318 -245 300 -249 300 -264 C300 -268 303 -275 307 -279 L323 -291 C327 -294 329 -295 334 -295 C352 -295 395 -250 395 -156 C395 -113 366 -84 328 -84 C291 -84 261 -113 261 -151 L261 -151 Z " />
<glyph glyph-name="scommaaccent" unicode="&#x219;" horiz-adv-x="425" d="M39 100 C59 28 137 -9 209 -9 C312 -9 387 46 387 135 C387 215 322 267 216 294 C178 304 134 321 134 362 C134 394 167 425 215 425 C251 425 277 402 296 376 C305 364 312 352 323 360 L364 389 C371 394 368 401 365 406 C331 466 288 503 214 503 C119 503 54 444 54 362 C54 285 112 236 200 213 C255 198 303 179 303 135 C303 95 254 70 209 70 C183 70 132 84 117 125 C114 135 105 145 94 140 L44 120 C36 117 36 106 39 100 L39 100 Z M131 -151 C131 -183 158 -212 188 -217 L188 -221 C188 -245 170 -249 170 -264 C170 -268 173 -275 177 -279 L193 -291 C197 -294 199 -295 204 -295 C222 -295 265 -250 265 -156 C265 -113 236 -84 198 -84 C161 -84 131 -113 131 -151 L131 -151 Z " />
<glyph glyph-name="uni021A" unicode="&#x21a;" horiz-adv-x="616" d="M243 -151 C243 -183 270 -212 300 -217 L300 -221 C300 -245 282 -249 282 -264 C282 -268 285 -275 289 -279 L305 -291 C309 -294 311 -295 316 -295 C334 -295 377 -250 377 -156 C377 -113 348 -84 310 -84 C273 -84 243 -113 243 -151 L243 -151 Z M49 742 C35 742 26 733 26 720 L26 679 C26 663 35 655 49 655 L263 655 L263 22 C263 9 273 0 286 0 L327 0 C342 0 350 10 350 22 L350 655 L563 655 C579 655 587 666 587 679 L587 720 C586 735 575 742 563 742 L49 742 Z " />
<glyph glyph-name="uni021B" unicode="&#x21b;" horiz-adv-x="328" d="M251 -8 C267 -7 276 1 276 16 L276 48 C276 64 266 73 251 73 C211 74 198 75 198 143 L198 411 L272 411 C287 411 294 419 294 435 L294 468 C294 485 287 491 272 491 L198 491 L198 633 C198 646 195 659 179 659 L128 652 C116 649 111 644 111 632 L111 491 L51 491 C35 491 26 487 26 470 L26 433 C26 416 35 411 51 411 L111 411 L111 111 C111 4 171 -9 235 -9 C241 -9 246 -8 251 -8 L251 -8 Z M87 -151 C87 -183 114 -212 144 -217 L144 -221 C144 -245 126 -249 126 -264 C126 -268 129 -275 133 -279 L149 -291 C153 -294 155 -295 160 -295 C178 -295 221 -250 221 -156 C221 -113 192 -84 154 -84 C117 -84 87 -113 87 -151 L87 -151 Z " />
<glyph glyph-name="circumflex" unicode="&#x2c6;" horiz-adv-x="374" d="M197 760 C195 762 190 765 186 765 C182 765 177 762 175 760 L44 629 C42 626 37 621 37 616 C37 611 41 607 44 604 L67 583 C71 580 75 576 79 576 C84 576 87 577 91 581 L186 677 L281 581 C285 577 289 576 293 576 C297 576 302 580 305 583 L328 604 C331 607 335 611 335 616 C335 621 331 626 328 629 L197 760 Z " />
<glyph glyph-name="caron" unicode="&#x2c7;" horiz-adv-x="368" d="M327 710 C329 713 333 718 333 723 C333 728 330 732 327 735 L303 756 C300 759 296 763 291 763 C288 763 283 762 280 758 L185 662 L89 758 C86 762 83 763 78 763 C74 763 69 759 65 756 L43 735 C39 732 36 728 36 723 C36 718 40 713 43 710 L174 579 C176 577 180 574 185 574 C188 574 193 577 196 579 L327 710 Z " />
<glyph glyph-name="uni02C9" unicode="&#x2c9;" horiz-adv-x="490" d="M51 639 C51 626 57 619 69 619 L420 619 C432 619 438 631 438 639 L438 677 C438 689 432 695 420 695 L69 695 C57 695 51 689 51 677 L51 639 Z " />
<glyph glyph-name="breve" unicode="&#x2d8;" horiz-adv-x="326" d="M162 608 C233 607 288 662 288 723 C288 737 275 742 263 742 L234 742 C218 742 214 730 214 718 C214 697 194 678 164 678 C130 678 111 699 111 723 C111 733 103 742 91 742 L58 742 C47 742 38 734 38 723 C38 663 92 608 162 608 L162 608 Z " />
<glyph glyph-name="dotaccent" unicode="&#x2d9;" horiz-adv-x="258" d="M63 634 C63 600 91 572 125 572 C161 572 188 600 188 634 C188 669 161 697 125 697 C91 697 63 669 63 634 L63 634 Z " />
<glyph glyph-name="ring" unicode="&#x2da;" horiz-adv-x="259" d="M128 774 C70 774 24 726 24 668 C24 610 70 564 128 564 C186 564 234 610 234 668 C234 726 186 774 128 774 L128 774 Z M128 721 C158 721 181 698 181 668 C181 638 158 616 128 616 C98 616 76 638 76 668 C76 698 98 721 128 721 L128 721 Z " />
<glyph glyph-name="ogonek" unicode="&#x2db;" horiz-adv-x="277" d="M134 -6 C134 -19 130 -31 110 -44 C76 -66 41 -86 41 -139 C45 -183 81 -217 162 -241 C164 -241 167 -242 169 -242 C187 -242 198 -211 198 -196 C198 -189 194 -184 188 -182 C142 -172 114 -153 114 -132 C114 -110 135 -100 157 -86 C184 -74 206 -45 206 -14 L206 -1 C206 12 200 13 190 13 L147 13 C134 13 134 2 134 -6 L134 -6 Z " />
<glyph glyph-name="tilde" unicode="&#x2dc;" horiz-adv-x="353" d="M54 592 C61 598 68 611 74 617 C84 626 96 631 110 631 C122 631 134 627 144 620 L171 601 C190 588 211 579 232 579 C270 579 302 594 329 633 C330 633 336 642 336 646 C336 650 335 652 332 656 C327 660 317 669 310 675 C306 677 304 679 301 679 C298 679 295 677 293 675 C287 669 279 656 273 650 C263 641 251 636 237 636 C225 636 214 640 203 647 L176 666 C157 679 136 688 116 688 C77 688 46 673 18 634 C17 633 11 625 11 621 C11 617 12 615 15 612 C20 607 30 598 37 592 C41 590 44 588 47 588 C49 588 52 590 54 592 L54 592 Z " />
<glyph glyph-name="hungarumlaut" unicode="&#x2dd;" horiz-adv-x="474" d="M221 713 C226 724 228 729 228 733 C228 741 221 742 213 742 L173 742 C160 742 154 736 146 721 L102 619 C98 609 97 605 96 601 C96 591 99 587 113 587 L149 587 C161 587 169 593 176 608 L221 713 Z M386 713 C391 724 393 729 393 733 C393 741 386 742 378 742 L338 742 C325 742 319 736 311 721 L267 619 C263 609 262 605 261 601 C261 591 264 587 278 587 L314 587 C326 587 334 593 341 608 L386 713 Z " />
<glyph glyph-name="uni037E" unicode="&#x37e;" horiz-adv-x="264" d="M60 442 C60 407 88 379 122 379 C158 379 185 407 185 442 C185 477 158 505 122 505 C88 505 60 477 60 442 L60 442 Z M58 45 C58 13 85 -16 115 -21 L115 -25 C115 -39 110 -48 104 -54 C100 -59 97 -62 97 -68 C97 -72 100 -79 104 -83 L120 -95 C124 -98 126 -99 131 -99 C149 -99 192 -54 192 40 C192 83 163 112 125 112 C88 112 58 83 58 45 L58 45 Z " />
<glyph glyph-name="tonos" unicode="&#x384;" horiz-adv-x="258" d="M141 564 C149 564 156 572 158 582 L173 729 C175 737 169 743 160 743 L88 743 C80 743 76 737 75 731 L92 582 C92 570 100 565 111 564 L141 564 Z " />
<glyph glyph-name="dieresistonos" unicode="&#x385;" horiz-adv-x="430" d="M39 638 C39 611 50 600 77 600 L99 600 C125 600 136 611 136 638 L136 660 C136 689 120 697 99 697 L77 697 C50 697 39 689 39 660 L39 638 Z M288 638 C288 611 299 600 325 600 L347 600 C374 600 385 611 385 638 L385 660 C385 689 368 697 347 697 L325 697 C299 697 288 689 288 660 L288 638 Z M197 597 L226 597 C237 597 247 608 248 619 L264 763 C264 764 264 766 264 767 C264 777 256 784 245 784 L175 784 C165 784 157 777 157 769 C157 768 157 767 157 766 L174 619 C174 605 183 598 197 597 L197 597 Z " />
<glyph glyph-name="Alphatonos" unicode="&#x386;" horiz-adv-x="766" d="M130 565 C138 565 145 573 147 583 L162 730 C164 738 158 744 149 744 L77 744 C69 744 65 738 64 732 L81 583 C81 571 89 566 100 565 L130 565 Z M172 162 L536 162 L594 19 C598 8 608 0 621 0 L664 0 C677 0 686 5 686 16 C686 20 683 28 683 28 L395 724 C392 731 387 742 370 742 L341 742 C323 742 319 731 316 724 C316 723 315 723 26 29 C26 29 24 23 24 16 C24 5 31 0 45 0 L88 0 C102 0 110 6 116 20 L172 162 Z M355 613 L501 247 L208 247 L355 613 Z " />
<glyph glyph-name="anoteleia" unicode="&#x387;" horiz-adv-x="227" d="M55 276 C55 242 83 214 117 214 C153 214 180 242 180 276 C180 311 153 339 117 339 C83 339 55 311 55 276 L55 276 Z " />
<glyph glyph-name="Epsilontonos" unicode="&#x388;" horiz-adv-x="642" d="M39 564 C48 564 55 572 56 582 L72 729 C74 737 67 743 58 743 L-13 743 C-21 743 -26 737 -26 731 L-9 582 C-9 570 -1 565 9 564 L39 564 Z M121 742 C107 742 99 734 99 719 L99 21 C99 6 107 0 121 0 L606 0 C620 0 628 8 628 22 L628 63 C628 79 620 87 606 87 L186 87 L186 347 L516 347 C531 347 538 358 538 370 L538 411 C538 427 528 434 516 434 L186 434 L186 655 L601 655 C617 655 625 666 625 678 L625 719 C625 735 617 742 602 742 L121 742 Z " />
<glyph glyph-name="Etatonos" unicode="&#x389;" horiz-adv-x="826" d="M41 565 C50 565 57 573 58 583 L74 730 C76 738 69 744 60 744 L-11 744 C-19 744 -24 738 -24 732 L-7 583 C-7 571 1 566 11 565 L41 565 Z M671 432 L229 432 L229 720 C229 732 218 742 206 742 L165 742 C151 742 143 732 143 720 L143 22 C143 7 150 0 165 0 L205 0 C222 0 229 7 229 22 L229 347 L671 347 L671 22 C671 7 678 0 693 0 L734 0 C750 0 757 7 757 22 L757 720 C757 733 746 742 734 742 L693 742 C679 742 671 732 671 720 L671 432 Z " />
<glyph glyph-name="Iotatonos" unicode="&#x38a;" horiz-adv-x="248" d="M15 563 C24 563 31 572 32 581 L48 728 C50 737 43 743 34 743 L-37 743 C-45 743 -50 737 -50 731 L-33 581 C-33 570 -25 564 -15 563 L15 563 Z M167 720 C167 733 158 742 145 742 L103 742 C89 742 81 734 81 720 L81 22 C81 7 88 0 103 0 L145 0 C159 0 167 7 167 22 L167 720 Z " />
<glyph glyph-name="Omicrontonos" unicode="&#x38c;" horiz-adv-x="856" d="M426 752 C214 752 44 581 44 370 C44 159 214 -11 425 -11 C637 -11 807 159 807 369 C807 582 636 752 426 752 L426 752 Z M130 371 C130 533 262 665 426 665 C588 665 720 533 720 371 C720 207 588 75 426 75 C262 75 130 207 130 371 L130 371 Z M41 565 C49 565 56 573 58 583 L73 730 C75 738 69 744 60 744 L-12 744 C-20 744 -24 738 -25 732 L-8 583 C-8 571 0 566 11 565 L41 565 Z " />
<glyph glyph-name="Upsilontonos" unicode="&#x38e;" horiz-adv-x="687" d="M17 564 C25 564 32 572 34 582 L49 729 C51 737 45 743 36 743 L-36 743 C-44 743 -48 737 -49 731 L-32 582 C-32 570 -24 565 -13 564 L17 564 Z M314 324 L314 23 C314 7 320 0 335 0 L378 0 C393 0 400 7 400 23 L400 327 C483 459 562 588 643 720 C647 725 649 731 649 733 C649 739 645 742 637 742 L568 742 C558 741 553 738 545 725 L357 413 L171 721 C160 740 158 741 145 742 L80 742 C71 742 65 738 65 732 C65 728 68 723 72 717 L314 324 Z " />
<glyph glyph-name="Omegatonos" unicode="&#x38f;" horiz-adv-x="780" d="M54 565 C62 565 69 573 71 583 L86 730 C88 738 82 744 73 744 L1 744 C-7 744 -11 738 -12 732 L5 583 C5 571 13 566 24 565 L54 565 Z M102 88 C91 88 85 82 85 71 L85 18 C85 6 91 0 102 0 L305 0 C317 0 323 6 323 17 L323 188 C323 198 314 205 304 205 C221 243 164 325 164 422 C164 554 270 661 402 661 C535 661 642 554 642 422 C642 325 584 243 501 205 C490 205 483 197 483 188 L483 17 C483 6 489 0 500 0 L704 0 C715 0 722 8 722 18 L722 71 C722 82 714 88 704 88 L571 88 L571 135 C668 193 733 299 733 420 C733 605 585 752 401 752 C217 752 69 605 69 420 C69 298 135 191 236 133 L236 88 L102 88 Z " />
<glyph glyph-name="iotadieresistonos" unicode="&#x390;" horiz-adv-x="247" d="M167 469 C167 481 158 491 144 491 L103 491 C91 491 81 482 81 469 L81 22 C81 7 88 0 104 0 L145 0 C159 0 167 7 167 22 L167 469 Z M141 606 C149 606 156 614 158 624 L173 771 C175 779 169 785 160 785 L88 785 C80 785 76 779 75 773 L92 624 C92 612 100 607 111 606 L141 606 Z M-64 636 C-64 602 -36 574 -2 574 C34 574 61 602 61 636 C61 671 34 699 -2 699 C-36 699 -64 671 -64 636 L-64 636 Z M185 636 C185 602 213 574 248 574 C284 574 311 602 311 636 C311 671 284 699 248 699 C213 699 185 671 185 636 L185 636 Z " />
<glyph glyph-name="Alpha" unicode="&#x391;" horiz-adv-x="716" d="M172 162 L536 162 L594 19 C598 8 608 0 621 0 L664 0 C677 0 686 5 686 16 C686 20 683 28 683 28 L395 724 C392 731 387 742 370 742 L341 742 C323 742 319 731 316 724 C316 723 315 723 26 29 C26 29 24 23 24 16 C24 5 31 0 45 0 L88 0 C102 0 110 6 116 20 L172 162 Z M355 613 L501 247 L208 247 L355 613 Z " />
<glyph glyph-name="Beta" unicode="&#x392;" horiz-adv-x="678" d="M600 548 C600 660 512 742 399 742 L104 742 C89 742 81 734 81 718 L81 22 C81 8 91 0 104 0 L433 0 C551 0 639 100 639 214 C639 291 596 363 532 397 C574 434 600 489 600 548 L600 548 Z M432 342 C499 342 552 281 552 214 C552 145 497 85 432 85 L167 85 L167 342 L432 342 Z M512 548 C512 481 463 427 398 427 L167 427 L167 657 L398 657 C465 657 512 614 512 548 L512 548 Z " />
<glyph glyph-name="Gamma" unicode="&#x393;" horiz-adv-x="605" d="M81 16 C81 5 88 0 99 0 L151 0 C163 0 170 5 170 16 L170 654 L577 654 C588 654 595 663 595 673 L595 723 C595 736 589 742 577 742 L99 742 C88 742 81 736 81 724 L81 16 Z " />
<glyph glyph-name="Delta" unicode="&#x394;" horiz-adv-x="735" d="M687 0 C699 0 705 4 705 12 C705 15 703 25 703 25 L703 24 C607 258 510 492 413 727 L414 726 C411 731 410 742 392 742 L358 742 C342 742 339 734 337 729 L337 730 C337 729 336 728 336 728 L43 24 C43 24 42 21 42 12 C42 4 48 0 60 0 L687 0 Z M379 594 L583 88 L164 88 C225 240 341 526 370 594 L379 594 Z " />
<glyph glyph-name="Epsilon" unicode="&#x395;" horiz-adv-x="642" d="M103 742 C89 742 81 734 81 719 L81 21 C81 6 89 0 103 0 L588 0 C602 0 610 8 610 22 L610 63 C610 79 602 87 587 87 L167 87 L167 347 L498 347 C512 347 520 358 520 370 L520 411 C520 427 510 434 498 434 L167 434 L167 655 L583 655 C598 655 606 666 606 678 L606 719 C606 735 598 742 584 742 L103 742 Z " />
<glyph glyph-name="Zeta" unicode="&#x396;" horiz-adv-x="682" d="M574 0 C587 0 597 11 597 23 L597 63 C597 79 587 87 574 87 L154 87 L591 657 C595 662 596 667 596 673 L596 719 C596 733 585 742 572 742 L67 742 C51 742 43 735 43 720 L43 678 C43 663 51 655 67 655 L478 655 L39 86 C33 80 32 73 32 68 L32 23 C32 10 43 0 56 0 L574 0 Z " />
<glyph glyph-name="Eta" unicode="&#x397;" horiz-adv-x="773" d="M609 432 L167 432 L167 720 C167 732 156 742 144 742 L103 742 C89 742 81 732 81 720 L81 22 C81 7 88 0 103 0 L143 0 C160 0 167 7 167 22 L167 347 L609 347 L609 22 C609 7 616 0 631 0 L672 0 C688 0 695 7 695 22 L695 720 C695 733 684 742 672 742 L631 742 C617 742 609 732 609 720 L609 432 Z " />
<glyph glyph-name="Theta" unicode="&#x398;" horiz-adv-x="853" d="M266 417 C254 417 248 411 248 400 L248 348 C248 335 254 329 266 329 L595 329 C605 329 612 338 612 348 L612 400 C612 411 605 417 595 417 L266 417 Z M426 752 C215 752 44 581 44 370 C44 159 214 -11 425 -11 C637 -11 808 159 808 369 C808 582 636 752 426 752 L426 752 Z M131 371 C131 533 262 665 426 665 C588 665 720 533 720 371 C720 207 588 75 426 75 C262 75 131 207 131 371 L131 371 Z " />
<glyph glyph-name="Iota" unicode="&#x399;" horiz-adv-x="248" d="M167 720 C167 733 158 742 145 742 L103 742 C89 742 81 734 81 720 L81 22 C81 7 88 0 103 0 L145 0 C159 0 167 7 167 22 L167 720 Z " />
<glyph glyph-name="Kappa" unicode="&#x39a;" horiz-adv-x="734" d="M167 227 L300 365 C394 252 489 139 583 26 C593 12 603 0 614 0 L700 0 C707 0 710 6 710 9 C710 11 709 12 703 20 C593 159 474 291 359 427 L639 722 C642 725 648 731 648 736 C648 740 645 742 635 742 L549 742 C541 742 533 737 525 727 L167 348 L167 720 C167 733 157 742 145 742 L103 742 C88 742 81 732 81 720 L81 22 C81 7 88 0 103 0 L144 0 C160 0 167 7 167 22 L167 227 Z " />
<glyph glyph-name="Lambda" unicode="&#x39b;" horiz-adv-x="718" d="M606 20 C610 8 619 0 633 0 L677 0 C691 0 698 5 698 16 C698 27 693 37 691 41 L407 723 C404 731 396 742 382 742 L353 742 C333 742 330 729 327 722 L40 29 C39 28 37 20 37 17 C37 6 45 0 59 0 L103 0 C117 0 126 8 130 19 C181 147 321 491 367 605 C415 491 555 148 606 20 L606 20 Z " />
<glyph glyph-name="Mu" unicode="&#x39c;" horiz-adv-x="926" d="M483 32 C492 32 499 38 504 50 L734 591 L790 22 C790 7 797 0 812 0 L854 0 C869 0 877 7 877 22 L804 720 C804 732 795 742 782 742 L717 742 C707 742 699 735 696 723 C619 537 541 351 464 165 L232 723 C228 735 221 742 210 742 L148 742 C135 742 124 733 124 720 C100 487 76 255 52 22 C52 7 59 0 74 0 L116 0 C131 0 139 7 139 22 L194 591 L424 50 C429 38 436 32 444 32 L483 32 Z " />
<glyph glyph-name="Nu" unicode="&#x39d;" horiz-adv-x="791" d="M689 0 C705 0 713 8 713 22 L713 720 C713 733 701 742 689 742 L648 742 C636 742 628 735 626 723 L626 148 L177 732 C172 739 166 742 158 742 L103 742 C90 742 81 732 81 719 L81 22 C81 7 88 0 103 0 L144 0 C160 0 167 7 167 22 L167 608 L623 9 C628 3 635 0 642 0 L689 0 Z " />
<glyph glyph-name="Xi" unicode="&#x39e;" horiz-adv-x="682" d="M592 0 C603 0 610 6 610 17 L610 69 C610 81 603 88 591 88 L92 88 C79 88 73 81 73 69 L73 17 C73 6 79 0 91 0 L592 0 Z M579 654 C592 654 598 663 598 673 L598 723 C598 736 592 742 580 742 L103 742 C91 742 84 736 84 723 L84 673 C84 663 91 654 104 654 L579 654 Z M495 330 C507 330 513 338 513 348 L513 400 C513 413 505 418 495 418 L187 418 C178 418 170 413 170 400 L170 348 C170 338 176 330 187 330 L495 330 Z " />
<glyph glyph-name="Omicron" unicode="&#x39f;" horiz-adv-x="853" d="M426 752 C215 752 44 581 44 370 C44 159 214 -11 425 -11 C637 -11 808 159 808 369 C808 582 636 752 426 752 L426 752 Z M131 371 C131 533 262 665 426 665 C588 665 720 533 720 371 C720 207 588 75 426 75 C262 75 131 207 131 371 L131 371 Z " />
<glyph glyph-name="Pi" unicode="&#x3a0;" horiz-adv-x="714" d="M544 17 C544 6 550 0 561 0 L613 0 C625 0 632 6 632 17 L632 725 C632 735 622 742 613 742 L98 742 C87 742 81 736 81 724 L81 16 C81 5 87 0 98 0 L151 0 C163 0 169 5 169 16 L169 654 L544 654 L544 17 Z " />
<glyph glyph-name="Rho" unicode="&#x3a1;" horiz-adv-x="629" d="M81 22 C81 7 88 0 103 0 L145 0 C160 0 167 7 167 22 L167 280 L355 280 C484 280 583 387 583 510 C583 636 483 742 352 742 L104 742 C89 742 81 734 81 718 L81 22 Z M497 511 C497 433 431 365 352 365 L167 365 L167 657 L352 657 C433 657 497 588 497 511 L497 511 Z " />
<glyph glyph-name="Sigma" unicode="&#x3a3;" horiz-adv-x="608" d="M421 371 L180 654 L540 654 C550 654 558 660 558 673 L558 723 C558 733 550 742 540 742 L77 742 C67 742 58 734 58 723 L58 668 C58 664 59 660 61 657 L60 658 C141 563 226 465 307 370 L60 84 L61 85 C59 81 58 77 58 74 L58 19 C58 8 67 0 77 0 L551 0 C561 0 569 9 569 19 L569 69 C569 82 561 88 551 88 L179 88 L421 371 Z " />
<glyph glyph-name="Tau" unicode="&#x3a4;" horiz-adv-x="611" d="M44 742 C30 742 21 733 21 720 L21 679 C21 663 30 655 44 655 L258 655 L258 22 C258 9 268 0 281 0 L322 0 C337 0 345 10 345 22 L345 655 L558 655 C574 655 582 666 582 679 L582 720 C581 735 570 742 558 742 L44 742 Z " />
<glyph glyph-name="Upsilon" unicode="&#x3a5;" horiz-adv-x="659" d="M286 324 L286 23 C286 7 293 0 307 0 L350 0 C365 0 373 7 373 23 L373 327 C455 459 534 588 616 720 C620 725 621 731 621 733 C621 739 617 742 609 742 L541 742 C531 741 526 738 518 725 L329 413 L144 721 C132 740 131 741 118 742 L53 742 C43 742 38 738 38 732 C38 728 40 723 44 717 L286 324 Z " />
<glyph glyph-name="Phi" unicode="&#x3a6;" horiz-adv-x="771" d="M342 17 C342 6 348 0 360 0 L412 0 C424 0 430 6 430 17 L430 53 C605 74 739 207 739 369 C739 532 604 666 430 687 L430 725 C430 735 421 742 412 742 L360 742 C348 742 342 735 342 725 L342 687 C170 665 37 531 37 370 C37 208 170 75 342 54 L342 17 Z M650 370 C650 249 558 161 430 141 L430 599 C559 581 650 492 650 370 L650 370 Z M125 370 C125 492 216 580 342 598 L342 141 C215 161 125 249 125 370 L125 370 Z " />
<glyph glyph-name="Chi" unicode="&#x3a7;" horiz-adv-x="620" d="M366 370 L602 717 C607 724 609 730 609 734 C609 740 602 742 589 742 L540 742 C524 742 516 737 503 720 L315 444 L129 720 C116 737 109 742 96 742 L42 742 C29 742 22 740 22 733 C22 729 24 724 29 717 C94 623 182 494 265 370 L28 22 C24 16 22 12 22 8 C22 3 26 0 36 0 L97 0 C109 0 118 6 127 18 L315 297 L504 18 C512 6 522 0 534 0 L594 0 C604 0 609 3 609 8 C609 12 607 17 603 22 L366 370 Z " />
<glyph glyph-name="Psi" unicode="&#x3a8;" horiz-adv-x="697" d="M135 726 C135 736 125 743 116 743 L62 743 C53 743 45 734 45 726 L45 587 C45 436 157 309 304 285 L304 17 C304 6 311 0 322 0 L374 0 C386 0 392 6 392 17 L392 285 C541 306 656 423 656 587 L656 726 C656 737 645 743 635 743 L586 743 C576 743 568 736 568 726 L568 600 C568 485 511 392 392 370 L392 725 C392 735 384 742 374 742 L322 742 C311 742 304 735 304 725 L304 372 C195 396 135 486 135 600 L135 726 Z " />
<glyph glyph-name="Omega" unicode="&#x3a9;" horiz-adv-x="743" d="M72 88 C61 88 55 82 55 71 L55 18 C55 6 61 0 72 0 L275 0 C287 0 293 6 293 17 L293 188 C293 198 284 205 274 205 C191 243 134 325 134 422 C134 554 239 661 372 661 C504 661 611 554 611 422 C611 325 554 243 471 205 C459 205 452 197 452 188 L452 17 C452 6 458 0 470 0 L674 0 C684 0 691 8 691 18 L691 71 C691 82 684 88 674 88 L541 88 L541 135 C637 193 702 299 702 420 C702 605 555 752 370 752 C186 752 39 605 39 420 C39 298 105 191 205 133 L205 88 L72 88 Z " />
<glyph glyph-name="Iotadieresis" unicode="&#x3aa;" horiz-adv-x="248" d="M167 720 C167 733 158 742 145 742 L103 742 C89 742 81 734 81 720 L81 22 C81 7 88 0 103 0 L145 0 C159 0 167 7 167 22 L167 720 Z M-21 886 C-21 851 7 823 42 823 C78 823 105 851 105 886 C105 921 78 949 42 949 C7 949 -21 921 -21 886 L-21 886 Z M165 887 C165 852 193 824 228 824 C264 824 291 852 291 887 C291 922 264 950 228 950 C193 950 165 922 165 887 L165 887 Z " />
<glyph glyph-name="Upsilondieresis" unicode="&#x3ab;" horiz-adv-x="659" d="M286 324 L286 23 C286 7 293 0 307 0 L350 0 C365 0 373 7 373 23 L373 327 C455 459 534 588 616 720 C620 725 621 731 621 733 C621 739 617 742 609 742 L541 742 C531 741 526 738 518 725 L329 413 L144 721 C132 740 131 741 118 742 L53 742 C43 742 38 738 38 732 C38 728 40 723 44 717 L286 324 Z M173 842 C173 808 201 780 235 780 C271 780 298 808 298 842 C298 877 271 905 235 905 C201 905 173 877 173 842 L173 842 Z M359 843 C359 809 387 781 421 781 C457 781 484 809 484 843 C484 878 457 906 421 906 C387 906 359 878 359 843 L359 843 Z " />
<glyph glyph-name="alphatonos" unicode="&#x3ac;" horiz-adv-x="594" d="M314 564 C323 564 330 572 331 582 L347 729 C349 737 342 743 333 743 L262 743 C254 743 249 737 249 731 L266 582 C266 570 274 565 284 564 L314 564 Z M430 25 C430 10 437 0 455 0 L487 0 C501 0 513 9 513 22 L513 466 C513 482 501 491 487 491 L458 491 C441 491 435 482 434 466 L430 416 C400 459 361 499 279 499 C138 499 40 386 40 244 C40 102 139 -10 279 -10 C360 -10 400 27 430 72 L430 25 Z M123 244 C123 337 183 415 279 415 C377 415 430 336 430 242 C430 146 375 73 279 73 C185 73 123 150 123 244 L123 244 Z " />
<glyph glyph-name="epsilontonos" unicode="&#x3ad;" horiz-adv-x="437" d="M232 -7 C299 -7 332 8 374 37 C379 39 382 42 382 46 C382 48 382 49 381 51 L347 106 L347 106 C344 111 341 113 339 113 C337 113 334 112 332 111 C306 92 266 76 230 76 C176 76 150 112 150 146 C150 178 177 215 211 215 L288 215 C292 215 297 218 297 224 L297 286 C297 294 293 297 288 297 L230 297 C196 297 170 325 170 356 C170 389 196 417 238 417 C275 416 290 403 316 385 C320 383 322 382 323 382 C327 382 329 383 331 387 L365 445 C369 451 365 458 358 464 C335 485 270 501 235 501 C145 501 78 435 78 356 C78 323 93 286 114 264 C80 232 58 190 58 145 C58 66 136 -7 232 -7 L232 -7 Z M244 564 C253 564 260 572 261 582 L277 729 C279 737 272 743 263 743 L192 743 C184 743 179 737 179 731 L196 582 C196 570 204 565 214 564 L244 564 Z " />
<glyph glyph-name="etatonos" unicode="&#x3ae;" horiz-adv-x="591" d="M164 467 C163 481 154 489 141 489 L103 489 C91 489 81 481 81 467 L81 22 C81 8 89 0 104 0 L145 0 C159 0 167 7 167 22 L167 296 C172 362 234 414 298 414 C364 414 421 358 421 291 L421 -171 C421 -187 425 -195 443 -195 L484 -195 C497 -195 508 -186 508 -170 L508 291 C508 407 425 500 310 500 C250 500 198 460 167 422 L164 467 Z M320 564 C328 564 335 572 337 582 L352 729 C354 737 348 743 339 743 L267 743 C259 743 255 737 254 731 L271 582 C271 570 279 565 290 564 L320 564 Z " />
<glyph glyph-name="iotatonos" unicode="&#x3af;" horiz-adv-x="248" d="M142 565 C150 565 157 573 159 583 L174 730 C176 738 170 744 161 744 L89 744 C81 744 77 738 76 732 L93 583 C93 571 101 566 112 565 L142 565 Z M167 469 C167 481 158 491 144 491 L103 491 C91 491 81 482 81 469 L81 22 C81 7 88 0 104 0 L145 0 C159 0 167 7 167 22 L167 469 Z " />
</font>
</svg>
